<svg xmlns="http://www.w3.org/2000/svg" xmlns:xlink="http://www.w3.org/1999/xlink" width="508" height="508" viewBox="0 0 508 508">
  <defs>
    <circle id="cyprus-a" cx="254" cy="254" r="254"/>
  </defs>
  <g fill="none" fill-rule="evenodd">
    <mask id="cyprus-b" fill="#fff">
      <use xlink:href="#cyprus-a"/>
    </mask>
    <g fill-rule="nonzero" mask="url(#cyprus-b)">
      <g transform="translate(-16 -12)">
        <rect width="534.343" height="528.631" fill="#F2F2F2"/>
        <path fill="#2F4712" d="M255.033,425.063 C254.894,424.996 254.858,424.971 254.765,424.857 L254.66,424.761 C254.404,424.532 253.972,424.107 253.401,423.456 C252.339,422.264 250.917,420.49 249.666,418.928 C247.183,415.847 245.14,413.186 244.743,412.672 L244.113,411.858 L243.482,412.672 C243.098,413.186 241.045,415.847 238.571,418.928 C237.322,420.49 235.887,422.264 234.838,423.456 C234.255,424.106 233.835,424.531 233.579,424.761 L233.474,424.857 C233.367,424.971 233.332,424.996 233.253,425.043 L233.147,425.043 L231.549,424.901 L232.319,424.296 L233.031,424.762 C232.996,424.669 232.939,424.533 232.833,424.365 C232.647,424.108 232.389,423.782 232.086,423.458 C231.445,422.756 230.522,421.915 229.798,421.24 C228.165,419.771 226.52,418.392 226.506,418.367 L226.496,418.367 L237.931,409.945 L233.417,407.843 L235.831,405.138 L244.115,408.685 L252.41,405.138 L254.826,407.843 L250.31,409.945 L261.744,418.367 L261.734,418.367 C261.711,418.392 260.076,419.771 258.444,421.24 C257.718,421.915 256.798,422.756 256.155,423.458 C255.852,423.782 255.585,424.108 255.409,424.365 C255.303,424.533 255.234,424.67 255.21,424.741 L255.922,424.297 L256.692,424.902 L255.119,425.044 L255.049,425.044 L255.033,425.063 Z M275.683,412.3 C267.006,412.3 261.09,408.404 260.903,408.286 C268.44,404.693 274.972,402.871 280.309,402.871 L280.399,402.871 C284.927,402.896 287.706,404.268 289.244,405.393 C290.807,406.537 291.484,407.749 291.556,407.867 L291.556,407.867 C286.419,410.805 281.099,412.3 275.7,412.3 L275.683,412.3 L275.683,412.3 Z M212.552,412.3 C207.151,412.3 201.818,410.806 196.707,407.867 L196.696,407.867 L196.707,407.867 C196.707,407.867 197.371,406.582 198.993,405.393 C200.546,404.268 203.333,402.896 207.837,402.871 L207.93,402.871 C213.263,402.871 219.796,404.693 227.347,408.286 C227.09,408.45 221.164,412.3 212.552,412.3 L212.564,412.3 L212.552,412.3 Z M299.068,407.117 C298.204,407.117 297.458,406.675 297.202,406.023 C296.968,405.371 297.059,404.553 297.434,403.572 C298.063,401.964 299.535,400.26 301.404,400.12 C301.447,400.12 301.496,400.12 301.517,400.12 L301.775,400.12 C302.171,400.12 302.614,400.236 303.01,400.398 L303.01,400.398 C303.01,400.398 303.15,402.08 302.734,403.759 C302.477,404.739 302.105,405.488 301.588,406.044 C300.982,406.746 300.095,407.117 299.068,407.117 L299.068,407.117 Z M189.159,407.117 C188.154,407.117 187.268,406.746 186.638,406.045 C186.113,405.489 185.751,404.74 185.495,403.76 C185.099,402.173 185.215,400.565 185.227,400.399 C185.635,400.213 186.066,400.121 186.463,400.121 L186.557,400.121 C188.552,400.121 190.128,401.846 190.802,403.573 C191.187,404.554 191.259,405.372 191.025,406.024 C190.792,406.653 190.032,407.117 189.159,407.117 L189.159,407.117 Z M257.916,402.337 C266.97,385.186 276.374,383.342 280.005,383.342 C281.239,383.363 282.033,383.552 282.175,383.599 L282.196,383.62 C282.196,383.643 282.736,387.426 280.072,391.53 C277.61,395.359 271.743,400.353 257.917,402.359 L257.906,402.359 L257.916,402.337 Z M230.323,402.359 C216.495,400.376 210.637,395.359 208.152,391.53 C205.503,387.426 206.053,383.643 206.053,383.598 L206.053,383.598 L206.064,383.573 C206.075,383.573 206.916,383.363 208.188,383.342 C211.864,383.342 221.268,385.186 230.323,402.337 L230.333,402.359 L230.323,402.337 L230.323,402.359 Z M286.257,399.604 C283.527,399.604 280.424,399.371 277.086,398.929 L277.075,398.929 L277.086,398.929 C284.413,391.835 291.367,390.341 295.894,390.341 C296.247,390.341 296.55,390.364 296.852,390.364 C300.468,390.528 302.873,391.599 303.035,391.669 C303.035,391.764 302.944,392.467 302.569,393.304 C302.148,394.142 301.334,395.405 299.631,396.572 C296.666,398.579 292.164,399.604 286.281,399.604 L286.257,399.604 L286.257,399.604 Z M201.981,399.604 C196.077,399.604 191.573,398.579 188.609,396.572 C186.916,395.405 186.077,394.142 185.681,393.304 C185.306,392.488 185.214,391.811 185.202,391.669 C185.365,391.626 187.782,390.528 191.387,390.364 C191.702,390.364 192.005,390.341 192.331,390.341 C196.893,390.341 203.837,391.835 211.164,398.929 L211.164,398.929 L211.164,398.953 C207.815,399.37 204.722,399.603 201.969,399.603 L201.981,399.603 L201.981,399.604 Z M314.378,398.508 C310.992,398.44 308.589,397.925 307.261,396.9 C306.628,396.435 306.303,395.778 306.42,395.173 C306.534,394.472 307.096,393.749 308.146,392.98 C310.993,390.831 315.193,389.713 320.654,389.621 C321.006,389.621 321.354,389.621 321.705,389.621 C322.008,389.621 322.311,389.621 322.614,389.621 C329.126,389.783 334.913,391.254 334.983,391.254 L335.005,391.254 L334.983,391.275 C329.639,396.619 321.097,398.508 314.867,398.508 L314.378,398.508 L314.378,398.508 Z M173.381,398.508 C167.152,398.508 158.588,396.618 153.256,391.275 L153.256,391.254 L153.266,391.254 C153.325,391.254 159.113,389.76 165.634,389.621 C166.02,389.621 166.405,389.621 166.801,389.621 C172.645,389.621 177.114,390.74 180.09,392.98 C181.129,393.75 181.699,394.472 181.83,395.173 C181.933,395.777 181.619,396.435 180.989,396.9 C179.647,397.901 177.243,398.44 173.859,398.486 L173.38,398.533 L173.38,398.508 L173.381,398.508 Z M335.052,388.149 C334.307,388.149 333.768,387.66 333.605,387.19 C333.42,386.584 333.464,385.909 333.746,385.091 C334.025,384.298 334.517,383.551 335.099,382.99 C335.542,382.568 336.242,382.056 337.11,382.056 C337.527,382.056 337.853,382.151 338.133,382.265 C338.133,382.335 338.225,383.76 337.899,385.204 C337.715,386.093 337.434,386.725 337.014,387.237 C336.546,387.798 335.799,388.149 335.052,388.149 L335.052,388.149 Z M153.199,388.149 C152.428,388.149 151.705,387.797 151.225,387.239 C150.818,386.726 150.536,386.094 150.34,385.232 C150,383.736 150.107,382.292 150.107,382.292 L150.107,382.267 C150.398,382.153 150.726,382.058 151.075,382.058 L151.075,382.058 C151.996,382.058 152.709,382.57 153.14,382.992 C153.722,383.553 154.201,384.3 154.481,385.093 C154.774,385.91 154.819,386.585 154.632,387.192 C154.47,387.66 153.933,388.149 153.199,388.149 L153.199,388.149 Z M288.426,387.099 C287.542,387.099 286.793,386.656 286.562,386.002 C286.329,385.371 286.399,384.532 286.793,383.552 C287.401,381.964 288.893,380.237 290.761,380.097 C290.807,380.097 290.832,380.097 290.853,380.097 L291.133,380.097 C291.507,380.12 291.95,380.214 292.347,380.377 L292.347,380.377 C292.347,380.377 292.51,382.058 292.092,383.736 C291.836,384.715 291.462,385.465 290.948,386.026 C290.318,386.727 289.407,387.099 288.426,387.099 L288.426,387.099 Z M199.812,387.099 C198.819,387.099 197.92,386.727 197.291,386.027 C196.778,385.465 196.404,384.716 196.16,383.737 C195.763,382.153 195.868,380.543 195.878,380.378 C196.3,380.215 196.719,380.121 197.127,380.098 L197.21,380.098 C199.216,380.098 200.792,381.827 201.468,383.553 C201.853,384.533 201.923,385.372 201.678,386.003 C201.445,386.656 200.685,387.1 199.822,387.1 L199.812,387.1 L199.812,387.099 Z M177.105,386.165 C164.574,385.721 158.063,382.152 154.819,379.259 C152.988,377.602 151.973,375.993 151.436,374.917 C150.933,373.891 150.747,373.12 150.713,372.957 L150.735,372.957 C150.735,372.957 151.912,372.537 153.826,372.491 L154.119,372.491 C158.344,372.491 166.954,374.263 177.105,386.165 L177.105,386.165 L177.105,386.165 Z M311.134,386.165 C320.983,374.635 329.406,372.63 333.534,372.491 C333.652,372.491 333.793,372.491 333.907,372.491 C334.07,372.491 334.235,372.491 334.399,372.491 C336.24,372.537 337.407,372.91 337.525,372.957 L337.525,372.957 C337.525,372.957 337.338,373.797 336.801,374.917 C336.265,375.993 335.239,377.602 333.419,379.259 C330.175,382.152 323.664,385.721 311.134,386.165 L311.155,386.165 L311.134,386.165 Z M190.721,384.904 C180.64,383.363 174.924,379.022 171.901,375.662 C168.739,372.139 167.795,368.849 167.748,368.709 C167.772,368.709 168.996,368.384 170.863,368.336 C170.99,368.336 171.131,368.336 171.273,368.336 C171.423,368.336 171.563,368.336 171.714,368.336 C176.79,368.43 185.995,370.74 190.721,384.904 L190.721,384.904 L190.721,384.904 Z M297.527,384.904 C302.242,370.74 311.459,368.429 316.522,368.336 C316.662,368.336 316.827,368.336 316.965,368.336 C317.107,368.336 317.247,368.336 317.385,368.336 C319.229,368.384 320.467,368.709 320.489,368.709 L320.489,368.709 C320.489,368.734 319.554,372.069 316.336,375.662 C313.304,379.022 307.61,383.363 297.527,384.904 L297.527,384.904 Z M349.287,380.051 C343.685,380.051 339.672,378.931 339.65,378.931 L339.625,378.931 L339.65,378.909 C339.671,378.839 344.037,372.513 352.415,370.835 C354.632,370.394 356.916,370.179 359.253,370.179 C359.459,370.179 359.648,370.179 359.833,370.179 C364.665,370.251 368.144,371.233 368.187,371.233 L368.187,371.279 C368.187,371.279 368.233,371.652 368.165,372.121 C368.096,372.56 367.908,373.286 367.349,374.126 C366.369,375.571 364.106,377.604 358.831,378.933 C355.82,379.681 352.624,380.053 349.332,380.053 L349.287,380.053 L349.287,380.051 Z M138.939,380.051 C135.638,380.051 132.429,379.679 129.419,378.931 C124.132,377.602 121.869,375.57 120.901,374.124 C120.353,373.284 120.154,372.559 120.084,372.119 C120.014,371.65 120.049,371.299 120.062,371.231 L120.084,371.231 C120.096,371.231 123.584,370.25 128.416,370.177 C128.602,370.177 128.8,370.177 128.999,370.177 C131.321,370.177 133.619,370.392 135.813,370.833 C144.201,372.512 148.554,378.837 148.6,378.907 L148.6,378.929 L148.59,378.929 C148.543,378.931 144.551,380.051 138.939,380.051 L138.939,380.051 Z M325.904,371.558 C325.017,371.558 324.294,371.114 324.037,370.436 C323.806,369.783 323.851,368.991 324.223,368.037 C324.879,366.425 326.35,364.72 328.215,364.581 C328.238,364.555 328.284,364.555 328.331,364.555 L328.588,364.581 C328.984,364.581 329.406,364.697 329.824,364.858 L329.824,364.858 C329.824,364.858 329.964,366.516 329.545,368.195 C329.288,369.2 328.94,369.97 328.425,370.507 C327.796,371.185 326.883,371.558 325.904,371.558 L325.904,371.558 Z M162.357,371.558 C161.34,371.558 160.443,371.185 159.824,370.507 C159.323,369.97 158.949,369.199 158.693,368.195 C158.296,366.588 158.401,364.999 158.413,364.858 C158.834,364.697 159.265,364.581 159.662,364.581 L159.755,364.581 C161.751,364.581 163.325,366.307 164.002,368.037 C164.376,368.991 164.445,369.783 164.2,370.436 C163.955,371.113 163.221,371.558 162.357,371.558 L162.357,371.558 Z M144.75,369.129 C144.68,369.129 139.989,367.915 135.217,364.976 C130.806,362.248 125.404,357.44 124.739,349.969 L124.739,349.969 L124.751,349.948 C124.751,349.948 125.16,349.855 125.779,349.855 C125.861,349.855 125.941,349.831 126.034,349.831 C127.354,349.831 130.06,350.204 133.328,352.701 C137.48,355.877 141.319,361.38 144.75,369.129 L144.75,369.129 Z M343.498,369.129 C346.907,361.38 350.78,355.852 354.932,352.7 C357.874,350.462 360.347,349.902 361.888,349.854 C361.983,349.854 362.074,349.83 362.169,349.83 C362.259,349.83 362.377,349.854 362.471,349.854 C363.076,349.854 363.473,349.947 363.497,349.968 L363.497,349.994 C362.843,357.438 357.455,362.266 353.019,364.974 C348.259,367.894 343.591,369.107 343.498,369.129 L343.498,369.129 Z M156.243,368.709 C156.219,368.709 152.869,367.357 148.705,363.856 C144.82,360.588 139.349,354.733 135.393,345.282 C135.393,345.282 136.303,344.791 137.69,344.72 C137.772,344.697 137.854,344.697 137.935,344.697 C138.051,344.697 138.169,344.72 138.298,344.72 C140.221,344.766 143.14,345.561 146.382,349.063 C150.115,353.075 153.43,359.703 156.263,368.709 L156.277,368.709 L156.254,368.709 L156.243,368.709 Z M331.972,368.686 C334.82,359.704 338.132,353.076 341.866,349.064 C345.088,345.562 348.027,344.767 349.894,344.721 C350.082,344.721 350.197,344.721 350.315,344.721 C350.408,344.721 350.476,344.721 350.548,344.721 C351.902,344.791 352.785,345.233 352.858,345.283 C348.915,354.757 343.432,360.613 339.532,363.857 C335.381,367.358 332.02,368.71 331.995,368.71 L331.973,368.71 L331.973,368.686 L331.972,368.686 Z M361.796,367.847 C360.325,367.847 359.367,367.521 358.97,366.867 C358.456,366.051 359.088,364.999 359.274,364.697 C360.3,363.181 362.684,361.641 365.715,361.641 L365.853,361.641 C366.486,361.662 367.16,361.757 367.768,361.896 L367.768,361.896 C367.768,361.92 367.956,363.391 367.325,364.858 C366.926,365.77 365.622,367.847 361.796,367.847 L361.796,367.847 Z M126.467,367.847 C122.628,367.847 121.31,365.77 120.925,364.858 C120.282,363.391 120.48,361.92 120.48,361.896 L120.48,361.896 C121.098,361.757 121.764,361.663 122.394,361.641 L122.522,361.641 C125.545,361.641 127.936,363.181 128.962,364.697 C129.161,364.999 129.791,366.051 129.278,366.867 C128.86,367.521 127.926,367.847 126.467,367.847 L126.467,367.847 Z M370.288,357.112 C368.001,357.112 366.531,356.971 366.51,356.971 L366.51,356.949 C366.51,356.949 366.602,354.148 369.074,351.438 C371.386,348.922 376.4,345.818 386.973,345.514 L386.973,345.514 L386.973,345.514 C386.973,345.537 386.669,347.941 385.55,350.507 C384.523,352.816 382.585,355.735 379.154,356.342 C375.701,356.971 372.434,357.09 370.287,357.09 L370.287,357.112 L370.288,357.112 Z M117.961,357.112 C115.814,357.112 112.536,356.996 109.081,356.342 C105.663,355.735 103.726,352.816 102.699,350.507 C101.591,347.941 101.276,345.537 101.264,345.514 L101.276,345.514 C111.859,345.839 116.853,348.922 119.186,351.438 C121.59,354.078 121.73,356.806 121.741,356.971 L121.73,356.971 C121.718,356.971 120.225,357.112 117.949,357.112 L117.961,357.112 L117.961,357.112 Z M359.273,346.12 C359.252,346.053 358.669,340.056 358.669,334.079 C358.669,328.129 365.015,325.749 365.295,325.654 L365.295,325.631 C365.295,325.772 364.991,327.827 364.688,330.23 C364.479,332.12 364.084,335.478 364.084,337.116 C364.084,338.75 362.941,340.803 361.702,342.738 C360.488,344.583 359.273,346.096 359.273,346.12 L359.273,346.12 L359.273,346.12 L359.273,346.12 Z M128.976,346.12 C128.963,346.073 127.75,344.583 126.56,342.737 C125.299,340.801 124.146,338.749 124.146,337.089 C124.146,335.478 123.771,332.119 123.538,330.23 C123.258,327.848 122.968,325.82 122.942,325.631 L122.955,325.631 C123.223,325.749 129.57,328.129 129.57,334.079 C129.57,340.056 128.987,346.027 128.975,346.096 L128.975,346.12 L128.976,346.12 L128.976,346.12 Z M367.489,345.538 C367.371,345.538 367.256,345.515 367.159,345.468 C367.021,345.423 366.904,345.282 366.833,345.094 C366.694,344.721 366.741,344.323 366.833,343.694 C367.045,342.578 367.557,341.129 368.467,339.122 C369.869,335.902 371.712,332.61 371.876,332.284 L371.922,332.262 C371.922,332.237 374.443,329.065 377.638,325.914 C379.485,324.093 381.234,322.602 382.82,321.524 C384.804,320.149 386.343,319.494 387.674,319.472 L387.695,319.472 C388.118,319.472 388.466,319.521 388.769,319.635 L388.792,319.635 L388.792,319.66 C388.792,319.66 389.097,322.222 388.861,325.35 C388.557,329.551 387.509,332.679 385.784,334.686 C383.844,336.88 380.555,339.356 376.518,341.689 C372.855,343.786 369.587,345.21 367.696,345.514 C367.627,345.514 367.582,345.514 367.488,345.514 L367.488,345.538 L367.489,345.538 Z M120.749,345.538 C120.681,345.538 120.61,345.538 120.552,345.515 C118.672,345.211 115.371,343.786 111.732,341.69 C107.681,339.357 104.392,336.881 102.466,334.687 C100.716,332.68 99.678,329.552 99.375,325.351 C99.164,322.365 99.421,319.89 99.445,319.635 C99.784,319.521 100.122,319.472 100.495,319.472 C101.907,319.493 103.399,320.124 105.431,321.524 C107.005,322.601 108.744,324.092 110.598,325.914 C113.796,329.064 116.304,332.236 116.328,332.262 L116.35,332.308 C116.56,332.681 118.38,335.95 119.78,339.122 C120.68,341.129 121.193,342.578 121.403,343.694 C121.519,344.324 121.554,344.721 121.391,345.094 C121.331,345.282 121.204,345.423 121.088,345.468 C120.97,345.515 120.866,345.538 120.737,345.538 L120.749,345.538 Z"/>
        <path fill="#FDAF31" d="M465.357,104.247 L463.466,104.995 L462.741,105.286 L460.456,105.158 L458.333,106.185 L454.553,108.764 L454.39,108.88 L452.989,109.254 L451.684,108.682 L450.936,109.02 L450.677,110.548 L449.956,111.645 L449.115,112.264 L446.082,112.568 L443.561,113.885 L440.249,112.998 L438.706,113.594 L435.439,116.534 L433.759,117.328 L433.199,117.292 L430.96,117.175 L430.026,117.49 L428.647,118.833 L426.012,119.042 L425.171,119.614 L423.889,122.204 L422.511,123.651 L421.694,123.815 L420.833,123.5 L420.178,123.617 L419.899,125.273 L419.246,125.973 L417.471,126.579 L416.073,127.757 L414.837,128.387 L413.179,128.352 L412.807,128.352 L411.126,129.263 L408.046,129.532 L406.739,130.768 L406.459,131.037 L405.852,131.399 L404.872,131.994 L404.616,132.134 L403.427,131.924 L402.025,132.472 L401.464,131.608 L400.509,132.18 L399.225,132.239 L397.638,131.528 L396.425,130.992 L395.537,131.119 L395.233,132.671 L395.212,132.834 L394.278,134.07 L392.528,135.12 L392.293,135.435 L390.312,137.991 L386.554,141.945 L383.357,143.556 L380.068,144.558 L377.756,146.46 L371.713,149.459 L362.17,154.208 L360.209,154.839 L357.408,155.281 L352.416,157.124 L347.98,158.455 L347.748,158.524 L346.859,158.793 L340.652,160.671 L337.758,160.366 L336.031,161 L331.575,160.498 L328.471,160.558 L326.511,160.967 L322.823,162.738 L316.569,165.738 L314.516,167.628 L311.294,169.297 L307.562,170.486 L307.562,168.912 L307.538,168.843 L306.233,169.25 L305.297,169.553 L302.241,170.02 L300.561,170.02 L299.488,169.718 L299.348,169.763 L293.116,171.817 L286.163,172.493 L282.685,173.6 L280.095,173.566 L278.473,174.045 L275.288,174.442 L274.155,174.139 L273.898,174.056 L264.529,174.465 L260.258,173.987 L258.216,174.454 L254.786,173.298 L249.804,172.714 L248.637,172.364 L246.012,171.594 L244.822,172.271 L243.935,172.364 L241.8,171.594 L241.042,171.583 L239.292,172.212 L238.277,171.955 L237.342,171.209 L235.137,170.883 L233.797,169.75 L226.317,170.741 L224.275,170.147 L217.474,168.163 L216.388,168.222 L215.035,169.225 L213.004,169.972 L211.243,170.427 L208.84,170.509 L206.062,169.785 L203.181,168.385 L202.118,168.141 L199.75,168.374 L199.026,168.443 L194.675,166.11 L189.062,162.597 L185.258,160.766 L183.836,160.531 L183.638,161.219 L184.348,163.448 L184.593,165.654 L184.512,167.695 L184.478,168.968 L184.838,170.099 L186.203,171.627 L186.774,173.156 L187.196,177.356 L187.196,181.627 L186.529,188.441 L186.297,189.479 L185.504,193.004 L184.781,196.246 L181.957,204.881 L181.174,205.943 L179.274,207.249 L174.956,210.189 L171.77,212.021 L170.767,212.43 L168.188,212.629 L166.578,212.546 L164.582,211.462 L162.611,210.96 L160.044,209.106 L157.174,208.511 L154.034,206.702 L153.218,205.71 L151.514,205.558 L149.146,204.848 L149.146,204.835 L148.271,204.58 L147.676,204.404 L147.676,204.404 L144.655,204.323 L141.831,203.015 L140.348,202.665 L138.319,202.561 L136.196,203.542 L136.196,203.542 L135.11,204.043 L133.757,203.506 L132.777,203.564 L131.657,205.245 L131.493,205.513 L130.723,205.92 L129.765,205.898 L129.018,205.887 L128.214,206.236 L127.118,206.715 L127.118,206.715 L126.16,207.135 L125.681,207.332 L125.681,207.321 L125.39,207.38 L124.877,207.474 L124.235,207.601 L123.113,206.936 L122.519,206.586 L121.515,206.387 L120.979,206.773 L120.875,208.604 L120.384,209.701 L118.821,211.09 L117.235,212.479 L116.127,214.112 L113.199,220.797 L111.366,223.493 L110.794,224.123 L108.88,226.234 L107.176,227.553 L103.257,230.598 L99.545,231.986 L96.349,232.64 L94.785,232.64 L91.846,232.244 L89.197,231.438 L86.292,229.618 L83.106,227.052 L78.485,222.501 L77.831,222.104 L77.703,222.011 L76.245,221.09 L75.172,221.113 L74.74,221.813 L74.518,222.816 L74.32,223.703 L73.796,228.778 L73.83,229.069 L74.111,231.159 L77.61,236.059 L78.696,238.661 L78.871,238.964 L79.594,240.177 L80.142,241.099 L80.202,241.192 L81.403,244.762 L80.563,246.781 L80.982,248.135 L79.922,248.965 L79.723,250.13 L82.873,254.074 L83.561,255.814 L82.791,258.229 L81.566,259.561 L81.227,259.92 L81.391,260.948 L82.849,262.242 L85.311,264.436 L86.619,267.692 L87.611,268.565 L88.778,268.321 L89.42,268.81 L90.399,268.789 L91.356,269.757 L91.985,270.06 L92.967,270.549 L93.748,271.566 L93.924,274.677 L95.37,278.541 L95.392,280.644 L95.404,280.946 L96.303,282.507 L96.582,283.722 L96.103,286.965 L97.258,288.016 L98.507,287.737 L99.311,287.878 L100.606,288.95 L102.171,291.331 L103.71,291.12 L104.679,291.589 L109.382,295.835 L110.443,296.371 L110.513,296.418 L111.271,296.791 L112.228,297.771 L113.711,296.791 L113.874,296.744 L115.484,296.602 L116.183,297.093 L117.538,298.003 L119.322,297.98 L123.185,299.17 L124.864,299.587 L128.26,301.691 L129.707,302.601 L130.56,303.278 L131.691,304.211 L133.954,305.191 L135.903,305.656 L136.953,305.915 L137.746,306.22 L137.769,306.171 L137.781,306.171 L137.758,306.22 L141.969,307.828 L144.245,308.363 L146.357,309.136 L147.885,309.694 L149.016,309.718 L150.603,308.363 L152.153,308.268 L153.437,308.596 L154.686,308.41 L156.657,307.174 L157.054,306.59 L158.453,305.936 L163.191,305.355 L164.569,305.798 L168.127,304.255 L170.508,304.91 L172.609,304.161 L177.216,305.19 L178.442,306.053 L179.807,307.617 L179.971,307.617 L181.499,307.661 L180.857,308.713 L182.862,310.836 L184.685,313.565 L184.803,313.917 L186.132,317.79 L187.112,319.189 L187.8,321.104 L187.823,322.343 L186.762,323.157 L186.587,323.624 L186.527,323.787 L186.738,324.323 L187.147,324.09 L187.918,323.67 L188.838,323.528 L190.483,323.694 L191.569,323.808 L193.284,322.97 L194.428,322.408 L196.248,323.179 L198.256,323.157 L199.107,323.528 L201.487,324.603 L202.699,324.745 L203.155,324.416 L203.435,323.763 L203.296,322.971 L202.385,321.896 L200.364,319.562 L199.538,318.348 L198.908,316.622 L198.72,314.385 L198.58,312.891 L198.826,310.93 L199.373,310.229 L199.77,308.642 L199.77,308.642 L199.876,308.222 L200.994,306.751 L203.959,304.861 L207.145,301.989 L209.666,300.335 L212.265,299.215 L212.338,298.89 L212.629,299.007 L219.233,296.764 L219.338,296.741 L222.278,296.227 L242.125,297.628 L242.86,297.419 L242.87,297.395 L243.525,295.552 L243.886,295.199 L244.119,294.967 L246.302,294.032 L247.329,293.893 L250.152,294.593 L251.319,294.873 L253.176,293.825 L254.491,293.846 L257.212,292.352 L258.892,292.398 L259.534,292.141 L262.812,289.786 L265.962,288.9 L266.78,288.432 L267.071,288.294 L270.303,286.588 L272.355,285.001 L274.132,284.067 L276.076,283.581 L281.142,283.205 L282.169,281.505 L284.362,281.2 L285.67,279.702 L287.206,279.096 L288.279,277.545 L289.167,276.239 L290.452,275.504 L294.513,275.247 L299.344,275.845 L299.948,275.458 L301.071,271.583 L302.19,270.849 L305.271,266.379 L305.271,264.749 L305.271,263.393 L305.783,261.457 L305.434,257.956 L305.83,254.409 L307.743,249.917 L309.423,248.096 L312.131,246.266 L313.532,245.67 L315.467,245.332 L315.467,245.332 L315.747,245.286 L316.238,245.203 L322.96,245.11 C323.05,245.04 325.407,245.074 325.407,245.074 L327.647,245.04 L333.316,246.054 L333.715,246.125 L335.627,246.744 L337.845,248.46 L340.179,250.748 L340.622,251.167 L342.14,251.809 L342.606,252.005 L343.843,251.809 L345.638,250.887 L346.97,249.744 L348.814,248.74 L348.86,248.682 L349.887,247.13 L349.91,247.094 L349.932,247.105 L349.932,247.094 L349.932,247.094 L350.33,246.476 L353.851,245.088 L358.031,244.854 L358.496,244.597 L358.752,244.457 L359.876,243.162 L360.902,243.15 L363.375,244.06 L365.147,243.711 L366.546,244.271 L367.62,244.143 L369.674,243.898 L371.868,245.439 L373.127,245.603 L377.655,248.24 L377.888,248.275 L378.003,248.298 L378.259,248.345 L378.774,248.182 L379.591,247.961 L379.707,247.925 L379.801,248.065 L380.314,248.788 L381.014,248.882 L381.854,247.773 L381.505,247.271 L381.388,247.085 L379.778,246.757 L378.331,244.296 L379.708,242.815 L377.562,240.153 L377.189,239.721 L377.047,239.534 L376.301,238.403 L372.519,232.639 L367.62,228.707 L367.62,228.707 L365.892,227.331 L365.871,227.319 L365.287,226.853 L362.624,224.168 L360.759,221.682 L360.526,221.148 L360.13,220.296 L359.011,217.845 L357.049,216.34 L355.44,214.59 L355.369,214.485 L352.079,210.005 L351.521,209.258 L350.75,208.803 L349.092,208.792 L348.952,208.64 L348.859,208.547 L348.907,208.488 L349.701,207.696 L350.587,207.473 L350.959,206.609 L349.28,201.744 L349.28,201.58 L349.139,200.028 L350.516,192.969 L350.679,192.106 L353.012,187.368 L354.46,186.179 L356.046,183.087 L357.4,181.105 L358.681,179.844 L358.917,179.705 L361.25,178.292 L363.21,178.012 L365.102,177.755 L368.368,178.758 L371.448,178.7 L372.054,178.63 L373.479,178.479 L375.788,177.744 L376.886,177.068 L377.47,176.193 L378.636,172.225 L379.009,170.964 L379.755,169.589 L383.981,164.724 L387.178,161.772 L394.365,156.497 L397.865,154.397 L399.684,153.324 L415.693,146.195 L419.87,141.982 L422.042,139.777 L425.867,137.198 L430.371,135.366 L434.222,132.297 L435.084,131.235 L436.135,127.818 L437.025,127.596 L437.817,125.869 L438.05,125.378 L441.223,123.15 L441.573,122.974 L453.826,116.826 L455.598,117.071 L456.577,115.648 L460.123,115.052 L460.778,114.937 L461.663,114.505 L462.411,113.22 L462.411,112.976 L462.505,109.569 L463.276,108.647 L463.694,106.406 L464.092,105.893 L464.491,105.345 L465.492,104.646 L465.33,104.214 L465.357,104.247 Z"/>
      </g>
    </g>
  </g>
</svg>
