<?xml version="1.0" encoding="utf-8"?>
<!-- Generator: Adobe Illustrator 22.0.1, SVG Export Plug-In . SVG Version: 6.00 Build 0)  -->
<svg version="1.1" id="Layer_1" xmlns="http://www.w3.org/2000/svg" xmlns:xlink="http://www.w3.org/1999/xlink" x="0px" y="0px"
	 width="508px" height="508px" viewBox="0 0 508 508" style="enable-background:new 0 0 508 508;" xml:space="preserve">
<style type="text/css">
	.st0{filter:url(#Adobe_OpacityMaskFilter);}
	.st1{fill:#FFFFFF;}
	.st2{mask:url(#denmark-b_1_);}
	.st3{filter:url(#Adobe_OpacityMaskFilter_1_);}
	.st4{mask:url(#denmark-d_1_);}
	.st5{fill:#C7463D;}
	.st6{fill:#F2F2F2;}
</style>
<g>
	<defs>
		<filter id="Adobe_OpacityMaskFilter" filterUnits="userSpaceOnUse" x="-51.1" y="-4.6" width="993.6" height="517.2">
			<feColorMatrix  type="matrix" values="1 0 0 0 0  0 1 0 0 0  0 0 1 0 0  0 0 0 1 0"/>
		</filter>
	</defs>
	<mask maskUnits="userSpaceOnUse" x="-51.1" y="-4.6" width="993.6" height="517.2" id="denmark-b_1_">
		<g class="st0">
			<circle id="denmark-a_1_" class="st1" cx="254" cy="254" r="254"/>
		</g>
	</mask>
	<g class="st2">
		<g transform="translate(-40 -5)">
			<defs>
				<filter id="Adobe_OpacityMaskFilter_1_" filterUnits="userSpaceOnUse" x="-11.1" y="0.4" width="993.6" height="517.2">
					<feColorMatrix  type="matrix" values="1 0 0 0 0  0 1 0 0 0  0 0 1 0 0  0 0 0 1 0"/>
				</filter>
			</defs>
			<mask maskUnits="userSpaceOnUse" x="-11.1" y="0.4" width="993.6" height="517.2" id="denmark-d_1_">
				<g class="st3">
					<path id="denmark-c_1_" class="st1" d="M980.6,477.4c0,22.1-18.1,40.2-40.2,40.2H40.6c-22.1,0-40.2-18.1-40.2-40.2V40.6
						c0-22.1,18.1-40.2,40.2-40.2h899.7c22.1,0,40.2,18.1,40.2,40.2V477.4z"/>
				</g>
			</mask>
			<g class="st4">
				<g transform="translate(-12)">
					<path class="st5" d="M992.6,477.4c0,22.1-18.1,40.2-40.2,40.2H52.6c-22.1,0-40.2-18.1-40.2-40.2V40.6
						c0-22.1,18.1-40.2,40.2-40.2h899.7c22.1,0,40.2,18.1,40.2,40.2V477.4z"/>
					<rect x="188.5" y="0.4" class="st6" width="76.9" height="517.2"/>
					<rect x="0.9" y="220.6" class="st6" width="993.6" height="76.9"/>
				</g>
			</g>
		</g>
	</g>
</g>
</svg>
