<?xml version="1.0" encoding="utf-8"?>
<!-- Generator: Adobe Illustrator 22.0.1, SVG Export Plug-In . SVG Version: 6.00 Build 0)  -->
<svg version="1.1" id="Layer_1" xmlns="http://www.w3.org/2000/svg" xmlns:xlink="http://www.w3.org/1999/xlink" x="0px" y="0px"
	 width="508px" height="508px" viewBox="0 0 508 508" style="enable-background:new 0 0 508 508;" xml:space="preserve">
<style type="text/css">
	.st0{filter:url(#Adobe_OpacityMaskFilter);}
	.st1{fill:#FFFFFF;}
	.st2{mask:url(#greece-b_1_);}
	.st3{fill:#337EBE;}
	.st4{fill:#F2F2F2;}
</style>
<g>
	<defs>
		<filter id="Adobe_OpacityMaskFilter" filterUnits="userSpaceOnUse" x="-15.9" y="-6.7" width="651.9" height="522">
			<feColorMatrix  type="matrix" values="1 0 0 0 0  0 1 0 0 0  0 0 1 0 0  0 0 0 1 0"/>
		</filter>
	</defs>
	<mask maskUnits="userSpaceOnUse" x="-15.9" y="-6.7" width="651.9" height="522" id="greece-b_1_">
		<g class="st0">
			<circle id="greece-a_1_" class="st1" cx="254" cy="254" r="254"/>
		</g>
	</mask>
	<g class="st2">
		<g transform="translate(-16 -7)">
			<rect x="0.1" y="318.5" class="st3" width="513.2" height="37.6"/>
			<rect x="0.1" y="204.5" class="st3" width="75.9" height="75.7"/>
			<rect x="0.1" y="394.6" class="st3" width="651.9" height="127.8"/>
			<polygon class="st3" points="190.1,204.5 114.3,204.5 114.3,280.2 513.3,280.2 513.3,242.5 190.1,242.5 			"/>
			<rect x="190.1" y="166.5" class="st3" width="323.1" height="37.7"/>
			<polygon class="st3" points="0.1,0.3 0.1,166.1 75.9,166.1 75.9,90.3 114.3,90.3 114.3,166.1 190.1,166.1 190.1,128.1 
				513.3,128.1 513.3,0.3 			"/>
			<g transform="translate(0 89)">
				<path class="st3" d="M1.3,316.6c0,14.7,12,26.6,26.6,26.6h596c14.7,0,26.6-12,26.6-26.6v-11H1.3V316.6z M75.9,1.3h38.4v75.9
					h75.8v-38h460.5V27.2c0-14.7-12-26.6-26.6-26.6H28c-14.7,0-26.6,12-26.6,26.6v49.9h74.6V1.3z"/>
				<rect x="1.3" y="115.5" class="st3" width="74.6" height="75.7"/>
				<rect x="190.1" y="77.5" class="st3" width="460.5" height="37.7"/>
				<polygon class="st3" points="190.1,115.5 114.3,115.5 114.3,191.2 650.7,191.2 650.7,153.5 190.1,153.5 				"/>
				<rect x="1.3" y="229.5" class="st3" width="649.3" height="37.6"/>
				<polygon class="st4" points="190.1,77.5 650.7,77.5 650.7,39.1 190.1,39.1 190.1,77.1 114.3,77.1 114.3,1.3 75.9,1.3 75.9,77.1 
					1.3,77.1 1.3,115.5 75.9,115.5 75.9,191.2 1.3,191.2 1.3,229.5 650.7,229.5 650.7,191.2 114.3,191.2 114.3,115.5 190.1,115.5 
					190.1,153.5 650.7,153.5 650.7,115.1 190.1,115.1 				"/>
				<rect x="1.3" y="267.2" class="st4" width="649.3" height="38.4"/>
			</g>
		</g>
	</g>
</g>
</svg>
