<svg xmlns="http://www.w3.org/2000/svg" xmlns:xlink="http://www.w3.org/1999/xlink" width="508" height="508" viewBox="0 0 508 508">
  <defs>
    <circle id="malta-a" cx="254" cy="254" r="254"/>
  </defs>
  <g fill="none" fill-rule="evenodd">
    <mask id="malta-b" fill="#fff">
      <use xlink:href="#malta-a"/>
    </mask>
    <g mask="url(#malta-b)">
      <g transform="translate(-1 -6)">
        <rect width="254.955" height="520.294" x="255.045" fill="#C7463D" fill-rule="nonzero"/>
        <rect width="254.955" height="520.294" x=".09" fill="#F2F2F2" fill-rule="nonzero"/>
        <g transform="translate(35 145)">
          <path fill="#F1EEEE" fill-rule="nonzero" d="M44.831,40.165 C44.831,40.726 44.196,41.18 43.414,41.18 C42.63,41.18 41.995,40.726 41.995,40.165 C41.995,39.603 42.63,39.149 43.414,39.149 C44.196,39.148 44.831,39.603 44.831,40.165 Z"/>
          <path fill="#E60D2E" fill-rule="nonzero" d="M0.471,35.258 L0.471,61.012 L26.225,61.012 C26.225,65.304 30.517,69.596 34.809,69.596 L34.809,95.348 L60.56,95.348 L60.56,69.596 C64.852,69.596 69.145,65.303 69.145,61.012 L94.898,61.012 L94.898,35.258 L69.145,35.258 C69.145,30.967 64.853,26.675 60.56,26.675 L60.56,0.922 L34.81,0.922 L34.81,26.675 C30.518,26.675 26.226,30.967 26.226,35.258 L0.471,35.258 Z"/>
          <path fill="#96877D" fill-rule="nonzero" d="M2.188,36.974 L2.188,59.295 L27.94,59.295 C27.94,63.586 32.232,67.878 36.525,67.878 L36.525,93.631 L58.843,93.631 L58.843,67.878 C63.135,67.878 67.428,63.586 67.428,59.295 L93.179,59.295 L93.179,36.974 L67.428,36.974 C67.428,32.683 63.136,28.391 58.843,28.391 L58.843,2.638 L36.525,2.638 L36.525,28.391 C32.232,28.391 27.94,32.683 27.94,36.974 L2.188,36.974 L2.188,36.974 Z"/>
          <path fill="#CCC" fill-rule="nonzero" d="M3.048,37.833 L3.048,58.436 L28.8,58.436 C28.8,62.728 33.092,67.022 37.384,67.022 L37.384,92.774 L57.987,92.774 L57.987,67.022 C62.279,67.022 66.571,62.728 66.571,58.436 L92.323,58.436 L92.323,37.833 L66.571,37.833 C66.571,33.543 62.279,29.25 57.987,29.25 L57.987,3.497 L37.384,3.497 L37.384,29.25 C33.092,29.25 28.8,33.543 28.8,37.833 L3.048,37.833 Z"/>
          <path fill="#96877D" fill-rule="nonzero" d="M35.775,28.942 C37.284,30.45 36.877,33.304 34.865,35.316 C32.853,37.327 30,37.735 28.491,36.226 C26.982,34.718 27.39,31.864 29.401,29.852 C31.414,27.842 34.268,27.434 35.775,28.942 Z"/>
          <polygon fill="#D0D0D0" fill-rule="nonzero" points="28.188 33.495 28.795 32.887 31.223 34.101 30.009 31.673 30.615 31.065 33.043 35.921 28.187 33.492 28.187 33.495"/>
          <rect width="1" height="5.151" x="33.403" y="28.853" fill="#D0D0D0" fill-rule="nonzero" transform="rotate(134.951 33.903 31.428)"/>
          <path fill="#96877D" fill-rule="nonzero" d="M66.878,36.227 C65.37,37.735 62.516,37.328 60.504,35.316 C58.493,33.304 58.085,30.45 59.594,28.942 C61.102,27.433 63.956,27.841 65.967,29.852 C67.979,31.864 68.387,34.718 66.878,36.227 Z"/>
          <polygon fill="#D0D0D0" fill-rule="nonzero" points="62.326 28.638 62.933 29.246 61.719 31.674 64.147 30.46 64.755 31.067 59.899 33.496 62.327 28.639 62.327 28.638"/>
          <rect width="1" height="5.151" x="63.895" y="31.781" fill="#D0D0D0" fill-rule="nonzero" transform="rotate(-135.024 64.395 34.357)"/>
          <path fill="#96877D" fill-rule="nonzero" d="M59.593,67.33 C58.085,65.821 58.492,62.968 60.504,60.956 C62.516,58.944 65.369,58.537 66.878,60.045 C68.386,61.554 67.98,64.407 65.967,66.418 C63.956,68.43 61.103,68.838 59.593,67.33 L59.593,67.33 Z"/>
          <polygon fill="#D0D0D0" fill-rule="nonzero" points="67.182 62.777 66.575 63.384 64.147 62.171 65.361 64.599 64.755 65.207 62.326 60.351"/>
          <rect width="1" height="5.15" x="60.962" y="62.281" fill="#D0D0D0" fill-rule="nonzero" transform="rotate(-44.976 61.462 64.856)"/>
          <path fill="#96877D" fill-rule="nonzero" d="M28.492,60.045 C30,58.537 32.854,58.943 34.865,60.956 C36.876,62.967 37.284,65.82 35.775,67.329 C34.267,68.838 31.413,68.431 29.401,66.418 C27.391,64.407 26.983,61.554 28.492,60.045 L28.492,60.045 Z"/>
          <polygon fill="#D0D0D0" fill-rule="nonzero" points="33.044 67.633 32.437 67.026 33.651 64.598 31.224 65.812 30.617 65.205 35.473 62.776"/>
          <rect width="1" height="5.15" x="30.466" y="59.337" fill="#D0D0D0" fill-rule="nonzero" transform="rotate(45.024 30.966 61.912)"/>
          <path stroke="#96877D" stroke-width=".514" d="M65.712,48.135 C65.714,58.093 57.642,66.167 47.685,66.167 C37.727,66.167 29.656,58.093 29.658,48.135 C29.656,38.177 37.727,30.104 47.685,30.104 C57.642,30.104 65.714,38.178 65.712,48.135 L65.712,48.135 Z"/>
          <path stroke="#96877D" stroke-width=".514" d="M61.42,48.135 C61.422,55.722 55.272,61.874 47.685,61.874 C40.098,61.874 33.949,55.723 33.95,48.135 C33.949,40.548 40.098,34.397 47.685,34.397 C55.272,34.397 61.422,40.548 61.42,48.135 L61.42,48.135 L61.42,48.135 Z"/>
          <path fill="#000" fill-rule="nonzero" d="M41.676 62.729C41.676 63.036 41.513 63.32 41.248 63.474 40.981 63.628 40.654 63.628 40.388 63.474 40.123 63.32 39.959 63.036 39.96 62.729 39.959 62.422 40.123 62.139 40.388 61.984 40.654 61.83 40.981 61.83 41.248 61.984 41.513 62.139 41.676 62.422 41.676 62.729L41.676 62.729zM55.411 62.729C55.411 63.036 55.248 63.32 54.982 63.474 54.716 63.628 54.389 63.628 54.123 63.474 53.857 63.32 53.694 63.036 53.694 62.729 53.694 62.422 53.857 62.139 54.123 61.984 54.389 61.83 54.716 61.83 54.982 61.984 55.248 62.138 55.411 62.422 55.411 62.729L55.411 62.729zM47.112 62.729L47.112 63.624 45.968 63.624C44.823 63.624 44.823 64.52 45.968 64.52L47.112 64.52 47.112 65.416C47.116 66.343 48.111 66.456 48.184 65.493L48.257 64.526 49.401 64.526C50.546 64.526 50.546 63.63 49.401 63.63L48.257 63.63 48.257 62.736C48.257 61.84 47.112 61.84 47.112 62.736L47.112 62.729z"/>
          <path fill="#96877D" fill-rule="nonzero" stroke="#000" stroke-width=".203" d="M57.484 50.758C57.785 50.682 58.282 50.744 58.282 50.744 58.282 50.744 58.326 50.951 58.195 51.019 58.341 51.103 58.863 51.077 58.863 51.077 58.863 51.077 58.66 51.233 58.558 51.295 58.746 51.313 58.979 51.556 58.979 51.556 58.979 51.556 58.543 51.628 58.355 51.526 58.47 51.758 58.457 51.962 58.457 51.962 58.457 51.962 57.752 51.789 57.499 51.324M56.309 50.367C56.138 50.787 54.886 50.004 54.886 50.004 54.886 50.004 55.437 50.879 56.265 50.977"/>
          <polygon fill="#96877D" fill-rule="nonzero" stroke="#000" stroke-width=".203" points="40.674 58.394 55.335 58.394 56.467 57.494 54.58 56.478 51.677 55.491 50.516 54.853 48.367 54.968 46.567 55.926 44.099 56.217 43.519 56.885 41.69 57.029 38.816 56.971 43.606 57.726 39.657 57.522"/>
          <path fill="#96877D" fill-rule="nonzero" stroke="#000" stroke-width=".203" d="M48.571,54.184 C46.735,53.198 46.197,55.628 45.406,56.217 C46.473,56.398 47.279,55.396 48.193,54.91 C48.886,56.798 49.979,55.549 49.979,55.549 C49.979,55.549 51.118,57.357 52.636,56.536 C53.05,56.848 53.507,56.565 53.507,56.565 C53.507,56.565 54.058,56.668 54.175,56.421 C54.466,56.522 54.784,56.159 54.784,56.159 C54.784,56.159 55.416,56.166 55.539,55.84 C56.475,56.007 57.716,53.924 57.716,53.924 L58.093,53.199 L58.645,53.082 C58.645,53.082 58.681,52.719 58.384,52.734 C58.377,52.516 58.188,52.4 57.92,52.443 C57.97,52.313 57.775,52.211 57.775,52.211 C57.253,52.341 57.223,53.662 57.223,53.662 C57.223,53.662 56.309,54.359 55.974,54.533 C55.959,53.778 54.697,52.755 54.958,52.269 C55.219,51.782 56.039,53.017 56.758,52.791 C57.476,52.565 57.83,51.631 57.861,50.903 C57.658,50.41 57.164,49.597 57.164,49.597 L56.7,49.568 L56.293,48.582 C56.293,48.582 55.437,49.141 55.451,49.627 C55.466,50.113 56.351,50.527 56.351,50.527 C56.351,50.527 55.84,50.846 55.365,50.702 C55.321,51.195 55.945,51.1 56.177,51.107 C56.294,51.463 56.641,51.659 56.641,51.659 C56.641,51.659 56.86,52.203 56.293,52.152 C55.727,52.102 55.059,50.797 54.261,51.398 C53.412,52.036 54.638,53.198 54.638,53.198 C54.638,53.198 53.891,53.589 53.448,54.591 C51.642,53.066 50.581,53.778 48.571,54.184 L48.571,54.184 Z"/>
          <path fill="#96877D" fill-rule="nonzero" stroke="#000" stroke-width=".203" d="M45.929 51.6C46.684 52.312 46.158 53.494 46.452 53.72 46.764 53.959 47.206 53.604 47.206 53.604 47.997 53.813 49.413 53.371 49.413 53.371 50.036 53.72 49.789 53.205 50.167 53.226 50.5 54.082 51.619 53.922 51.619 53.922 51.619 53.922 50.596 52.877 49.964 52.587 49.478 52.877 48.063 52.921 47.816 52.877 47.542 52.829 47.714 52.492 47.584 52.297 48.105 51.79 47.693 50.533 47.41 50.061 46.256 49.293 44.878 50.61 45.929 51.6zM40.91 49.472C39.961 49.728 38.313 48.245 37.544 48.815 36.774 49.385 37.134 50.786 37.647 51.484 38.149 52.166 36.913 52.413 36.58 52.818 36.266 53.199 36.683 53.639 36.683 53.639L37.033 53.865 36.971 54.378 37.156 54.995C37.156 54.995 37.325 55.143 37.382 54.953 37.542 55.113 37.399 55.572 37.793 55.63 37.651 55.336 37.896 54.522 37.896 54.522 37.896 54.522 38.584 54.574 38.758 54.275 38.932 53.978 38.593 53.331 38.593 53.331L38.799 53.331C38.569 53.172 38.492 52.695 38.492 52.695 38.492 52.695 39.446 52.392 39.435 51.668 39.425 50.945 37.886 50.175 38.451 49.8 39.077 49.384 40.164 50.878 41.099 50.19 42.023 49.509 41.428 50.169 41.428 50.169 41.428 50.169 41.846 49.219 40.91 49.472L40.91 49.472zM45.813 39.305C44.542 38.775 41.948 38.743 40.5 38.027 39.866 38.067 39.582 38.569 39.558 38.768 38.893 38.735 38.443 39.78 38.541 39.987 37.333 39.497 36.77 41.409 37.162 41.801 36.132 41.844 36.259 43.162 36.161 43.528 35.831 44.33 36.234 44.6 36.887 44.312 36.985 44.661 36.848 44.856 36.554 44.922 38.343 46.969 39.353 43.662 40.923 43.673 42.882 43.099 43.652 42.134 43.652 42.134L44.422 42.236 45.813 39.305 45.813 39.305z"/>
          <path fill="#96877D" fill-rule="nonzero" stroke="#000" stroke-linecap="round" stroke-width=".203" d="M49.326,37.839 C49.326,38.873 48.488,39.712 47.453,39.712 C46.419,39.712 45.581,38.873 45.581,37.839 C45.581,36.805 46.418,35.966 47.453,35.966 C48.488,35.967 49.326,36.805 49.326,37.839 L49.326,37.839 Z"/>
          <path fill="#96877D" fill-rule="nonzero" stroke="#000" stroke-width=".203" d="M44.158,52.587 C42.997,52.377 41.073,51.172 40.878,49.597 C41.96,45.351 47.538,47.568 48.019,44.375 C47.895,42.268 48.273,40.183 49.442,38.419 C49.986,37.73 50.69,37.548 50.69,37.548 C50.69,37.548 50.817,37.997 50.633,38.303 C51.554,38.201 52.818,38.717 53.681,38.768 C53.934,39.284 53.913,39.472 53.855,39.784 C53.797,40.096 53.448,40.017 53.448,40.017 C53.222,40.23 52.952,40.448 52.344,40.336 C51.887,40.684 50.922,40.772 50.922,40.772 C50.922,40.772 52.94,42.898 52.606,43.558 C53.027,43.754 53.651,44.691 53.651,44.691 C53.651,44.691 55.03,43.965 55.48,43.297 C56.278,43.297 57.585,44.132 58.238,44.227 C59.037,44.873 59.836,45.533 59.836,45.533 C59.836,45.533 58.884,46.158 58.47,45.33 C57.97,45.373 56.888,44.176 55.393,44.546 C55.35,45.874 53.884,46.81 53.884,46.81 C53.884,46.81 55.253,46.619 56.004,47.072 C56.78,47.725 57.92,48.611 57.92,48.611 L58.935,50.352 C58.935,50.352 58.007,50.513 57.659,49.307 C57.311,50.28 57.296,48.704 55.916,47.972 C55.495,48.023 55.285,48.052 54.93,47.769 C53.934,48.037 52.76,48.618 51.359,48.465 C50.365,48.777 49.639,49.605 48.63,50.062 C47.622,50.52 47.323,50.294 47.323,50.294 L46.511,50.323 C46.394,50.813 46.46,51.557 46.017,51.688 C46.3,51.993 45.814,53.292 45.321,53.517 C45.553,54.351 46.233,54.607 46.946,55.027 C46.946,55.027 47.577,54.736 47.991,55.114 C48.404,55.491 48.832,56.565 48.832,56.565 C48.832,56.565 47.972,56.624 47.7,56.507 C47.429,56.391 47.402,56.108 47.091,56.188 C45.124,54.439 44.087,55.135 43.897,54.737 C43.703,54.328 44.361,53.263 44.158,52.587 L44.158,52.587 Z"/>
          <path fill="#96877D" fill-rule="nonzero" stroke="#000" stroke-width=".203" d="M39.432 44.791C39.536 44.664 40.254 44.936 40.254 44.936L41.568 45.756 44.236 47.481 45.18 48.856 43.476 48.302 41.116 46.27 39.843 45.448C39.843 45.448 39.33 44.919 39.432 44.791L39.432 44.791zM55.219 49.162C54.297 48.93 52.025 51.688 52.025 51.688L53.739 53.546C53.739 53.545 53.79 50.381 55.219 49.162z"/>
          <path fill="#96877D" fill-rule="nonzero" stroke="#000" stroke-width=".203" d="M43.983,41.468 C43.481,42.113 43.436,43.411 44.09,43.935 C44.151,44.723 44.821,46.312 45.348,46.462 C45.923,46.625 48.222,47.158 49.122,47.014 C48.95,48.473 50.095,49.643 51.154,50.41 C51.146,50.541 51.144,50.701 51.267,50.862 C51.386,51.019 51.943,51.048 51.967,50.962 C52.215,51.309 53.41,51.462 53.498,51.307 C53.581,51.156 51.738,49.872 51.329,49.481 C50.981,48.833 50.323,47.388 50.167,46.23 C49.262,45.153 47.709,45.175 47.709,45.175 L47.758,43.066 L47.845,40.685 L47.003,40.25 C47.003,40.25 47.173,40.173 47.264,40.076 C47.469,40.164 47.853,39.753 47.904,39.638 C48.097,39.706 48.273,39.704 48.306,39.601 C48.336,39.51 48.37,39.103 48.441,38.893 C49.076,38.333 48.348,37.148 47.377,37.128 C46.417,37.108 46.201,38.275 46.219,38.363 C46.308,38.729 46.289,38.913 46.219,39.002 C46.146,39.093 45.812,39.293 45.812,39.293 C45.812,39.293 45.275,39.039 44.622,39.293 C43.969,39.547 43.236,39.888 43.2,40.309 C42.903,40.353 42.416,40.737 42.329,41.064 C42.067,41.013 41.726,41.231 41.168,42.138 C40.166,42.58 40.108,44.722 40.108,44.722 C40.108,44.722 39.837,45.116 39.825,45.324 C39.812,45.532 39.92,45.723 40.051,45.687 C40.065,45.824 40.246,45.948 40.326,45.904 C40.355,46.042 40.555,46.119 40.675,46.1 C40.686,46.194 41.073,46.17 41.103,46.085 C41.137,45.991 41.064,45.52 41.111,45.482 C41.152,45.448 41.473,45.692 41.561,45.628 C41.648,45.562 41.544,45.353 41.495,45.272 C41.452,45.2 41.176,45.119 41.111,44.778 C41.045,44.437 41.284,43.965 41.284,43.965 C41.284,43.965 42.373,43.109 42.497,42.376 C43.316,42.456 43.75,41.738 43.983,41.468 L43.983,41.468 Z"/>
          <path fill="#96877D" fill-rule="nonzero" stroke="#000" stroke-width=".203" d="M42.09 38.398C42.339 37.79 43.236 37.846 43.236 37.846 43.236 37.846 43.557 37 44.768 37.504 45.223 37.153 46.423 37.657 46.423 37.657 46.423 37.657 46.872 37.059 47.461 37.127 48.551 37.254 48.733 38.253 48.666 38.426 48.069 38.576 47.035 37.941 46.249 38.121 45.79 38.381 45.047 38.655 44.769 39.029 44.04 39.106 43.264 38.36 42.09 38.398L42.09 38.398zM44.361 39.407C44.633 39.24 45.3 38.947 45.754 39.305 46.23 39.816 46.96 40.292 46.96 40.292L47.787 40.641 48.165 40.873 47.917 44.662C47.151 43.878 46.434 43.741 45.885 42.818 45.592 42.422 45.816 41.472 45.305 40.843 44.793 40.216 44.249 39.792 44.361 39.407z"/>
          <path fill="#96877D" fill-rule="nonzero" stroke="#000" stroke-width=".203" d="M46.351,40.5 C46.351,40.5 46.785,40.418 46.906,40.521 C47.057,40.572 47.204,40.615 47.244,40.746 C47.409,40.795 47.522,40.88 47.522,41.002 C47.676,41.044 47.737,41.321 47.737,41.321 L47.594,41.536 C47.594,41.536 47.429,41.382 47.408,41.218 C47.304,41.168 47.075,41.113 47.018,40.962 C46.838,40.944 46.723,40.852 46.689,40.695 C46.523,40.734 46.351,40.5 46.351,40.5 Z"/>
          <path fill="#96877D" fill-rule="nonzero" stroke="#000" stroke-width=".203" d="M50.023,38.027 C49.775,37.752 49.341,37.955 49.341,37.955 L48.179,39.958 L47.671,40.378 L47.628,41.946 L48.049,43.412 L47.904,44.544 C47.904,44.544 48.488,43.996 48.557,43.687 C48.621,43.394 48.339,42.438 48.339,42.438 C48.339,42.438 47.991,41.843 48.412,40.739 C48.832,39.639 49.79,38.725 50.023,38.027 L50.023,38.027 Z"/>
          <path fill="#96877D" fill-rule="nonzero" stroke="#000" stroke-width=".203" d="M52.888 39.813C52.888 39.813 51.075 42.404 48.107 43.326 47.287 43.522 47.585 41.41 47.585 41.41L47.382 41.468C47.382 41.468 46.924 43.536 48.021 43.558 51.003 42.971 53.241 39.83 53.241 39.83L52.888 39.813zM54.115 54.707C54.115 54.707 53.84 54.911 53.477 54.707 53.289 54.272 52.78 54.242 52.78 54.242 52.78 54.242 52.454 53.303 51.939 53.575 51.859 53.088 51.3 53.343 51.3 53.343 51.3 53.343 51.285 52.639 50.633 52.734 50.85 51.928 49.733 51.979 49.733 51.979 49.733 51.979 49.696 51.072 48.049 51.253 51.598 49.663 54.407 53.75 54.407 53.75M55.801 55.055C55.801 55.055 56.62 55.977 57.049 55.984 57.477 55.992 57.514 55.084 57.514 55.084 57.514 55.084 57.652 55.476 57.862 55.374 57.841 55.649 58.123 55.722 58.123 55.722 58.123 55.722 57.383 57.442 55.278 55.809M49.384 55.403L49.093 56.593C49.093 56.593 48.723 56.927 48.832 56.999 48.941 57.072 49.529 56.884 49.529 56.884 49.529 56.884 50.443 56.774 50.72 56.506 50.908 56.935 51.329 56.971 51.329 56.971 51.329 56.971 51.358 56.79 51.3 56.681 51.503 56.717 51.678 56.652 51.678 56.652 51.678 56.652 51.794 56.318 51.532 56.187 51.561 55.941 51.684 55.723 51.242 55.752 50.915 56.101 50.11 56.5 49.907 56.362 49.704 56.224 50.705 55.781 50.428 55.2"/>
          <path fill="#000" fill-rule="nonzero" d="M30.914,52.58 L32.095,52.298 L31.965,51.752 C31.936,51.627 31.885,51.541 31.816,51.496 C31.747,51.451 31.628,51.439 31.46,51.458 L31.44,51.376 L32.457,51.133 L32.477,51.215 C32.36,51.245 32.278,51.28 32.23,51.322 C32.182,51.364 32.151,51.414 32.135,51.472 C32.12,51.529 32.124,51.608 32.148,51.708 L32.278,52.255 L33.222,52.03 C33.374,51.994 33.472,51.961 33.516,51.929 C33.549,51.906 33.573,51.867 33.589,51.814 C33.609,51.74 33.611,51.668 33.593,51.597 L33.567,51.489 L33.649,51.469 L33.957,52.758 L33.875,52.778 L33.849,52.672 C33.82,52.547 33.762,52.466 33.676,52.428 C33.62,52.404 33.502,52.413 33.322,52.456 L31.382,52.918 C31.23,52.954 31.132,52.988 31.087,53.019 C31.053,53.042 31.029,53.081 31.014,53.132 C30.993,53.204 30.992,53.276 31.01,53.348 L31.035,53.454 L30.953,53.474 L30.42,51.24 L31.073,51.053 L31.092,51.13 C30.961,51.202 30.868,51.271 30.815,51.338 C30.761,51.404 30.729,51.479 30.717,51.56 C30.706,51.642 30.718,51.761 30.755,51.917 L30.914,52.58 L30.914,52.58 Z M30.153,47.253 C30.175,46.853 30.347,46.514 30.668,46.238 C30.988,45.962 31.376,45.837 31.83,45.862 C32.298,45.888 32.679,46.058 32.971,46.372 C33.264,46.684 33.399,47.051 33.375,47.471 C33.351,47.895 33.18,48.243 32.862,48.515 C32.545,48.787 32.146,48.909 31.667,48.882 C31.178,48.855 30.788,48.665 30.498,48.314 C30.245,48.01 30.13,47.656 30.153,47.253 L30.153,47.253 L30.153,47.253 Z M30.317,47.306 C30.301,47.582 30.391,47.808 30.586,47.986 C30.829,48.209 31.197,48.333 31.687,48.361 C32.191,48.389 32.583,48.304 32.867,48.104 C33.083,47.951 33.199,47.738 33.213,47.466 C33.23,47.176 33.13,46.931 32.915,46.73 C32.7,46.528 32.349,46.414 31.862,46.386 C31.335,46.357 30.936,46.439 30.665,46.631 C30.449,46.787 30.333,47.012 30.317,47.306 L30.317,47.306 Z M34.789,41.668 L34.497,42.438 L32.776,42.901 C32.752,42.975 32.731,43.034 32.714,43.079 C32.707,43.097 32.698,43.117 32.69,43.138 C32.681,43.159 32.671,43.181 32.662,43.203 L33.5,43.523 C33.681,43.591 33.802,43.615 33.861,43.592 C33.944,43.562 34.006,43.493 34.048,43.385 L34.09,43.272 L34.169,43.302 L33.699,44.539 L33.62,44.508 L33.661,44.4 C33.709,44.278 33.702,44.176 33.642,44.093 C33.609,44.046 33.511,43.992 33.347,43.929 L31.483,43.22 C31.301,43.15 31.181,43.127 31.122,43.15 C31.039,43.182 30.976,43.252 30.934,43.361 L30.893,43.469 L30.815,43.439 L31.215,42.388 C31.331,42.081 31.44,41.864 31.539,41.736 C31.639,41.608 31.768,41.515 31.927,41.46 C32.085,41.404 32.247,41.408 32.414,41.472 C32.591,41.539 32.723,41.655 32.809,41.821 C32.896,41.987 32.92,42.2 32.882,42.464 L33.936,42.184 C34.178,42.12 34.349,42.051 34.449,41.977 C34.549,41.902 34.637,41.79 34.714,41.639 L34.789,41.668 Z M32.526,43.153 C32.537,43.126 32.545,43.103 32.554,43.083 C32.562,43.062 32.569,43.047 32.575,43.034 C32.679,42.759 32.698,42.529 32.633,42.344 C32.567,42.159 32.442,42.031 32.258,41.961 C32.078,41.892 31.909,41.894 31.755,41.963 C31.599,42.033 31.485,42.16 31.415,42.346 C31.383,42.428 31.355,42.544 31.329,42.695 L32.526,43.153 L32.526,43.153 Z M39.096,32.924 L39.693,33.698 L39.626,33.741 C39.426,33.581 39.239,33.484 39.066,33.45 C38.815,33.4 38.569,33.454 38.326,33.611 C37.996,33.825 37.83,34.118 37.827,34.491 C37.826,34.804 37.924,35.113 38.121,35.418 C38.281,35.665 38.475,35.859 38.703,36.001 C38.931,36.143 39.153,36.211 39.369,36.206 C39.585,36.201 39.775,36.145 39.937,36.04 C40.033,35.978 40.118,35.906 40.191,35.824 C40.264,35.742 40.327,35.651 40.379,35.55 L39.894,34.801 C39.81,34.671 39.745,34.593 39.699,34.565 C39.653,34.538 39.603,34.527 39.547,34.533 C39.493,34.539 39.413,34.576 39.309,34.643 L39.262,34.57 L40.265,33.92 L40.312,33.993 L40.265,34.024 C40.165,34.087 40.118,34.166 40.124,34.255 C40.129,34.319 40.176,34.42 40.267,34.559 L40.78,35.352 C40.685,35.525 40.578,35.677 40.46,35.807 C40.341,35.936 40.194,36.057 40.019,36.17 C39.519,36.495 39.035,36.58 38.567,36.428 C38.216,36.313 37.939,36.098 37.735,35.784 C37.587,35.556 37.501,35.302 37.475,35.022 C37.444,34.69 37.499,34.383 37.639,34.103 C37.758,33.87 37.946,33.668 38.204,33.501 C38.299,33.44 38.389,33.392 38.476,33.357 C38.563,33.323 38.694,33.286 38.87,33.247 C38.958,33.227 39.015,33.209 39.039,33.194 C39.062,33.178 39.076,33.154 39.079,33.12 C39.081,33.087 39.064,33.037 39.026,32.969 L39.096,32.924 L39.096,32.924 Z M44.123,33.272 L42.969,33.579 L42.891,34.104 C42.872,34.233 42.87,34.326 42.886,34.383 C42.898,34.428 42.931,34.463 42.983,34.486 C43.035,34.509 43.135,34.507 43.281,34.479 L43.302,34.561 L42.363,34.811 L42.342,34.73 C42.461,34.674 42.534,34.625 42.562,34.58 C42.618,34.489 42.662,34.324 42.697,34.085 L43.093,31.349 L43.17,31.329 L44.868,33.535 C45.005,33.712 45.116,33.822 45.199,33.863 C45.283,33.904 45.387,33.912 45.511,33.887 L45.533,33.969 L44.356,34.282 L44.335,34.2 C44.451,34.163 44.527,34.121 44.56,34.077 C44.591,34.032 44.602,33.985 44.589,33.936 C44.572,33.872 44.515,33.778 44.42,33.654 L44.123,33.272 L44.123,33.272 Z M44.019,33.125 L43.192,32.054 L42.993,33.398 L44.019,33.125 L44.019,33.125 Z M49.469,33.109 L49.544,33.129 L49.247,33.956 L46.858,33.863 L46.861,33.779 L46.977,33.784 C47.107,33.789 47.203,33.75 47.262,33.668 C47.297,33.621 47.316,33.509 47.323,33.333 L47.4,31.342 C47.408,31.15 47.391,31.028 47.35,30.978 C47.294,30.909 47.207,30.872 47.09,30.868 L46.974,30.863 L46.978,30.779 L48.375,30.833 L48.371,30.917 C48.207,30.909 48.092,30.92 48.025,30.949 C47.957,30.978 47.911,31.017 47.885,31.064 C47.859,31.112 47.842,31.227 47.834,31.411 L47.759,33.35 C47.754,33.476 47.762,33.562 47.785,33.611 C47.802,33.643 47.829,33.668 47.866,33.685 C47.904,33.701 48.022,33.714 48.22,33.721 L48.445,33.73 C48.682,33.739 48.848,33.729 48.945,33.697 C49.042,33.665 49.131,33.607 49.214,33.522 C49.298,33.435 49.383,33.298 49.469,33.109 L49.469,33.109 L49.469,33.109 Z M53.581,34.21 L53.647,34.249 L53.134,34.962 L50.864,34.211 L50.891,34.131 L51,34.167 C51.124,34.208 51.226,34.197 51.306,34.134 C51.351,34.098 51.402,33.996 51.457,33.829 L52.082,31.937 C52.143,31.754 52.16,31.633 52.135,31.574 C52.1,31.491 52.026,31.432 51.915,31.396 L51.805,31.359 L51.831,31.279 L53.159,31.718 L53.132,31.798 C52.976,31.744 52.863,31.723 52.79,31.733 C52.719,31.742 52.663,31.766 52.624,31.805 C52.585,31.844 52.538,31.95 52.479,32.124 L51.87,33.966 C51.831,34.086 51.816,34.173 51.824,34.224 C51.831,34.26 51.85,34.291 51.882,34.317 C51.913,34.343 52.023,34.388 52.212,34.45 L52.425,34.521 C52.651,34.595 52.813,34.631 52.915,34.627 C53.017,34.624 53.12,34.593 53.223,34.533 C53.328,34.475 53.447,34.367 53.581,34.21 L53.581,34.21 L53.581,34.21 Z M56.895,35.965 L55.919,35.275 L55.466,35.552 C55.355,35.619 55.282,35.678 55.248,35.726 C55.22,35.764 55.215,35.811 55.231,35.866 C55.247,35.921 55.312,35.996 55.428,36.09 L55.379,36.159 L54.586,35.597 L54.634,35.529 C54.753,35.585 54.838,35.61 54.89,35.601 C54.995,35.587 55.151,35.515 55.356,35.387 L57.71,33.941 L57.775,33.987 L57.169,36.704 C57.121,36.922 57.107,37.078 57.128,37.168 C57.15,37.259 57.211,37.343 57.31,37.422 L57.262,37.491 L56.268,36.787 L56.316,36.719 C56.42,36.784 56.499,36.816 56.555,36.813 C56.61,36.809 56.653,36.787 56.681,36.746 C56.72,36.692 56.756,36.588 56.79,36.435 L56.895,35.965 L56.895,35.965 Z M56.94,35.791 L57.233,34.47 L56.074,35.178 L56.94,35.791 Z M60.602,36.465 L61.1,37.138 L60.364,40.034 L61.795,38.973 C61.948,38.86 62.03,38.772 62.042,38.71 C62.06,38.627 62.033,38.537 61.961,38.439 L61.897,38.354 L61.964,38.304 L62.605,39.167 L62.537,39.217 L62.472,39.13 C62.394,39.025 62.307,38.974 62.212,38.977 C62.153,38.979 62.054,39.031 61.915,39.135 L59.824,40.684 L59.775,40.618 L60.56,37.503 L59.033,38.634 C58.88,38.747 58.797,38.835 58.784,38.895 C58.766,38.979 58.794,39.069 58.866,39.166 L58.931,39.253 L58.863,39.303 L58.223,38.44 L58.291,38.39 L58.355,38.477 C58.433,38.582 58.521,38.634 58.617,38.631 C58.675,38.629 58.775,38.576 58.913,38.473 L60.638,37.194 C60.668,37.06 60.684,36.964 60.683,36.907 C60.683,36.85 60.666,36.777 60.637,36.688 C60.622,36.645 60.587,36.586 60.534,36.515 L60.602,36.465 L60.602,36.465 Z M64.495,43.64 L63.824,43.914 L63.796,43.831 C63.911,43.773 63.989,43.722 64.03,43.676 C64.097,43.602 64.137,43.521 64.151,43.434 C64.165,43.347 64.151,43.243 64.108,43.122 L63.962,42.712 L61.738,43.5 C61.559,43.563 61.455,43.622 61.424,43.676 C61.382,43.752 61.382,43.846 61.422,43.959 L61.458,44.061 L61.378,44.088 L60.941,42.854 L61.021,42.826 L61.058,42.929 C61.101,43.052 61.169,43.126 61.262,43.151 C61.32,43.167 61.429,43.146 61.592,43.088 L63.816,42.301 L63.692,41.951 C63.644,41.815 63.6,41.722 63.559,41.672 C63.506,41.608 63.431,41.563 63.335,41.537 C63.239,41.512 63.124,41.517 62.989,41.554 L62.96,41.472 L63.654,41.264 L64.495,43.64 L64.495,43.64 Z M62.051,49.116 L62.008,48.293 L63.395,47.175 C63.388,47.097 63.383,47.035 63.381,46.987 C63.38,46.967 63.38,46.946 63.379,46.924 C63.378,46.901 63.378,46.877 63.378,46.853 L62.482,46.899 C62.289,46.909 62.169,46.937 62.124,46.982 C62.06,47.043 62.031,47.131 62.037,47.246 L62.044,47.367 L61.96,47.371 L61.892,46.05 L61.975,46.045 L61.981,46.161 C61.988,46.291 62.035,46.383 62.123,46.434 C62.172,46.463 62.284,46.473 62.46,46.464 L64.452,46.36 C64.646,46.35 64.765,46.322 64.81,46.277 C64.873,46.215 64.902,46.125 64.896,46.008 L64.89,45.892 L64.975,45.887 L65.033,47.011 C65.05,47.338 65.039,47.581 64.999,47.739 C64.959,47.897 64.877,48.033 64.756,48.148 C64.632,48.263 64.483,48.325 64.306,48.334 C64.117,48.344 63.949,48.291 63.803,48.174 C63.657,48.058 63.548,47.872 63.477,47.615 L62.626,48.298 C62.43,48.454 62.302,48.586 62.24,48.694 C62.179,48.802 62.143,48.941 62.135,49.11 L62.051,49.116 L62.051,49.116 Z M63.522,46.844 C63.523,46.873 63.524,46.897 63.524,46.919 C63.525,46.94 63.525,46.958 63.526,46.971 C63.542,47.265 63.616,47.483 63.752,47.626 C63.887,47.769 64.053,47.834 64.251,47.825 C64.443,47.815 64.597,47.747 64.71,47.62 C64.824,47.493 64.877,47.329 64.866,47.131 C64.862,47.044 64.841,46.925 64.804,46.777 L63.522,46.844 L63.522,46.844 Z M64.368,53.195 L64.096,54.237 L64.013,54.216 L64.028,54.158 C64.038,54.12 64.036,54.059 64.022,53.977 C64.007,53.894 63.977,53.815 63.928,53.738 C63.882,53.661 63.798,53.561 63.679,53.435 L62.733,52.417 L61.983,52.221 C61.8,52.173 61.68,52.164 61.624,52.193 C61.547,52.233 61.494,52.313 61.462,52.433 L61.437,52.53 L61.355,52.509 L61.688,51.24 L61.769,51.262 L61.742,51.367 C61.709,51.493 61.723,51.593 61.785,51.666 C61.824,51.71 61.927,51.754 62.095,51.798 L62.802,51.984 L64.267,51.492 C64.439,51.433 64.549,51.392 64.595,51.367 C64.64,51.342 64.703,51.282 64.783,51.187 C64.806,51.162 64.825,51.121 64.839,51.065 L64.921,51.086 L64.586,52.363 L64.505,52.342 L64.522,52.276 C64.54,52.208 64.541,52.14 64.523,52.074 C64.507,52.007 64.465,51.965 64.4,51.949 C64.347,51.935 64.241,51.955 64.079,52.008 L62.953,52.379 L63.72,53.207 C63.835,53.331 63.926,53.402 63.993,53.42 C64.034,53.431 64.074,53.429 64.112,53.417 C64.149,53.404 64.183,53.381 64.211,53.346 C64.24,53.311 64.265,53.253 64.286,53.174 L64.368,53.195 L64.368,53.195 Z"/>
        </g>
      </g>
    </g>
  </g>
</svg>
