<svg xmlns="http://www.w3.org/2000/svg" xmlns:xlink="http://www.w3.org/1999/xlink" width="508" height="508" viewBox="0 0 508 508">
  <defs>
    <circle id="portugal-a" cx="254" cy="254" r="254"/>
  </defs>
  <g fill="none" fill-rule="evenodd">
    <mask id="portugal-b" fill="#fff">
      <use xlink:href="#portugal-a"/>
    </mask>
    <g mask="url(#portugal-b)">
      <g transform="translate(-4 -5)">
        <polygon fill="#C7463D" fill-rule="nonzero" points="205.907 519.205 514.23 519.205 514.23 0 205.907 0 205.907 382.405"/>
        <polygon fill="#406A5F" fill-rule="nonzero" points=".359 519.205 205.907 519.205 205.907 0 .359 0"/>
        <path fill="#F9DF77" fill-rule="nonzero" d="M274.901,294.244 C248.486,293.447 127.368,217.698 126.536,205.635 L133.225,194.46 C145.239,211.951 269.058,285.618 281.221,283.007 L274.898,294.242"/>
        <path fill="#F9DF77" fill-rule="nonzero" d="M131.819,192.943 C129.449,199.332 163.424,220.377 204.302,245.288 C245.178,270.199 280.424,285.588 283.036,283.382 C283.197,283.096 284.32,281.154 284.22,281.17 C283.726,281.912 282.534,282.144 280.677,281.607 C269.633,278.415 240.829,265.171 205.159,243.494 C169.489,221.821 138.452,201.848 133.63,193.36 C133.295,192.772 133.055,191.7 133.104,190.866 L132.986,190.866 L131.959,192.663 L131.819,192.946 L131.819,192.943 L131.819,192.943 Z M275.521,294.585 C275.074,295.399 274.24,295.428 272.652,295.252 C262.771,294.156 232.792,279.548 197.319,258.273 C156.041,233.515 121.95,210.959 125.653,205.059 L126.658,203.278 L126.857,203.34 C123.532,213.33 194.133,253.776 198.29,256.358 C239.141,281.716 273.584,296.522 276.63,292.673 L275.521,294.585 L275.521,294.585 Z"/>
        <path stroke="#000" stroke-linecap="round" stroke-linejoin="round" stroke-width=".455" d="M131.819,192.943 C129.448,199.332 163.423,220.377 204.302,245.288 C245.178,270.196 280.424,285.588 283.036,283.382 C283.197,283.096 284.32,281.154 284.22,281.17 C283.728,281.91 282.534,282.144 280.677,281.607 C269.633,278.415 240.83,265.17 205.16,243.495 C169.491,221.822 138.452,201.847 133.63,193.361 C133.295,192.773 133.056,191.699 133.104,190.865 L132.986,190.864 L131.96,192.663 L131.819,192.943 L131.819,192.943 L131.819,192.943 Z M275.521,294.593 C275.074,295.408 274.24,295.435 272.652,295.261 C262.772,294.167 232.794,279.559 197.319,258.282 C156.043,233.525 121.953,210.969 125.652,205.074 L126.658,203.291 L126.854,203.353 C123.531,213.343 194.133,253.792 198.289,256.371 C239.141,281.728 273.582,296.536 276.627,292.687 L275.52,294.597 L275.52,294.597 L275.521,294.593 Z"/>
        <path fill="#F9DF77" fill-rule="nonzero" d="M206.642,212.942 C233.079,212.733 265.701,209.322 284.476,201.825 L280.432,195.24 C269.333,201.394 236.532,205.441 206.418,206.047 C170.802,205.719 145.662,202.394 133.065,193.927 L129.247,200.938 C152.404,210.755 176.132,212.84 206.642,212.942"/>
        <path fill="#F9DF77" fill-rule="nonzero" d="M285.567,201.973 C284.921,203.008 272.677,207.237 254.639,210.36 C242.409,212.229 226.455,213.826 206.548,213.845 C187.633,213.863 172.182,212.514 160.483,210.926 C141.55,207.95 131.777,203.812 128.164,202.351 C128.511,201.663 128.731,201.179 129.065,200.537 C139.464,204.688 149.282,207.189 160.785,208.962 C172.404,210.538 187.67,211.905 206.492,211.888 C226.307,211.868 242.085,210.15 254.242,208.338 C272.74,205.348 282.842,201.501 284.261,199.713 L285.568,201.972 L285.568,201.973 L285.567,201.973 Z M282.018,195.295 C280.009,196.908 270.022,200.458 252.448,203.269 C240.719,204.955 225.806,206.463 206.753,206.481 C188.65,206.499 173.86,205.277 162.612,203.633 C144.764,201.299 135.264,197.086 131.839,195.858 C132.179,195.269 132.526,194.68 132.881,194.092 C135.548,195.437 144.715,199.167 162.808,201.735 C173.93,203.314 188.74,204.49 206.753,204.473 C225.716,204.454 240.46,202.916 252.113,201.243 C269.778,198.807 279.284,194.281 280.728,193.146 L282.018,195.295 L282.018,195.295 Z"/>
        <path stroke="#000" stroke-linecap="round" stroke-linejoin="round" stroke-width=".455" d="M285.567,201.973 C284.921,203.008 272.677,207.239 254.639,210.362 C242.409,212.231 226.455,213.827 206.548,213.846 C187.634,213.864 172.183,212.515 160.486,210.926 C141.551,207.951 131.779,203.813 128.167,202.35 C128.513,201.662 128.734,201.18 129.067,200.536 C139.468,204.686 149.284,207.187 160.786,208.961 C172.407,210.537 187.672,211.904 206.492,211.889 C226.308,211.868 242.085,210.149 254.244,208.337 C272.74,205.349 282.844,201.501 284.262,199.714 L285.57,201.973 L285.567,201.973 L285.567,201.973 Z M282.018,195.297 C280.011,196.909 270.024,200.459 252.449,203.27 C240.72,204.955 225.807,206.462 206.754,206.481 C188.652,206.498 173.862,205.276 162.614,203.634 C144.765,201.298 135.264,197.085 131.841,195.857 C132.182,195.268 132.529,194.681 132.884,194.093 C135.549,195.437 144.717,199.166 162.809,201.735 C173.93,203.315 188.743,204.491 206.755,204.475 C225.718,204.454 240.462,202.916 252.116,201.243 C269.78,198.807 279.289,194.281 280.73,193.148 L282.02,195.295 L282.02,195.297 L282.018,195.297 L282.018,195.297 Z"/>
        <path fill="#F9DF77" fill-rule="nonzero" d="M119.83,244.854 C136.092,253.618 172.207,258.032 206.383,258.336 C237.501,258.386 278.042,253.516 293.202,245.469 L292.784,236.697 C288.042,244.124 244.596,251.247 206.046,250.955 C167.496,250.664 131.696,244.698 119.763,236.976 L119.831,244.851"/>
        <path fill="#F9DF77" fill-rule="nonzero" d="M294.03,243.593 L294.032,245.686 C291.753,248.415 277.465,252.54 259.551,255.444 C245.917,257.539 228.14,259.119 205.989,259.119 C184.944,259.119 168.164,257.616 155.15,255.614 C134.579,252.614 121.419,247.358 118.777,245.789 L118.789,243.351 C126.724,248.634 148.221,252.499 155.437,253.683 C168.367,255.674 185.05,257.163 205.987,257.163 C228.036,257.163 245.711,255.595 259.261,253.514 C272.113,251.653 290.424,246.815 294.03,243.594 L294.03,243.593 L294.03,243.593 Z M294.04,236.153 L294.04,238.246 C291.761,240.974 277.473,245.1 259.56,248.004 C245.925,250.099 228.148,251.679 205.998,251.679 C184.954,251.679 168.173,250.176 155.159,248.173 C134.588,245.174 121.429,239.917 118.787,238.347 L118.798,235.909 C126.732,241.194 148.229,245.061 155.446,246.242 C168.375,248.233 185.057,249.725 205.996,249.725 C228.042,249.725 245.719,248.155 259.269,246.073 C272.123,244.212 290.432,239.375 294.04,236.153 L294.04,236.153 Z"/>
        <path stroke="#000" stroke-linecap="round" stroke-linejoin="round" stroke-width=".455" d="M294.03,243.593 L294.032,245.684 C291.753,248.413 277.465,252.539 259.551,255.445 C245.917,257.539 228.14,259.119 205.988,259.119 C184.945,259.119 168.162,257.615 155.149,255.614 C134.577,252.612 121.419,247.356 118.777,245.788 L118.787,243.35 C126.723,248.633 148.219,252.5 155.437,253.684 C168.367,255.673 185.048,257.163 205.986,257.163 C228.033,257.163 245.711,255.595 259.258,253.514 C272.113,251.653 290.425,246.815 294.03,243.593 L294.03,243.593 L294.03,243.593 Z M294.04,236.153 L294.04,238.244 C291.761,240.972 277.473,245.098 259.559,248.004 C245.925,250.098 228.148,251.677 205.997,251.677 C184.952,251.677 168.172,250.175 155.158,248.173 C134.586,245.173 121.429,239.916 118.786,238.348 L118.799,235.908 C126.732,241.192 148.23,245.06 155.447,246.241 C168.376,248.232 185.058,249.724 205.997,249.724 C228.043,249.724 245.72,248.153 259.27,246.072 C272.124,244.212 290.433,239.374 294.039,236.152 L294.041,236.155 L294.041,236.153 L294.04,236.153 Z"/>
        <path fill="#F9DF77" fill-rule="nonzero" d="M206.311,292.736 C168.915,292.514 136.872,282.523 130.105,280.871 L135.038,288.609 C146.991,293.648 178.251,301.152 206.669,300.325 C235.087,299.496 259.92,297.288 277.425,288.751 L282.485,280.73 C270.557,286.359 229.965,292.679 206.311,292.736"/>
        <path fill="#F9DF77" fill-rule="nonzero" d="M279.324,286.957 C278.583,288.092 277.825,289.216 277.053,290.309 C268.796,293.224 255.791,296.288 250.301,297.179 C239.09,299.496 221.743,301.205 206.346,301.213 C173.22,300.726 146.102,294.229 133.345,288.687 L132.316,286.913 L132.484,286.646 L134.23,287.324 C156.917,295.456 182.397,298.701 206.532,299.284 C221.866,299.34 237.217,297.522 249.63,295.299 C268.667,291.478 276.36,288.599 278.724,287.291 L279.324,286.956 L279.324,286.957 L279.324,286.957 Z M283.709,279.707 C283.728,279.727 283.751,279.749 283.771,279.771 C283.211,280.712 282.639,281.669 282.05,282.629 C277.65,284.206 265.699,287.71 248.251,290.155 C236.755,291.723 229.611,293.242 206.741,293.689 C163.885,292.594 136.139,284.198 129.548,282.129 L128.57,280.251 C153.407,286.747 178.774,291.283 206.742,291.745 C227.663,291.299 236.566,289.753 247.968,288.201 C268.312,285.026 278.565,281.672 281.64,280.704 C281.604,280.645 281.556,280.591 281.508,280.528 L283.709,279.707 L283.709,279.707 Z"/>
        <path stroke="#000" stroke-linecap="round" stroke-linejoin="round" stroke-width=".436" d="M279.324,286.957 C278.583,288.096 277.825,289.219 277.053,290.309 C268.799,293.226 255.792,296.288 250.302,297.182 C239.09,299.496 221.743,301.205 206.346,301.213 C173.22,300.726 146.102,294.23 133.345,288.688 L132.314,286.915 L132.483,286.648 L134.23,287.328 C156.916,295.458 182.396,298.704 206.532,299.285 C221.866,299.341 237.217,297.525 249.63,295.3 C268.667,291.481 276.36,288.601 278.724,287.293 L279.324,286.957 L279.324,286.957 L279.324,286.957 Z M283.71,279.707 C283.728,279.729 283.751,279.749 283.771,279.772 C283.211,280.712 282.639,281.669 282.051,282.632 C277.652,284.206 265.699,287.71 248.252,290.155 C236.755,291.723 229.611,293.245 206.74,293.689 C163.885,292.594 136.14,284.2 129.547,282.13 L128.57,280.251 C153.406,286.75 178.775,291.283 206.741,291.745 C227.664,291.301 236.566,289.755 247.966,288.198 C268.312,285.029 278.564,281.672 281.641,280.704 C281.603,280.645 281.557,280.591 281.507,280.527 L283.711,279.705 L283.71,279.705 L283.71,279.707 Z"/>
        <path fill="#F9DF77" fill-rule="nonzero" d="M284.159,237.933 C284.281,262.582 271.691,284.702 261.553,294.461 C247.206,308.263 228.184,317.144 205.972,317.555 C181.167,318.01 157.781,301.807 151.506,294.692 C139.242,280.776 129.256,263.104 128.937,239.289 C130.456,212.388 140.996,193.649 156.275,180.798 C171.554,167.948 191.897,161.69 208.838,162.138 C228.387,162.655 251.221,172.263 267,191.337 C277.337,203.834 281.812,217.396 284.159,237.933 L284.159,237.933 Z M206.183,153.537 C253.819,153.537 292.997,192.378 292.997,240.001 C292.997,287.626 253.819,326.467 206.183,326.467 C158.546,326.467 119.691,287.628 119.691,240.001 C119.691,192.378 158.546,153.537 206.183,153.537 L206.183,153.537 Z"/>
        <path stroke="#000" stroke-linecap="round" stroke-linejoin="round" stroke-width=".455" d="M206.415,153.241 C254.095,153.241 292.982,192.209 292.982,239.985 C292.982,287.76 254.094,326.725 206.415,326.725 C158.734,326.725 119.849,287.76 119.849,239.985 C119.849,192.209 158.736,153.241 206.415,153.241 L206.415,153.241 Z M206.415,155.15 C252.837,155.15 291.079,193.327 291.079,239.985 C291.079,286.641 252.839,324.82 206.415,324.82 C159.992,324.82 121.753,286.641 121.753,239.985 C121.753,193.331 159.992,155.15 206.415,155.15 L206.415,155.15 Z"/>
        <path stroke="#000" stroke-linecap="round" stroke-linejoin="round" stroke-width=".455" d="M206.485,160.451 C249.965,160.451 285.777,196.21 285.777,239.909 C285.777,283.607 249.965,319.367 206.485,319.367 C163.007,319.367 127.19,283.607 127.19,239.909 C127.189,196.21 163.007,160.451 206.485,160.451 L206.485,160.451 Z M206.485,162.36 C248.921,162.36 283.875,197.258 283.875,239.906 C283.875,282.557 248.92,317.454 206.485,317.454 C164.049,317.454 129.095,282.557 129.095,239.907 C129.095,197.257 164.049,162.36 206.485,162.36 Z"/>
        <polygon fill="#F9DF77" fill-rule="nonzero" points="209.221 151.885 209.221 152.843 203.758 152.843 203.758 151.912 201.87 151.912 201.87 328.183 203.758 328.183 203.758 327.36 209.249 327.36 209.249 328.211 211.134 328.211 211.106 151.887 209.22 151.887 209.22 151.885"/>
        <path stroke="#000" stroke-linecap="round" stroke-linejoin="round" stroke-width=".455" d="M203.888 152.891L209.15 152.891M203.896 327.182L209.184 327.182M209.231 151.897L211.119 151.897 211.135 328.195 209.245 328.195 209.231 151.897 209.231 151.897 209.231 151.897zM201.867 151.899L203.77 151.899 203.773 328.195 201.868 328.195 201.868 151.899 201.867 151.899 201.867 151.899z"/>
        <path fill="#F9DF77" fill-rule="nonzero" d="M119.535,236.287 C130.389,226.273 170.443,219.781 205.98,219.95 C241.516,220.118 283.604,227.433 292.761,236.075 L292.848,243.543 C285.181,236.316 252.484,227.698 206.051,227.603 C159.613,227.506 125.899,236.361 119.533,243.736 L119.535,236.289"/>
        <path stroke="#000" stroke-linecap="round" stroke-linejoin="round" stroke-width=".454" d="M119.516 236.637L119.516 243.082M293.042 236.901L293.042 243.344"/>
        <path fill="#F9DF77" fill-rule="nonzero" d="M206.45,226.554 C226.894,226.517 246.73,228.497 262.464,231.563 C278.7,234.818 290.124,238.886 294.03,243.456 L294.025,245.715 C289.316,240.03 273.939,235.862 262.097,233.48 C246.481,230.437 226.779,228.471 206.449,228.512 C184.995,228.549 165.017,230.588 149.632,233.594 C137.287,236.048 120.821,240.925 118.767,245.733 L118.767,243.379 C119.896,240.052 132.155,235.074 149.355,231.626 C164.854,228.596 184.869,226.598 206.449,226.557 L206.449,226.557 L206.449,226.554 L206.45,226.554 Z M206.458,219.115 C226.904,219.078 246.738,221.058 262.471,224.125 C278.707,227.379 290.131,231.447 294.038,236.015 L294.034,238.276 C289.323,232.591 273.948,228.423 262.104,226.041 C246.491,222.997 226.788,221.032 206.457,221.072 C185.003,221.111 165.123,223.148 149.736,226.153 C137.823,228.418 120.687,233.485 118.776,238.293 L118.776,235.939 C119.904,232.647 132.414,227.494 149.365,224.186 C164.864,221.156 184.878,219.156 206.458,219.115 L206.458,219.115 Z"/>
        <path stroke="#000" stroke-linecap="round" stroke-linejoin="round" stroke-width=".455" d="M206.45,226.554 C226.894,226.517 246.73,228.495 262.464,231.563 C278.7,234.817 290.124,238.884 294.03,243.454 L294.026,245.715 C289.316,240.03 273.94,235.861 262.098,233.479 C246.484,230.436 226.781,228.471 206.449,228.509 C184.995,228.548 165.018,230.586 149.632,233.592 C137.289,236.047 120.823,240.923 118.769,245.732 L118.769,243.376 C119.896,240.047 132.157,235.072 149.356,231.624 C164.856,228.595 184.87,226.594 206.45,226.554 L206.45,226.554 Z M206.458,219.115 C226.904,219.078 246.738,221.058 262.471,224.125 C278.707,227.379 290.131,231.446 294.04,236.013 L294.034,238.276 C289.323,232.591 273.948,228.423 262.106,226.041 C246.491,222.997 226.79,221.032 206.457,221.072 C185.004,221.111 165.124,223.148 149.735,226.153 C137.823,228.418 120.687,233.485 118.776,238.295 L118.776,235.939 C119.903,232.647 132.412,227.494 149.364,224.186 C164.866,221.156 184.878,219.156 206.458,219.115 L206.458,219.115 Z"/>
        <path fill="#F9DF77" fill-rule="nonzero" d="M206.04,181.168 C238.257,181.006 266.358,185.681 279.215,192.281 L283.906,200.408 C272.728,194.374 242.413,188.101 206.086,189.038 C176.486,189.221 144.86,192.303 128.993,200.785 L134.591,191.405 C147.613,184.638 178.326,181.205 206.041,181.169"/>
        <path stroke="#000" stroke-linecap="round" stroke-linejoin="round" stroke-width=".456" d="M280.033,193.599 L283.224,198.734"/>
        <path fill="#F9DF77" fill-rule="nonzero" d="M206.467,187.88 C224.842,187.829 242.6,188.868 256.721,191.422 C269.873,193.874 282.415,197.553 284.204,199.535 L285.595,201.996 C281.234,199.143 270.381,195.967 256.446,193.318 C242.451,190.682 224.707,189.81 206.433,189.858 C185.693,189.787 169.579,190.883 155.751,193.3 C141.127,196.042 130.98,199.957 128.474,201.821 L129.838,199.218 C134.701,196.732 142.419,193.736 155.388,191.396 C169.688,188.778 185.974,187.992 206.467,187.88 L206.467,187.88 L206.467,187.88 Z M206.458,180.448 C224.046,180.401 241.409,181.383 254.943,183.822 C265.619,185.902 276.174,189.154 280.039,192.045 L282.071,195.284 C278.616,191.433 265.602,187.785 254.116,185.742 C240.684,183.422 224.043,182.504 206.457,182.356 C188.003,182.406 170.949,183.538 157.714,185.955 C145.087,188.363 136.941,191.213 133.493,193.437 L135.282,190.734 C140.04,188.224 147.724,185.92 157.404,184.037 C170.737,181.603 187.896,180.5 206.458,180.448 L206.458,180.448 Z"/>
        <path stroke="#000" stroke-linecap="round" stroke-linejoin="round" stroke-width=".455" d="M206.467,187.88 C224.842,187.83 242.599,188.868 256.718,191.422 C269.871,193.874 282.412,197.554 284.204,199.534 L285.595,201.995 C281.234,199.141 270.381,195.965 256.446,193.317 C242.453,190.682 224.709,189.81 206.436,189.857 C185.695,189.785 169.581,190.883 155.752,193.3 C141.127,196.041 130.98,199.957 128.476,201.819 L129.838,199.216 C134.703,196.73 142.42,193.734 155.389,191.394 C169.69,188.776 185.974,187.992 206.467,187.88 L206.467,187.88 L206.467,187.88 Z M206.458,180.446 C224.045,180.4 241.409,181.382 254.943,183.819 C265.619,185.901 276.174,189.152 280.039,192.044 L282.074,195.281 C278.616,191.432 265.605,187.784 254.116,185.74 C240.686,183.419 224.045,182.501 206.458,182.353 C188.004,182.405 170.949,183.537 157.715,185.952 C145.089,188.36 136.942,191.21 133.495,193.435 L135.283,190.732 C140.041,188.222 147.726,185.918 157.405,184.033 C170.738,181.6 187.897,180.499 206.462,180.446 L206.458,180.446 L206.458,180.446 Z"/>
        <path fill="#F9DF77" fill-rule="nonzero" d="M249.467,276.039 C233.538,273.061 217.581,272.631 206.435,272.761 C152.745,273.392 135.401,283.807 133.286,286.961 L129.274,280.403 C142.942,270.477 172.178,264.911 206.727,265.48 C224.666,265.775 240.148,266.968 253.171,269.495 L249.465,276.042"/>
        <path stroke="#000" stroke-linecap="round" stroke-linejoin="round" stroke-width=".455" d="M130.166,281.311 L132.8,285.858"/>
        <path fill="#F9DF77" fill-rule="nonzero" d="M206.127,271.835 C221.063,272.058 235.722,272.676 249.871,275.321 L248.847,277.133 C235.705,274.701 221.695,273.774 206.178,273.846 C186.364,273.694 166.322,275.547 148.873,280.567 C143.368,282.098 134.254,285.645 133.323,288.577 L132.304,286.891 C132.598,285.158 138.107,281.565 148.404,278.668 C168.39,272.929 187.083,271.966 206.126,271.832 L206.125,271.835 L206.127,271.835 Z M206.805,264.304 C222.278,264.593 238.258,265.315 253.79,268.396 L252.725,270.283 C238.699,267.494 225.297,266.562 206.896,266.278 C187.019,266.314 165.934,267.736 146.763,273.32 C140.574,275.128 129.892,279.031 129.534,282.124 L128.516,280.313 C128.747,277.503 137.995,273.839 146.315,271.417 C165.635,265.788 186.773,264.341 206.805,264.304 L206.805,264.304 Z"/>
        <path stroke="#000" stroke-linecap="round" stroke-linejoin="round" stroke-width=".436" d="M206.127,271.835 C221.063,272.058 235.722,272.676 249.871,275.321 L248.847,277.133 C235.705,274.701 221.695,273.774 206.178,273.847 C186.363,273.694 166.322,275.547 148.873,280.567 C143.368,282.1 134.254,285.645 133.325,288.577 L132.304,286.891 C132.599,285.16 138.107,281.565 148.405,278.668 C168.39,272.929 187.083,271.966 206.127,271.835 L206.127,271.835 L206.127,271.835 Z M206.805,264.304 C222.278,264.593 238.258,265.315 253.79,268.396 L252.725,270.281 C238.697,267.49 225.297,266.561 206.896,266.276 C187.018,266.314 165.933,267.733 146.762,273.32 C140.573,275.126 129.892,279.031 129.534,282.124 L128.515,280.313 C128.747,277.503 137.994,273.839 146.314,271.417 C165.634,265.788 186.773,264.341 206.805,264.304 L206.805,264.304 Z"/>
        <path fill="#F9DF77" fill-rule="nonzero" d="M133.837,191.296 C160.433,190.949 283.266,266.499 283.627,280.408 L276.017,292.097 C272.58,275.945 147.947,202.421 127.383,203.813 L133.834,191.295"/>
        <path stroke="#000" stroke-linecap="round" stroke-linejoin="round" stroke-width=".455" d="M283.067 281.402L276.615 291.43M133.637 191.952L127.638 203.096"/>
        <path fill="#F9DF77" fill-rule="nonzero" d="M126.625,203.366 C131.562,200.013 167.838,216.203 205.798,239.135 C243.656,262.136 279.834,288.122 276.569,292.988 L275.493,294.679 L275.001,295.071 C275.107,294.992 275.651,294.327 274.948,292.525 C273.334,287.209 247.673,266.689 205.094,240.932 C163.587,216.133 128.993,201.186 125.535,205.459 L126.625,203.366 L126.624,203.366 L126.625,203.366 Z M284.388,281.267 C287.508,275.09 253.86,249.692 212.14,224.963 C169.462,200.729 138.703,186.461 133.085,190.715 L131.836,192.991 C131.825,193.118 131.881,192.838 132.145,192.632 C133.167,191.738 134.861,191.799 135.624,191.784 C145.298,191.93 172.93,204.67 211.693,226.937 C228.679,236.851 283.448,272.042 283.242,281.94 C283.257,282.793 283.31,282.962 282.991,283.387 L284.384,281.263 L284.388,281.267 Z"/>
        <path stroke="#000" stroke-linecap="round" stroke-linejoin="round" stroke-width=".455" d="M126.625,203.358 C131.561,200.004 167.838,216.196 205.798,239.129 C243.656,262.129 279.831,288.117 276.567,292.981 L275.493,294.671 L275.001,295.063 C275.107,294.987 275.651,294.319 274.948,292.519 C273.334,287.199 247.673,266.681 205.094,240.923 C163.587,216.125 128.993,201.178 125.534,205.45 L126.625,203.358 L126.624,203.358 L126.625,203.358 Z M284.388,281.259 C287.508,275.083 253.86,249.684 212.14,224.955 C169.462,200.721 138.703,186.454 133.085,190.708 L131.836,192.985 C131.825,193.109 131.881,192.829 132.145,192.626 C133.166,191.733 134.861,191.793 135.624,191.779 C145.297,191.925 172.929,204.664 211.694,226.931 C228.68,236.844 283.45,272.037 283.241,281.934 C283.256,282.786 283.311,282.961 282.993,283.381 L284.387,281.26 L284.387,281.259 L284.388,281.259 Z"/>
        <path fill="#FFF" fill-rule="nonzero" d="M154.56,249.54 C154.56,263.793 160.385,276.685 169.824,286.106 C179.281,295.548 192.129,301.506 206.378,301.506 C220.7,301.506 233.698,295.678 243.114,286.274 C252.528,276.87 258.364,263.891 258.364,249.587 L258.364,249.587 L258.364,180.217 L154.549,180.093 L154.56,249.54"/>
        <path stroke="#000" stroke-width=".532" d="M154.56,249.54 C154.56,263.796 160.385,276.685 169.824,286.106 C179.279,295.548 192.128,301.506 206.378,301.506 C220.7,301.506 233.697,295.678 243.113,286.274 C252.528,276.87 258.363,263.891 258.365,249.586 L258.363,249.586 L258.363,180.217 L154.548,180.093 L154.559,249.54 L154.56,249.54 L154.56,249.54 Z"/>
        <path fill="#DC5F52" fill-rule="nonzero" d="M156.5,249.639 L156.5,249.677 C156.5,263.305 162.132,275.717 171.169,284.725 C180.221,293.749 192.688,299.367 206.328,299.367 C220.037,299.367 232.481,293.793 241.492,284.802 C250.507,275.808 256.092,263.398 256.093,249.722 L256.092,249.722 L256.092,182.423 L156.56,182.405 L156.499,249.639 M236.08,202.553 L236.084,245.381 L236.047,249.911 L236.047,249.911 C236.047,251.105 235.975,252.464 235.837,253.621 C235.028,260.393 231.92,266.294 227.318,270.885 C221.929,276.26 214.489,279.594 206.293,279.594 C198.137,279.594 190.87,276.144 185.459,270.747 C179.909,265.212 176.69,257.62 176.69,249.769 L176.678,202.445 L236.08,202.553"/>
        <path stroke="#000" stroke-width=".403" d="M156.5,249.639 L156.5,249.677 C156.5,263.305 162.132,275.717 171.167,284.725 C180.219,293.749 192.687,299.367 206.328,299.367 C220.037,299.367 232.479,293.793 241.492,284.802 C250.506,275.81 256.092,263.398 256.093,249.722 L256.092,249.722 L256.092,182.422 L156.56,182.406 L156.499,249.638 L156.5,249.639 Z M236.08,202.553 L236.084,245.382 L236.048,249.913 L236.049,249.913 C236.049,251.105 235.977,252.464 235.838,253.623 C235.029,260.394 231.922,266.295 227.319,270.887 C221.93,276.26 214.492,279.596 206.294,279.596 C198.138,279.596 190.871,276.146 185.46,270.747 C179.909,265.212 176.691,257.62 176.691,249.769 L176.679,202.445 L236.079,202.553 L236.08,202.553 L236.08,202.553 Z"/>
        <path fill="#24467C" fill-rule="nonzero" d="M200.055 242.004L200.055 242.009C200.055 243.945 200.797 245.711 201.989 246.991 203.182 248.276 204.826 249.074 206.624 249.074 208.431 249.074 210.071 248.282 211.26 247.002 212.448 245.724 213.185 243.96 213.185 242.014L213.185 232.58 200.078 232.57 200.054 242.003M199.991 264.59L199.991 264.596C199.991 266.534 200.734 268.297 201.925 269.579 203.118 270.864 204.762 271.66 206.56 271.66 208.369 271.66 210.009 270.869 211.196 269.591 212.384 268.311 213.123 266.545 213.123 264.601L213.123 255.17 200.016 255.161 199.991 264.59M181.869 242.048L181.869 242.052C181.869 243.99 182.615 245.758 183.803 247.037 184.998 248.323 186.641 249.12 188.44 249.12 190.248 249.12 191.888 248.328 193.076 247.048 194.262 245.77 195.001 244.006 195.001 242.061L195.001 232.628 181.893 232.616 181.869 242.048M218.192 242.04L218.192 242.044C218.192 243.982 218.934 245.749 220.127 247.026 221.32 248.311 222.964 249.111 224.762 249.111 226.569 249.111 228.209 248.317 229.398 247.039 230.585 245.762 231.324 243.997 231.324 242.051L231.324 232.619 218.215 232.607 218.192 242.04M200.049 219.213L200.049 219.217C200.049 221.155 200.793 222.921 201.985 224.202 203.178 225.486 204.822 226.284 206.621 226.284 208.428 226.284 210.068 225.492 211.257 224.212 212.445 222.935 213.181 221.17 213.181 219.224L213.181 209.792 200.074 209.782 200.049 219.213"/>
        <polyline fill="#F9DF77" fill-rule="nonzero" points="172.875 188.701 172.989 191.749 169.382 191.751 169.485 188.701 172.875 188.701"/>
        <path fill="#F9DF77" fill-rule="nonzero" d="M162.943,199.977 C163.06,195.14 166.486,193.996 166.511,193.978 C166.535,193.962 170.21,195.21 170.199,200.022 L162.943,199.977"/>
        <path fill="#F9DF77" fill-rule="nonzero" d="M159.99,194.064 L159.393,199.623 L163.014,199.631 C163.047,195.032 166.489,194.267 166.57,194.284 C166.65,194.28 170.059,195.3 170.149,199.631 L173.78,199.631 L173.123,194.03 L159.99,194.064"/>
        <path stroke="#000" stroke-width=".396" d="M159.99,194.073 L159.393,199.631 L163.014,199.638 C163.047,195.039 166.488,194.275 166.57,194.291 C166.65,194.286 170.059,195.308 170.149,199.638 L173.78,199.638 L173.123,194.038 L159.99,194.071 L159.99,194.073 L159.99,194.073 Z"/>
        <path fill="#F9DF77" fill-rule="nonzero" d="M159.151,199.654 L173.965,199.654 C174.277,199.654 174.532,199.962 174.532,200.341 C174.532,200.716 174.279,201.024 173.965,201.024 L159.151,201.024 C158.837,201.024 158.582,200.717 158.582,200.341 C158.582,199.961 158.837,199.654 159.151,199.654"/>
        <path stroke="#000" stroke-width=".396" d="M159.151,199.654 L173.965,199.654 C174.278,199.654 174.533,199.962 174.533,200.341 C174.533,200.717 174.278,201.024 173.965,201.024 L159.151,201.024 C158.837,201.024 158.584,200.717 158.584,200.341 C158.583,199.961 158.837,199.654 159.151,199.654 Z"/>
        <path fill="#F9DF77" fill-rule="nonzero" d="M164.535,199.626 C164.552,196.723 166.513,195.902 166.523,195.904 C166.524,195.904 168.57,196.751 168.587,199.626 L164.535,199.626"/>
        <path stroke="#000" stroke-width=".395" d="M164.535,199.626 C164.552,196.723 166.513,195.902 166.523,195.904 C166.524,195.904 168.571,196.751 168.588,199.626 L164.535,199.626"/>
        <path fill="#F9DF77" fill-rule="nonzero" d="M159.465,191.768 L173.668,191.768 C173.967,191.768 174.212,192.046 174.212,192.386 C174.212,192.723 173.967,193.002 173.668,193.002 L159.465,193.002 C159.165,193.002 158.921,192.726 158.921,192.386 C158.921,192.046 159.165,191.768 159.465,191.768"/>
        <path stroke="#000" stroke-width=".396" d="M159.465,191.759 L173.668,191.759 C173.967,191.759 174.212,192.038 174.212,192.378 C174.212,192.716 173.967,192.994 173.668,192.994 L159.465,192.994 C159.165,192.994 158.921,192.718 158.921,192.378 C158.92,192.038 159.165,191.759 159.465,191.759 Z"/>
        <path fill="#F9DF77" fill-rule="nonzero" d="M159.761,193.003 L173.346,193.003 C173.633,193.003 173.867,193.282 173.867,193.62 C173.867,193.96 173.634,194.237 173.346,194.237 L159.761,194.237 C159.474,194.237 159.24,193.96 159.24,193.62 C159.24,193.282 159.475,193.003 159.761,193.003"/>
        <path stroke="#000" stroke-width=".396" d="M159.761,193.003 L173.346,193.003 C173.632,193.003 173.866,193.282 173.866,193.62 C173.866,193.96 173.632,194.237 173.346,194.237 L159.761,194.237 C159.474,194.237 159.24,193.96 159.24,193.62 C159.24,193.282 159.475,193.003 159.761,193.003 Z"/>
        <path fill="#F9DF77" fill-rule="nonzero" d="M164.201,183.724 L165.25,183.726 L165.25,184.489 L166.019,184.489 L166.019,183.711 L167.093,183.713 L167.093,184.489 L167.861,184.489 L167.861,183.711 L168.937,183.712 L168.935,185.473 C168.935,185.748 168.719,185.928 168.467,185.928 L164.693,185.928 C164.44,185.928 164.204,185.722 164.204,185.467 L164.201,183.724"/>
        <path stroke="#000" stroke-width=".397" d="M164.151,183.727 L165.223,183.727 L165.223,184.492 L166.005,184.492 L166.005,183.712 L167.104,183.716 L167.104,184.492 L167.889,184.492 L167.889,183.713 L168.988,183.713 L168.987,185.474 C168.987,185.75 168.765,185.93 168.508,185.93 L164.65,185.93 C164.391,185.93 164.152,185.722 164.151,185.47 L164.148,183.728 L164.151,183.727 L164.151,183.727 Z"/>
        <polyline fill="#F9DF77" fill-rule="nonzero" points="168.19 186.083 168.431 191.736 164.67 191.721 164.92 186.07 168.193 186.085"/>
        <polyline stroke="#000" stroke-width=".396" points="168.19 186.083 168.431 191.735 164.67 191.72 164.92 186.068 168.19 186.083"/>
        <path fill="#F9DF77" fill-rule="nonzero" d="M168.817,186.495 L169.868,186.497 L169.868,187.259 L170.635,187.259 L170.635,186.479 L171.71,186.482 L171.71,187.259 L172.479,187.259 L172.479,186.478 L173.553,186.48 L173.551,188.243 C173.551,188.518 173.336,188.697 173.083,188.697 L169.309,188.697 C169.056,188.697 168.821,188.49 168.821,188.235 L168.818,186.495"/>
        <polygon stroke="#000" stroke-width=".398" points="172.875 188.701 172.991 191.749 169.382 191.751 169.485 188.701 172.875 188.701"/>
        <path stroke="#000" stroke-width=".397" d="M168.818,186.485 L169.867,186.489 L169.867,187.253 L170.634,187.253 L170.634,186.471 L171.709,186.475 L171.709,187.253 L172.478,187.253 L172.478,186.471 L173.552,186.474 L173.552,188.236 C173.552,188.511 173.335,188.69 173.084,188.69 L169.309,188.69 C169.058,188.69 168.822,188.484 168.821,188.231 L168.818,186.487 L168.818,186.487 L168.818,186.485 Z"/>
        <path fill="#F9DF77" fill-rule="nonzero" d="M159.543,186.495 L160.593,186.497 L160.593,187.259 L161.359,187.259 L161.359,186.479 L162.434,186.482 L162.434,187.259 L163.202,187.259 L163.202,186.478 L164.278,186.48 L164.277,188.243 C164.277,188.518 164.061,188.697 163.808,188.697 L160.033,188.697 C159.78,188.697 159.546,188.49 159.546,188.235 L159.546,186.495"/>
        <path stroke="#000" stroke-width=".397" d="M159.543,186.495 L160.592,186.497 L160.592,187.261 L161.359,187.261 L161.359,186.479 L162.434,186.482 L162.434,187.26 L163.202,187.26 L163.202,186.48 L164.278,186.48 L164.277,188.243 C164.277,188.518 164.061,188.697 163.808,188.697 L160.033,188.697 C159.781,188.697 159.546,188.49 159.546,188.237 L159.544,186.495 L159.544,186.495 L159.543,186.495 Z"/>
        <polyline fill="#F9DF77" fill-rule="nonzero" points="163.6 188.701 163.715 191.749 160.106 191.751 160.208 188.701 163.6 188.701"/>
        <polygon stroke="#000" stroke-width=".398" points="163.6 188.701 163.715 191.749 160.107 191.751 160.209 188.701 163.6 188.701"/>
        <path fill="#000" fill-rule="nonzero" d="M166.187 187.869C166.164 187.321 166.953 187.315 166.944 187.869L166.944 189.216 166.187 189.216 166.187 187.869M170.832 189.824C170.829 189.294 171.563 189.283 171.554 189.824L171.554 190.864 170.832 190.864 170.832 189.824M161.528 189.824C161.526 189.294 162.259 189.283 162.251 189.824L162.251 190.864 161.528 190.864 161.528 189.824"/>
        <polyline fill="#F9DF77" fill-rule="nonzero" points="212.844 188.701 212.957 191.749 209.35 191.751 209.452 188.701 212.844 188.701"/>
        <path fill="#F9DF77" fill-rule="nonzero" d="M202.912,199.977 C203.03,195.14 206.455,193.996 206.48,193.978 C206.505,193.962 210.178,195.21 210.168,200.022 L202.914,199.977"/>
        <path fill="#F9DF77" fill-rule="nonzero" d="M199.957,194.064 L199.361,199.623 L202.982,199.631 C203.015,195.032 206.456,194.267 206.54,194.284 C206.618,194.28 210.028,195.3 210.12,199.631 L213.749,199.631 L213.092,194.03 L199.958,194.064"/>
        <path stroke="#000" stroke-width=".396" d="M199.957,194.073 L199.361,199.631 L202.982,199.638 C203.015,195.039 206.456,194.275 206.539,194.291 C206.618,194.286 210.027,195.308 210.117,199.638 L213.747,199.638 L213.092,194.038 L199.958,194.071 L199.958,194.073 L199.957,194.073 Z"/>
        <path fill="#F9DF77" fill-rule="nonzero" d="M199.118,199.654 L213.933,199.654 C214.246,199.654 214.5,199.962 214.5,200.341 C214.5,200.716 214.246,201.024 213.933,201.024 L199.118,201.024 C198.806,201.024 198.552,200.717 198.552,200.341 C198.552,199.961 198.807,199.654 199.118,199.654"/>
        <path stroke="#000" stroke-width=".396" d="M199.118,199.654 L213.933,199.654 C214.246,199.654 214.501,199.962 214.501,200.341 C214.501,200.717 214.246,201.024 213.933,201.024 L199.118,201.024 C198.806,201.024 198.552,200.717 198.552,200.341 C198.552,199.961 198.807,199.654 199.118,199.654 Z"/>
        <path fill="#F9DF77" fill-rule="nonzero" d="M204.504,199.626 C204.52,196.723 206.482,195.902 206.491,195.904 C206.492,195.904 208.538,196.751 208.554,199.626 L204.504,199.626"/>
        <path stroke="#000" stroke-width=".395" d="M204.504,199.626 C204.52,196.723 206.482,195.902 206.491,195.904 C206.492,195.904 208.54,196.751 208.556,199.626 L204.504,199.626"/>
        <path fill="#F9DF77" fill-rule="nonzero" d="M199.433,191.768 L213.636,191.768 C213.934,191.768 214.179,192.046 214.179,192.386 C214.179,192.723 213.934,193.002 213.636,193.002 L199.433,193.002 C199.133,193.002 198.889,192.726 198.889,192.386 C198.889,192.046 199.132,191.768 199.433,191.768"/>
        <path stroke="#000" stroke-width=".396" d="M199.433,191.759 L213.636,191.759 C213.934,191.759 214.179,192.038 214.179,192.378 C214.179,192.716 213.934,192.994 213.636,192.994 L199.433,192.994 C199.133,192.994 198.889,192.718 198.889,192.378 C198.889,192.038 199.132,191.759 199.433,191.759 Z"/>
        <path fill="#F9DF77" fill-rule="nonzero" d="M199.73,193.003 L213.316,193.003 C213.602,193.003 213.836,193.282 213.836,193.62 C213.836,193.96 213.603,194.237 213.316,194.237 L199.73,194.237 C199.444,194.237 199.21,193.96 199.21,193.62 C199.21,193.282 199.444,193.003 199.73,193.003"/>
        <path stroke="#000" stroke-width=".396" d="M199.73,193.003 L213.314,193.003 C213.601,193.003 213.834,193.282 213.834,193.62 C213.834,193.96 213.601,194.237 213.314,194.237 L199.73,194.237 C199.444,194.237 199.21,193.96 199.21,193.62 C199.21,193.282 199.444,193.003 199.73,193.003 Z"/>
        <path fill="#F9DF77" fill-rule="nonzero" d="M204.171,183.724 L205.22,183.726 L205.22,184.489 L205.987,184.489 L205.987,183.711 L207.063,183.713 L207.063,184.489 L207.83,184.489 L207.83,183.711 L208.906,183.712 L208.904,185.473 C208.904,185.748 208.688,185.928 208.435,185.928 L204.661,185.928 C204.407,185.928 204.173,185.722 204.173,185.467 L204.171,183.724"/>
        <path stroke="#000" stroke-width=".397" d="M204.12,183.727 L205.191,183.727 L205.191,184.492 L205.973,184.492 L205.973,183.712 L207.073,183.716 L207.073,184.492 L207.858,184.492 L207.858,183.713 L208.956,183.713 L208.956,185.474 C208.956,185.75 208.734,185.93 208.477,185.93 L204.621,185.93 C204.361,185.93 204.123,185.722 204.123,185.47 L204.119,183.728 L204.12,183.727 L204.12,183.727 Z"/>
        <polyline fill="#F9DF77" fill-rule="nonzero" points="208.159 186.083 208.401 191.736 204.638 191.721 204.888 186.07 208.159 186.085"/>
        <polyline stroke="#000" stroke-width=".396" points="208.159 186.083 208.401 191.735 204.638 191.72 204.888 186.068 208.159 186.083"/>
        <path fill="#F9DF77" fill-rule="nonzero" d="M208.787,186.495 L209.835,186.497 L209.835,187.259 L210.602,187.259 L210.602,186.479 L211.677,186.482 L211.677,187.259 L212.447,187.259 L212.447,186.478 L213.522,186.48 L213.52,188.243 C213.52,188.518 213.302,188.697 213.05,188.697 L209.275,188.697 C209.022,188.697 208.788,188.49 208.788,188.235 L208.787,186.495"/>
        <polygon stroke="#000" stroke-width=".398" points="212.845 188.701 212.958 191.749 209.352 191.751 209.453 188.701 212.845 188.701"/>
        <path stroke="#000" stroke-width=".397" d="M208.787,186.485 L209.835,186.489 L209.835,187.253 L210.603,187.253 L210.603,186.471 L211.678,186.475 L211.678,187.253 L212.448,187.253 L212.448,186.471 L213.524,186.474 L213.521,188.236 C213.521,188.511 213.304,188.69 213.052,188.69 L209.277,188.69 C209.025,188.69 208.79,188.484 208.789,188.231 L208.787,186.487 L208.787,186.487 L208.787,186.485 Z"/>
        <path fill="#F9DF77" fill-rule="nonzero" d="M199.511,186.495 L200.561,186.497 L200.561,187.259 L201.327,187.259 L201.327,186.479 L202.404,186.482 L202.404,187.259 L203.171,187.259 L203.171,186.478 L204.247,186.48 L204.245,188.243 C204.245,188.518 204.026,188.697 203.776,188.697 L200.002,188.697 C199.749,188.697 199.514,188.49 199.514,188.235 L199.512,186.495"/>
        <path stroke="#000" stroke-width=".397" d="M199.511,186.495 L200.559,186.497 L200.559,187.261 L201.326,187.261 L201.326,186.479 L202.403,186.482 L202.403,187.26 L203.17,187.26 L203.17,186.48 L204.246,186.48 L204.244,188.243 C204.244,188.518 204.025,188.697 203.775,188.697 L200.001,188.697 C199.748,188.697 199.513,188.49 199.512,188.237 L199.509,186.495 L199.51,186.495 L199.511,186.495 Z"/>
        <polyline fill="#F9DF77" fill-rule="nonzero" points="203.568 188.701 203.683 191.749 200.076 191.751 200.177 188.701 203.568 188.701"/>
        <polygon stroke="#000" stroke-width=".398" points="203.568 188.701 203.683 191.749 200.076 191.751 200.178 188.701 203.568 188.701"/>
        <path fill="#000" fill-rule="nonzero" d="M206.157 187.869C206.134 187.321 206.922 187.315 206.913 187.869L206.913 189.216 206.157 189.216 206.157 187.869M210.8 189.824C210.797 189.294 211.532 189.283 211.524 189.824L211.524 190.864 210.8 190.864 210.8 189.824M201.497 189.824C201.494 189.294 202.228 189.283 202.219 189.824L202.219 190.864 201.497 190.864 201.497 189.824"/>
        <polyline fill="#F9DF77" fill-rule="nonzero" points="252.367 188.701 252.481 191.749 248.875 191.751 248.976 188.701 252.367 188.701"/>
        <path fill="#F9DF77" fill-rule="nonzero" d="M242.436,199.977 C242.554,195.14 245.978,193.996 246.004,193.978 C246.028,193.962 249.704,195.21 249.689,200.022 L242.436,199.977"/>
        <path fill="#F9DF77" fill-rule="nonzero" d="M239.479,194.064 L238.884,199.623 L242.505,199.631 C242.54,195.032 245.978,194.267 246.064,194.284 C246.141,194.28 249.55,195.3 249.642,199.631 L253.271,199.631 L252.615,194.03 L239.479,194.064"/>
        <path stroke="#000" stroke-width=".396" d="M239.479,194.073 L238.884,199.631 L242.505,199.638 C242.54,195.039 245.978,194.275 246.063,194.291 C246.14,194.286 249.551,195.308 249.642,199.638 L253.271,199.638 L252.615,194.038 L239.481,194.071 L239.479,194.073 L239.479,194.073 Z"/>
        <path fill="#F9DF77" fill-rule="nonzero" d="M238.641,199.654 L253.457,199.654 C253.769,199.654 254.024,199.962 254.024,200.341 C254.024,200.716 253.769,201.024 253.457,201.024 L238.641,201.024 C238.329,201.024 238.075,200.717 238.075,200.341 C238.075,199.961 238.33,199.654 238.641,199.654"/>
        <path stroke="#000" stroke-width=".396" d="M238.641,199.654 L253.457,199.654 C253.769,199.654 254.024,199.962 254.024,200.341 C254.024,200.717 253.769,201.024 253.457,201.024 L238.641,201.024 C238.329,201.024 238.075,200.717 238.075,200.341 C238.075,199.961 238.33,199.654 238.641,199.654 Z"/>
        <path fill="#F9DF77" fill-rule="nonzero" d="M244.027,199.626 C244.044,196.723 246.005,195.902 246.016,195.904 C246.016,195.904 248.062,196.751 248.078,199.626 L244.027,199.626"/>
        <path stroke="#000" stroke-width=".395" d="M244.027,199.626 C244.044,196.723 246.005,195.902 246.016,195.904 C246.016,195.904 248.062,196.751 248.079,199.626 L244.027,199.626"/>
        <path fill="#F9DF77" fill-rule="nonzero" d="M238.957,191.768 L253.16,191.768 C253.46,191.768 253.704,192.046 253.704,192.386 C253.704,192.723 253.459,193.002 253.16,193.002 L238.957,193.002 C238.657,193.002 238.412,192.726 238.412,192.386 C238.412,192.046 238.656,191.768 238.957,191.768"/>
        <path stroke="#000" stroke-width=".396" d="M238.957,191.759 L253.16,191.759 C253.46,191.759 253.704,192.038 253.704,192.378 C253.704,192.716 253.459,192.994 253.16,192.994 L238.957,192.994 C238.657,192.994 238.412,192.718 238.412,192.378 C238.412,192.038 238.656,191.759 238.957,191.759 Z"/>
        <path fill="#F9DF77" fill-rule="nonzero" d="M239.254,193.003 L252.839,193.003 C253.125,193.003 253.36,193.282 253.36,193.62 C253.36,193.96 253.125,194.237 252.839,194.237 L239.254,194.237 C238.967,194.237 238.733,193.96 238.733,193.62 C238.733,193.282 238.967,193.003 239.254,193.003"/>
        <path stroke="#000" stroke-width=".396" d="M239.254,193.003 L252.838,193.003 C253.123,193.003 253.359,193.282 253.359,193.62 C253.359,193.96 253.123,194.237 252.838,194.237 L239.254,194.237 C238.967,194.237 238.733,193.96 238.733,193.62 C238.733,193.282 238.967,193.003 239.254,193.003 Z"/>
        <path fill="#F9DF77" fill-rule="nonzero" d="M243.693,183.724 L244.743,183.726 L244.743,184.489 L245.509,184.489 L245.509,183.711 L246.583,183.713 L246.583,184.489 L247.353,184.489 L247.353,183.711 L248.428,183.712 L248.428,185.473 C248.428,185.748 248.209,185.928 247.96,185.928 L244.184,185.928 C243.93,185.928 243.696,185.722 243.696,185.467 L243.694,183.725"/>
        <path stroke="#000" stroke-width=".397" d="M243.643,183.727 L244.716,183.727 L244.716,184.492 L245.498,184.492 L245.498,183.712 L246.596,183.716 L246.596,184.492 L247.382,184.492 L247.382,183.713 L248.481,183.713 L248.481,185.474 C248.481,185.75 248.259,185.93 248,185.93 L244.143,185.93 C243.886,185.93 243.646,185.722 243.644,185.47 L243.643,183.727 L243.643,183.727 L243.643,183.727 Z"/>
        <polyline fill="#F9DF77" fill-rule="nonzero" points="247.682 186.083 247.924 191.736 244.162 191.721 244.412 186.07 247.682 186.085"/>
        <polyline stroke="#000" stroke-width=".396" points="247.682 186.083 247.924 191.735 244.162 191.72 244.412 186.068 247.682 186.083"/>
        <path fill="#F9DF77" fill-rule="nonzero" d="M248.309,186.495 L249.358,186.497 L249.358,187.259 L250.127,187.259 L250.127,186.479 L251.198,186.482 L251.198,187.259 L251.968,187.259 L251.968,186.478 L253.045,186.48 L253.043,188.243 C253.043,188.518 252.825,188.697 252.576,188.697 L248.8,188.697 C248.546,188.697 248.312,188.49 248.312,188.235 L248.31,186.495"/>
        <polygon stroke="#000" stroke-width=".398" points="252.367 188.701 252.482 191.749 248.875 191.751 248.976 188.701 252.369 188.701"/>
        <path stroke="#000" stroke-width=".397" d="M248.31,186.485 L249.358,186.489 L249.358,187.253 L250.127,187.253 L250.127,186.471 L251.201,186.475 L251.201,187.253 L251.97,187.253 L251.97,186.471 L253.047,186.474 L253.046,188.236 C253.046,188.511 252.827,188.69 252.577,188.69 L248.802,188.69 C248.549,188.69 248.313,188.484 248.313,188.231 L248.31,186.487 L248.311,186.487 L248.311,186.485 L248.31,186.485 Z"/>
        <path fill="#F9DF77" fill-rule="nonzero" d="M239.034,186.495 L240.086,186.497 L240.086,187.259 L240.851,187.259 L240.851,186.479 L241.926,186.482 L241.926,187.259 L242.696,187.259 L242.696,186.478 L243.771,186.48 L243.768,188.243 C243.768,188.518 243.553,188.697 243.3,188.697 L239.527,188.697 C239.273,188.697 239.038,188.49 239.038,188.235 L239.035,186.495"/>
        <path stroke="#000" stroke-width=".397" d="M239.034,186.495 L240.084,186.497 L240.084,187.261 L240.851,187.261 L240.851,186.479 L241.926,186.482 L241.926,187.26 L242.696,187.26 L242.696,186.48 L243.771,186.48 L243.768,188.243 C243.768,188.518 243.553,188.697 243.3,188.697 L239.527,188.697 C239.273,188.697 239.038,188.49 239.037,188.237 L239.035,186.495 L239.035,186.495 L239.035,186.495 L239.034,186.495 Z"/>
        <polyline fill="#F9DF77" fill-rule="nonzero" points="243.091 188.701 243.207 191.749 239.599 191.751 239.7 188.701 243.091 188.701"/>
        <polygon stroke="#000" stroke-width=".398" points="243.091 188.701 243.207 191.749 239.6 191.751 239.701 188.701 243.091 188.701"/>
        <path fill="#000" fill-rule="nonzero" d="M245.679 187.869C245.656 187.321 246.446 187.315 246.437 187.869L246.437 189.216 245.679 189.216 245.679 187.869M250.322 189.824C250.32 189.294 251.056 189.283 251.047 189.824L251.047 190.864 250.322 190.864 250.322 189.824M241.021 189.824C241.018 189.294 241.752 189.283 241.743 189.824L241.743 190.864 241.021 190.864 241.021 189.824"/>
        <polyline fill="#F9DF77" fill-rule="nonzero" points="172.875 229.279 172.989 232.325 169.382 232.326 169.485 229.28 172.875 229.279"/>
        <path fill="#F9DF77" fill-rule="nonzero" d="M162.943,240.553 C163.06,235.718 166.486,234.572 166.511,234.555 C166.535,234.54 170.21,235.788 170.199,240.597 L162.943,240.553"/>
        <path fill="#F9DF77" fill-rule="nonzero" d="M159.99,234.639 L159.393,240.2 L163.014,240.207 C163.047,235.61 166.489,234.844 166.57,234.861 C166.65,234.858 170.059,235.877 170.149,240.207 L173.78,240.207 L173.123,234.607 L159.99,234.639"/>
        <path stroke="#000" stroke-width=".396" d="M159.99,234.648 L159.393,240.206 L163.014,240.215 C163.047,235.617 166.488,234.852 166.57,234.869 C166.65,234.864 170.059,235.886 170.149,240.215 L173.78,240.215 L173.123,234.614 L159.99,234.648 L159.99,234.649 L159.99,234.648 Z"/>
        <path fill="#F9DF77" fill-rule="nonzero" d="M159.151,240.229 L173.965,240.229 C174.277,240.229 174.532,240.538 174.532,240.916 C174.532,241.291 174.279,241.601 173.965,241.601 L159.151,241.601 C158.837,241.601 158.582,241.292 158.582,240.916 C158.582,240.537 158.837,240.229 159.151,240.229"/>
        <path stroke="#000" stroke-width=".396" d="M159.151,240.229 L173.965,240.229 C174.278,240.229 174.533,240.538 174.533,240.916 C174.533,241.292 174.278,241.601 173.965,241.601 L159.151,241.601 C158.837,241.601 158.584,241.292 158.584,240.916 C158.583,240.537 158.837,240.229 159.151,240.229 Z"/>
        <path fill="#F9DF77" fill-rule="nonzero" d="M164.535,240.202 C164.552,237.301 166.513,236.479 166.523,236.481 C166.524,236.481 168.57,237.328 168.587,240.202 L164.535,240.202"/>
        <path stroke="#000" stroke-width=".395" d="M164.535,240.202 C164.552,237.301 166.513,236.479 166.523,236.481 C166.524,236.481 168.571,237.328 168.588,240.202 L164.535,240.202"/>
        <path fill="#F9DF77" fill-rule="nonzero" d="M159.465,232.345 L173.668,232.345 C173.967,232.345 174.212,232.623 174.212,232.962 C174.212,233.298 173.967,233.579 173.668,233.579 L159.465,233.579 C159.165,233.579 158.921,233.302 158.921,232.962 C158.92,232.623 159.165,232.345 159.465,232.345"/>
        <path stroke="#000" stroke-width=".396" d="M159.465,232.336 L173.668,232.336 C173.967,232.336 174.212,232.616 174.212,232.954 C174.212,233.293 173.967,233.57 173.668,233.57 L159.465,233.57 C159.165,233.57 158.921,233.295 158.921,232.954 C158.92,232.616 159.165,232.336 159.465,232.336 Z"/>
        <path fill="#F9DF77" fill-rule="nonzero" d="M159.761,233.581 L173.346,233.581 C173.633,233.581 173.867,233.858 173.867,234.196 C173.867,234.537 173.634,234.814 173.346,234.814 L159.761,234.814 C159.474,234.814 159.24,234.537 159.24,234.196 C159.24,233.858 159.475,233.581 159.761,233.581"/>
        <path stroke="#000" stroke-width=".396" d="M159.761,233.581 L173.346,233.581 C173.632,233.581 173.866,233.858 173.866,234.196 C173.866,234.537 173.632,234.814 173.346,234.814 L159.761,234.814 C159.474,234.814 159.24,234.537 159.24,234.196 C159.24,233.858 159.475,233.581 159.761,233.581 Z"/>
        <path fill="#F9DF77" fill-rule="nonzero" d="M164.201,224.301 L165.25,224.302 L165.25,225.066 L166.019,225.066 L166.019,224.285 L167.093,224.287 L167.093,225.066 L167.861,225.066 L167.861,224.285 L168.937,224.286 L168.935,226.049 C168.935,226.322 168.719,226.502 168.467,226.502 L164.693,226.502 C164.44,226.502 164.204,226.296 164.204,226.04 L164.201,224.301"/>
        <path stroke="#000" stroke-width=".397" d="M164.151,224.304 L165.223,224.305 L165.223,225.069 L166.005,225.069 L166.005,224.288 L167.104,224.292 L167.104,225.069 L167.889,225.069 L167.889,224.288 L168.988,224.288 L168.987,226.052 C168.987,226.327 168.765,226.507 168.508,226.507 L164.65,226.507 C164.391,226.507 164.152,226.299 164.151,226.044 L164.148,224.304 L164.151,224.304 L164.151,224.304 Z"/>
        <polyline fill="#F9DF77" fill-rule="nonzero" points="168.19 226.66 168.431 232.313 164.67 232.299 164.92 226.649 168.193 226.662"/>
        <polyline stroke="#000" stroke-width=".396" points="168.19 226.66 168.431 232.311 164.67 232.297 164.92 226.644 168.19 226.66"/>
        <path fill="#F9DF77" fill-rule="nonzero" d="M168.817,227.071 L169.868,227.073 L169.868,227.835 L170.635,227.835 L170.635,227.056 L171.71,227.06 L171.71,227.835 L172.479,227.835 L172.479,227.056 L173.553,227.058 L173.551,228.821 C173.551,229.096 173.336,229.275 173.083,229.275 L169.309,229.275 C169.056,229.275 168.821,229.069 168.821,228.813 L168.817,227.071"/>
        <polygon stroke="#000" stroke-width=".398" points="172.875 229.279 172.991 232.325 169.382 232.326 169.485 229.28 172.875 229.279"/>
        <path stroke="#000" stroke-width=".397" d="M168.818,227.062 L169.867,227.064 L169.867,227.829 L170.634,227.829 L170.634,227.047 L171.709,227.051 L171.709,227.83 L172.478,227.83 L172.478,227.047 L173.552,227.048 L173.552,228.811 C173.552,229.086 173.335,229.265 173.084,229.265 L169.309,229.265 C169.058,229.265 168.822,229.06 168.821,228.804 L168.818,227.063 L168.818,227.063 L168.818,227.062 Z"/>
        <path fill="#F9DF77" fill-rule="nonzero" d="M159.543,227.071 L160.593,227.073 L160.593,227.835 L161.359,227.835 L161.359,227.056 L162.434,227.06 L162.434,227.835 L163.202,227.835 L163.202,227.056 L164.278,227.058 L164.277,228.821 C164.277,229.096 164.061,229.275 163.808,229.275 L160.033,229.275 C159.78,229.275 159.546,229.069 159.546,228.813 L159.546,227.072"/>
        <path stroke="#000" stroke-width=".397" d="M159.543,227.071 L160.592,227.073 L160.592,227.837 L161.359,227.837 L161.359,227.056 L162.434,227.06 L162.434,227.838 L163.202,227.838 L163.202,227.057 L164.278,227.058 L164.277,228.821 C164.277,229.096 164.061,229.275 163.808,229.275 L160.033,229.275 C159.781,229.275 159.546,229.069 159.546,228.813 L159.543,227.071 L159.543,227.071 L159.543,227.071 Z"/>
        <polyline fill="#F9DF77" fill-rule="nonzero" points="163.6 229.279 163.715 232.325 160.106 232.326 160.208 229.28 163.6 229.279"/>
        <polygon stroke="#000" stroke-width=".398" points="163.6 229.279 163.715 232.325 160.107 232.326 160.209 229.28 163.6 229.279"/>
        <path fill="#000" fill-rule="nonzero" d="M166.187 228.447C166.164 227.897 166.953 227.891 166.944 228.447L166.944 229.794 166.187 229.794 166.187 228.447M170.832 230.4C170.829 229.87 171.563 229.858 171.554 230.4L171.554 231.44 170.832 231.44 170.832 230.4M161.528 230.4C161.526 229.87 162.259 229.858 162.251 230.4L162.251 231.44 161.528 231.44 161.528 230.4"/>
        <polyline fill="#F9DF77" fill-rule="nonzero" points="243.965 276.792 241.898 279.029 239.343 276.475 241.567 274.389 243.964 276.793"/>
        <path fill="#F9DF77" fill-rule="nonzero" d="M228.985,277.731 C232.483,274.393 235.713,276.01 235.743,276.015 C235.772,276.021 237.489,279.508 234.085,282.901 L228.985,277.731"/>
        <path fill="#F9DF77" fill-rule="nonzero" d="M231.071,271.455 L226.725,274.964 L229.28,277.534 C232.549,274.309 235.522,276.205 235.567,276.274 C235.627,276.327 237.318,279.462 234.324,282.591 L236.892,285.162 L240.379,280.735 L231.071,271.455"/>
        <path stroke="#000" stroke-width=".396" d="M231.063,271.463 L226.722,274.968 L229.275,277.54 C232.545,274.313 235.517,276.21 235.563,276.278 C235.62,276.331 237.313,279.469 234.319,282.595 L236.885,285.166 L240.375,280.741 L231.065,271.459 L231.063,271.463 L231.063,271.463 Z"/>
        <path fill="#F9DF77" fill-rule="nonzero" d="M226.532,274.814 L237.009,285.31 C237.23,285.53 237.193,285.929 236.926,286.193 C236.661,286.463 236.263,286.501 236.041,286.278 L225.566,275.782 C225.343,275.561 225.381,275.162 225.648,274.896 C225.914,274.629 226.312,274.592 226.532,274.814"/>
        <path stroke="#000" stroke-width=".396" d="M226.532,274.814 L237.009,285.31 C237.23,285.53 237.193,285.929 236.927,286.196 C236.66,286.463 236.263,286.501 236.041,286.278 L225.566,275.782 C225.343,275.561 225.381,275.162 225.648,274.896 C225.914,274.629 226.312,274.592 226.532,274.814 Z"/>
        <path fill="#F9DF77" fill-rule="nonzero" d="M230.358,278.61 C232.418,276.567 234.384,277.379 234.391,277.385 C234.391,277.385 235.242,279.435 233.224,281.48 L230.358,278.61"/>
        <path stroke="#000" stroke-width=".395" d="M230.358,278.61 C232.418,276.567 234.384,277.379 234.391,277.385 C234.391,277.385 235.242,279.436 233.225,281.483 L230.358,278.61"/>
        <path fill="#F9DF77" fill-rule="nonzero" d="M232.319,269.46 L242.362,279.522 C242.574,279.735 242.55,280.107 242.31,280.347 C242.071,280.585 241.701,280.609 241.488,280.396 L231.447,270.334 C231.235,270.12 231.258,269.753 231.498,269.51 C231.739,269.272 232.106,269.247 232.319,269.46"/>
        <path stroke="#000" stroke-width=".396" d="M232.325,269.454 L242.368,279.516 C242.58,279.729 242.556,280.099 242.317,280.339 C242.078,280.58 241.709,280.602 241.496,280.389 L231.455,270.327 C231.244,270.116 231.263,269.746 231.503,269.504 C231.743,269.267 232.113,269.241 232.325,269.454 Z"/>
        <path fill="#F9DF77" fill-rule="nonzero" d="M231.657,270.545 L241.263,280.17 C241.466,280.372 241.438,280.734 241.199,280.975 C240.957,281.217 240.596,281.246 240.394,281.042 L230.788,271.416 C230.584,271.216 230.615,270.854 230.854,270.61 C231.093,270.371 231.457,270.344 231.657,270.545"/>
        <path stroke="#000" stroke-width=".396" d="M231.657,270.545 L241.262,280.17 C241.466,280.372 241.435,280.734 241.197,280.973 C240.956,281.214 240.594,281.245 240.392,281.042 L230.787,271.416 C230.583,271.216 230.614,270.854 230.853,270.61 C231.093,270.371 231.457,270.344 231.657,270.545 Z"/>
        <path fill="#F9DF77" fill-rule="nonzero" d="M241.346,267.131 L242.088,267.873 L241.549,268.414 L242.09,268.957 L242.639,268.406 L243.397,269.171 L242.849,269.718 L243.393,270.263 L243.945,269.71 L244.704,270.474 L243.458,271.722 C243.264,271.916 242.984,271.886 242.806,271.71 L240.137,269.035 C239.957,268.853 239.937,268.543 240.119,268.36 L241.346,267.131"/>
        <path stroke="#000" stroke-width=".397" d="M241.308,267.096 L242.065,267.854 L241.525,268.398 L242.08,268.95 L242.63,268.4 L243.404,269.18 L242.856,269.727 L243.411,270.285 L243.963,269.734 L244.741,270.512 L243.497,271.756 C243.299,271.953 243.016,271.923 242.834,271.74 L240.107,269.005 C239.923,268.825 239.901,268.509 240.079,268.325 L241.308,267.094 L241.308,267.096 L241.308,267.096 Z"/>
        <polyline fill="#F9DF77" fill-rule="nonzero" points="242.501 271.622 238.683 275.791 236.033 273.118 240.197 269.297 242.501 271.622"/>
        <polyline stroke="#000" stroke-width=".396" points="242.501 271.622 238.685 275.79 236.034 273.115 240.199 269.296 242.501 271.622"/>
        <path fill="#F9DF77" fill-rule="nonzero" d="M242.655,272.358 L243.396,273.102 L242.856,273.643 L243.398,274.186 L243.951,273.635 L244.709,274.397 L244.159,274.949 L244.703,275.494 L245.254,274.941 L246.013,275.703 L244.768,276.948 C244.572,277.142 244.292,277.115 244.115,276.939 L241.447,274.261 C241.266,274.081 241.247,273.773 241.428,273.591 L242.655,272.358"/>
        <polygon stroke="#000" stroke-width=".398" points="243.966 276.794 241.898 279.029 239.346 276.475 241.569 274.392 243.966 276.794"/>
        <path stroke="#000" stroke-width=".397" d="M242.663,272.354 L243.401,273.095 L242.863,273.637 L243.405,274.18 L243.957,273.628 L244.714,274.392 L244.164,274.943 L244.708,275.486 L245.26,274.934 L246.019,275.699 L244.774,276.941 C244.58,277.136 244.299,277.11 244.121,276.932 L241.454,274.256 C241.275,274.076 241.253,273.765 241.432,273.585 L242.661,272.353 L242.663,272.354 L242.663,272.354 Z"/>
        <path fill="#F9DF77" fill-rule="nonzero" d="M236.095,265.786 L236.837,266.533 L236.299,267.073 L236.84,267.615 L237.391,267.062 L238.149,267.827 L237.601,268.377 L238.143,268.921 L238.694,268.369 L239.453,269.134 L238.207,270.378 C238.014,270.571 237.733,270.545 237.556,270.366 L234.889,267.691 C234.707,267.511 234.688,267.2 234.868,267.021 L236.094,265.788"/>
        <path stroke="#000" stroke-width=".397" d="M236.095,265.786 L236.836,266.533 L236.297,267.073 L236.839,267.615 L237.391,267.062 L238.149,267.827 L237.599,268.379 L238.141,268.924 L238.694,268.369 L239.453,269.134 L238.207,270.378 C238.014,270.571 237.733,270.545 237.556,270.366 L234.887,267.691 C234.707,267.514 234.687,267.2 234.866,267.022 L236.095,265.786 L236.095,265.788 L236.095,265.786 Z"/>
        <polyline fill="#F9DF77" fill-rule="nonzero" points="237.407 270.226 235.339 272.455 232.787 269.902 235.009 267.819 237.407 270.226"/>
        <polygon stroke="#000" stroke-width=".398" points="237.407 270.226 235.339 272.455 232.787 269.902 235.01 267.819 237.407 270.226"/>
        <path fill="#000" fill-rule="nonzero" d="M239.824 271.468C240.195 271.064 240.758 271.615 240.36 272.004L239.41 272.955 238.874 272.418 239.824 271.468M241.729 276.141C242.102 275.761 242.629 276.275 242.241 276.652L241.507 277.386 240.997 276.874 241.729 276.141M235.151 269.548C235.524 269.173 236.049 269.681 235.663 270.059L234.929 270.795 234.417 270.282 235.151 269.548"/>
        <polyline fill="#F9DF77" fill-rule="nonzero" points="252.307 229.281 252.421 232.326 248.812 232.328 248.915 229.281 252.307 229.281"/>
        <path fill="#F9DF77" fill-rule="nonzero" d="M242.375,240.555 C242.493,235.719 245.918,234.572 245.944,234.555 C245.967,234.54 249.643,235.788 249.631,240.599 L242.375,240.555"/>
        <path fill="#F9DF77" fill-rule="nonzero" d="M239.42,234.641 L238.825,240.2 L242.445,240.208 C242.481,235.611 245.92,234.846 246.005,234.862 C246.08,234.858 249.491,235.878 249.582,240.208 L253.212,240.208 L252.555,234.608 L239.42,234.641"/>
        <path stroke="#000" stroke-width=".396" d="M239.42,234.65 L238.825,240.207 L242.445,240.215 C242.481,235.617 245.92,234.852 246.002,234.869 C246.08,234.865 249.49,235.886 249.582,240.215 L253.211,240.215 L252.555,234.616 L239.421,234.648 L239.421,234.65 L239.42,234.65 Z"/>
        <path fill="#F9DF77" fill-rule="nonzero" d="M238.581,240.229 L253.396,240.229 C253.708,240.229 253.964,240.538 253.964,240.916 C253.964,241.291 253.709,241.6 253.396,241.6 L238.581,241.6 C238.269,241.6 238.013,241.293 238.013,240.916 C238.013,240.539 238.269,240.229 238.581,240.229"/>
        <path stroke="#000" stroke-width=".396" d="M238.581,240.229 L253.396,240.229 C253.708,240.229 253.965,240.538 253.965,240.916 C253.965,241.293 253.708,241.6 253.396,241.6 L238.581,241.6 C238.269,241.6 238.013,241.293 238.013,240.916 C238.013,240.539 238.269,240.229 238.581,240.229 Z"/>
        <path fill="#F9DF77" fill-rule="nonzero" d="M243.966,240.204 C243.984,237.302 245.945,236.481 245.955,236.483 C245.955,236.483 248,237.329 248.019,240.204 L243.968,240.204"/>
        <path stroke="#000" stroke-width=".395" d="M243.966,240.204 C243.984,237.302 245.945,236.481 245.955,236.483 C245.955,236.483 248.002,237.329 248.019,240.204 L243.968,240.204"/>
        <path fill="#F9DF77" fill-rule="nonzero" d="M238.896,232.346 L253.1,232.346 C253.396,232.346 253.643,232.625 253.643,232.964 C253.643,233.301 253.396,233.581 253.1,233.581 L238.896,233.581 C238.596,233.581 238.352,233.303 238.352,232.964 C238.352,232.625 238.596,232.346 238.896,232.346"/>
        <path stroke="#000" stroke-width=".396" d="M238.896,232.338 L253.1,232.338 C253.396,232.338 253.643,232.617 253.643,232.955 C253.643,233.294 253.396,233.571 253.1,233.571 L238.896,233.571 C238.596,233.571 238.352,233.295 238.352,232.955 C238.352,232.617 238.596,232.338 238.896,232.338 Z"/>
        <path fill="#F9DF77" fill-rule="nonzero" d="M239.193,233.581 L252.779,233.581 C253.065,233.581 253.301,233.859 253.301,234.197 C253.301,234.538 253.067,234.815 252.779,234.815 L239.193,234.815 C238.905,234.815 238.671,234.538 238.671,234.197 C238.671,233.859 238.906,233.581 239.193,233.581"/>
        <path stroke="#000" stroke-width=".396" d="M239.193,233.581 L252.777,233.581 C253.065,233.581 253.298,233.859 253.298,234.197 C253.298,234.538 253.065,234.815 252.777,234.815 L239.193,234.815 C238.905,234.815 238.671,234.538 238.671,234.197 C238.671,233.859 238.906,233.581 239.193,233.581 Z"/>
        <path fill="#F9DF77" fill-rule="nonzero" d="M243.633,224.301 L244.682,224.304 L244.682,225.067 L245.448,225.067 L245.448,224.286 L246.523,224.289 L246.523,225.067 L247.292,225.067 L247.292,224.286 L248.369,224.288 L248.367,226.052 C248.367,226.326 248.149,226.505 247.896,226.505 L244.122,226.505 C243.869,226.505 243.635,226.299 243.635,226.043 L243.633,224.304"/>
        <path stroke="#000" stroke-width=".397" d="M243.582,224.304 L244.655,224.306 L244.655,225.069 L245.436,225.069 L245.436,224.288 L246.535,224.293 L246.535,225.069 L247.321,225.069 L247.321,224.289 L248.42,224.289 L248.419,226.052 C248.419,226.328 248.195,226.508 247.938,226.508 L244.082,226.508 C243.823,226.508 243.583,226.299 243.583,226.044 L243.582,224.304 L243.582,224.304 L243.582,224.304 Z"/>
        <polyline fill="#F9DF77" fill-rule="nonzero" points="247.621 226.661 247.863 232.315 244.102 232.3 244.352 226.65 247.623 226.663"/>
        <polyline stroke="#000" stroke-width=".396" points="247.621 226.661 247.863 232.313 244.102 232.298 244.352 226.646 247.621 226.661"/>
        <path fill="#F9DF77" fill-rule="nonzero" d="M248.249,227.072 L249.299,227.074 L249.299,227.837 L250.065,227.837 L250.065,227.057 L251.142,227.06 L251.142,227.836 L251.909,227.836 L251.909,227.056 L252.985,227.059 L252.984,228.82 C252.984,229.095 252.765,229.275 252.516,229.275 L248.742,229.275 C248.489,229.275 248.253,229.068 248.253,228.812 L248.252,227.072"/>
        <polygon stroke="#000" stroke-width=".398" points="252.307 229.281 252.422 232.326 248.814 232.328 248.916 229.281 252.307 229.281"/>
        <path stroke="#000" stroke-width=".397" d="M248.25,227.063 L249.299,227.065 L249.299,227.83 L250.066,227.83 L250.066,227.047 L251.141,227.051 L251.141,227.83 L251.91,227.83 L251.91,227.049 L252.984,227.049 L252.982,228.811 C252.982,229.087 252.764,229.266 252.515,229.266 L248.742,229.266 C248.488,229.266 248.252,229.059 248.252,228.805 L248.249,227.064 L248.249,227.064 L248.25,227.063 Z"/>
        <path fill="#F9DF77" fill-rule="nonzero" d="M238.975,227.072 L240.023,227.074 L240.023,227.837 L240.791,227.837 L240.791,227.057 L241.865,227.06 L241.865,227.836 L242.635,227.836 L242.635,227.056 L243.711,227.059 L243.71,228.82 C243.71,229.095 243.492,229.275 243.239,229.275 L239.466,229.275 C239.212,229.275 238.977,229.068 238.977,228.812 L238.976,227.072"/>
        <path stroke="#000" stroke-width=".397" d="M238.975,227.072 L240.023,227.075 L240.023,227.839 L240.791,227.839 L240.791,227.058 L241.865,227.061 L241.865,227.839 L242.635,227.839 L242.635,227.058 L243.711,227.061 L243.71,228.822 C243.71,229.097 243.492,229.277 243.239,229.277 L239.466,229.277 C239.214,229.277 238.977,229.07 238.977,228.816 L238.974,227.074 L238.975,227.074 L238.975,227.072 Z"/>
        <polyline fill="#F9DF77" fill-rule="nonzero" points="243.031 229.281 243.147 232.326 239.539 232.328 239.641 229.281 243.031 229.281"/>
        <polygon stroke="#000" stroke-width=".398" points="243.031 229.281 243.147 232.326 239.54 232.328 239.641 229.281 243.033 229.281"/>
        <path fill="#000" fill-rule="nonzero" d="M245.619 228.448C245.596 227.898 246.386 227.892 246.376 228.448L246.376 229.795 245.619 229.795 245.619 228.448M250.263 230.4C250.261 229.871 250.996 229.859 250.986 230.4L250.986 231.441 250.263 231.441 250.263 230.4M240.959 230.4C240.956 229.871 241.691 229.859 241.681 230.4L241.681 231.441 240.959 231.441 240.959 230.4"/>
        <polyline fill="#F9DF77" fill-rule="nonzero" points="177.771 267.792 180.001 269.861 177.451 272.422 175.374 270.194 177.771 267.792"/>
        <path fill="#F9DF77" fill-rule="nonzero" d="M178.709,282.805 C175.378,279.3 176.992,276.065 176.997,276.034 C177.003,276.008 180.483,274.285 183.869,277.694 L178.709,282.805"/>
        <path fill="#F9DF77" fill-rule="nonzero" d="M172.448,280.708 L175.95,285.063 L178.514,282.501 C175.294,279.227 177.186,276.247 177.258,276.204 C177.308,276.142 180.441,274.449 183.561,277.445 L186.127,274.875 L181.709,271.379 L172.448,280.708"/>
        <path stroke="#000" stroke-width=".396" d="M172.448,280.717 L175.949,285.071 L178.515,282.509 C175.293,279.235 177.185,276.255 177.255,276.212 C177.308,276.15 180.441,274.456 183.56,277.452 L186.126,274.884 L181.71,271.386 L172.446,280.716 L172.446,280.716 L172.448,280.716 L172.448,280.717 Z"/>
        <path fill="#F9DF77" fill-rule="nonzero" d="M175.796,285.253 L186.273,274.756 C186.493,274.538 186.892,274.575 187.159,274.844 C187.424,275.111 187.461,275.508 187.24,275.729 L176.765,286.228 C176.544,286.448 176.146,286.411 175.881,286.144 C175.614,285.876 175.576,285.479 175.796,285.253"/>
        <path stroke="#000" stroke-width=".396" d="M175.796,285.253 L186.274,274.756 C186.494,274.538 186.893,274.575 187.159,274.844 C187.425,275.111 187.463,275.508 187.241,275.729 L176.764,286.228 C176.543,286.448 176.145,286.411 175.88,286.144 C175.614,285.876 175.576,285.479 175.796,285.253 L175.796,285.253 Z"/>
        <path fill="#F9DF77" fill-rule="nonzero" d="M179.583,281.417 C177.546,279.355 178.354,277.385 178.361,277.379 C178.362,277.379 180.407,276.529 182.448,278.549 L179.583,281.417"/>
        <path stroke="#000" stroke-width=".395" d="M179.583,281.417 C177.546,279.355 178.354,277.385 178.361,277.379 C178.362,277.379 180.408,276.526 182.448,278.549 L179.583,281.417"/>
        <path fill="#F9DF77" fill-rule="nonzero" d="M170.444,279.456 L180.488,269.395 C180.7,269.182 181.069,269.205 181.308,269.442 C181.546,269.682 181.571,270.054 181.359,270.266 L171.315,280.329 C171.105,280.539 170.734,280.517 170.495,280.277 C170.257,280.038 170.233,279.672 170.444,279.456"/>
        <path stroke="#000" stroke-width=".396" d="M170.444,279.456 L180.488,269.395 C180.7,269.182 181.071,269.206 181.308,269.442 C181.547,269.682 181.571,270.054 181.359,270.266 L171.315,280.329 C171.105,280.539 170.735,280.517 170.495,280.277 C170.257,280.038 170.233,279.672 170.444,279.456 L170.444,279.456 Z"/>
        <path fill="#F9DF77" fill-rule="nonzero" d="M171.531,280.114 L181.136,270.488 C181.339,270.284 181.701,270.313 181.939,270.553 C182.18,270.794 182.209,271.154 182.007,271.359 L172.4,280.986 C172.197,281.188 171.837,281.158 171.597,280.918 C171.357,280.678 171.328,280.318 171.531,280.114"/>
        <path stroke="#000" stroke-width=".396" d="M171.531,280.114 L181.136,270.489 C181.338,270.286 181.699,270.317 181.937,270.557 C182.178,270.796 182.208,271.158 182.006,271.36 L172.4,280.986 C172.197,281.188 171.837,281.158 171.597,280.918 C171.357,280.678 171.328,280.318 171.531,280.114 L171.531,280.114 Z"/>
        <path fill="#F9DF77" fill-rule="nonzero" d="M168.126,270.419 L168.869,269.675 L169.409,270.214 L169.951,269.671 L169.399,269.119 L170.162,268.36 L170.711,268.909 L171.254,268.365 L170.704,267.813 L171.465,267.05 L172.708,268.298 C172.902,268.496 172.875,268.775 172.696,268.952 L170.028,271.628 C169.848,271.805 169.536,271.826 169.356,271.649 L168.127,270.419"/>
        <path stroke="#000" stroke-width=".397" d="M168.094,270.451 L168.852,269.692 L169.391,270.234 L169.945,269.676 L169.394,269.125 L170.173,268.346 L170.721,268.899 L171.276,268.341 L170.725,267.791 L171.503,267.012 L172.746,268.26 C172.942,268.454 172.912,268.738 172.729,268.923 L170.001,271.655 C169.819,271.838 169.503,271.858 169.323,271.679 L168.092,270.451 L168.094,270.451 L168.094,270.451 Z"/>
        <polyline fill="#F9DF77" fill-rule="nonzero" points="172.614 269.249 176.776 273.075 174.105 275.732 170.294 271.56 172.616 269.25"/>
        <polyline stroke="#000" stroke-width=".396" points="172.614 269.259 176.774 273.083 174.103 275.741 170.291 271.568 172.614 269.259"/>
        <path fill="#F9DF77" fill-rule="nonzero" d="M173.344,269.103 L174.089,268.361 L174.628,268.904 L175.17,268.357 L174.62,267.809 L175.381,267.047 L175.93,267.599 L176.474,267.051 L175.922,266.5 L176.685,265.74 L177.928,266.987 C178.123,267.181 178.094,267.462 177.916,267.64 L175.248,270.313 C175.068,270.495 174.757,270.514 174.576,270.334 L173.347,269.103"/>
        <polygon stroke="#000" stroke-width=".398" points="177.771 267.792 180.001 269.861 177.452 272.418 175.374 270.194 177.771 267.79"/>
        <path stroke="#000" stroke-width=".397" d="M173.339,269.094 L174.083,268.353 L174.623,268.897 L175.165,268.349 L174.614,267.798 L175.375,267.037 L175.924,267.588 L176.468,267.045 L175.916,266.49 L176.677,265.731 L177.92,266.978 C178.115,267.171 178.087,267.455 177.908,267.632 L175.24,270.306 C175.063,270.484 174.751,270.506 174.57,270.327 L173.339,269.097 L173.34,269.095 L173.339,269.094 Z"/>
        <path fill="#F9DF77" fill-rule="nonzero" d="M166.792,275.671 L167.534,274.93 L168.073,275.47 L168.615,274.927 L168.065,274.375 L168.827,273.614 L169.375,274.166 L169.919,273.62 L169.369,273.068 L170.129,272.304 L171.372,273.555 C171.568,273.75 171.539,274.028 171.361,274.207 L168.692,276.879 C168.515,277.062 168.202,277.08 168.022,276.901 L166.792,275.671"/>
        <path stroke="#000" stroke-width=".397" d="M166.792,275.671 L167.534,274.931 L168.073,275.471 L168.617,274.93 L168.065,274.375 L168.827,273.614 L169.376,274.168 L169.92,273.62 L169.368,273.068 L170.128,272.304 L171.371,273.555 C171.567,273.75 171.538,274.028 171.36,274.207 L168.691,276.879 C168.514,277.062 168.201,277.08 168.021,276.904 L166.79,275.672 L166.792,275.671 L166.792,275.671 Z"/>
        <polyline fill="#F9DF77" fill-rule="nonzero" points="171.215 274.357 173.446 276.43 170.895 278.988 168.815 276.76 171.215 274.357"/>
        <polygon stroke="#000" stroke-width=".398" points="171.215 274.357 173.446 276.43 170.896 278.988 168.816 276.76 171.216 274.357 171.215 274.357"/>
        <path fill="#000" fill-rule="nonzero" d="M172.457 271.94C172.053 271.568 172.606 271.005 172.993 271.402L173.942 272.356 173.407 272.893 172.457 271.94M177.119 270.036C176.742 269.662 177.254 269.134 177.629 269.524L178.363 270.256 177.852 270.769 177.119 270.036M170.542 276.629C170.167 276.252 170.677 275.727 171.053 276.114L171.787 276.851 171.276 277.363 170.542 276.629"/>
        <path fill="#FFF" fill-rule="nonzero" d="M210.264 264.604C209.546 264.604 208.964 265.19 208.964 265.903 208.964 266.621 209.547 267.205 210.264 267.205 210.978 267.205 211.561 266.622 211.561 265.903 211.562 265.189 210.978 264.604 210.264 264.604M203.062 264.611C202.347 264.611 201.762 265.197 201.762 265.91 201.762 266.628 202.347 267.214 203.062 267.214 203.778 267.214 204.361 266.629 204.361 265.91 204.36 265.197 203.777 264.611 203.062 264.611M206.629 260.953C205.913 260.953 205.329 261.533 205.329 262.252 205.329 262.966 205.913 263.553 206.629 263.553 207.343 263.553 207.926 262.968 207.926 262.252 207.926 261.533 207.343 260.953 206.629 260.953M210.271 257.452C209.555 257.452 208.972 258.036 208.972 258.753 208.972 259.468 209.555 260.055 210.271 260.055 210.987 260.055 211.571 259.47 211.571 258.753 211.571 258.036 210.985 257.452 210.271 257.452M228.467 242.051C227.75 242.051 227.167 242.636 227.167 243.353 227.167 244.067 227.75 244.653 228.467 244.653 229.181 244.653 229.765 244.069 229.765 243.353 229.765 242.636 229.181 242.051 228.467 242.051M221.372 242.062C220.657 242.062 220.073 242.647 220.073 243.363 220.073 244.079 220.657 244.665 221.372 244.665 222.088 244.665 222.672 244.08 222.672 243.363 222.672 242.646 222.088 242.062 221.372 242.062M224.83 238.399C224.115 238.399 223.53 238.983 223.53 239.701 223.53 240.415 224.115 241.003 224.83 241.003 225.546 241.003 226.129 240.417 226.129 239.701 226.129 238.984 225.546 238.399 224.83 238.399M228.473 234.9C227.756 234.9 227.175 235.485 227.175 236.201 227.175 236.918 227.756 237.503 228.473 237.503 229.188 237.503 229.773 236.92 229.773 236.201 229.773 235.486 229.188 234.9 228.473 234.9M221.357 234.894C220.642 234.894 220.058 235.478 220.058 236.195 220.058 236.911 220.642 237.497 221.357 237.497 222.073 237.497 222.656 236.913 222.656 236.195 222.656 235.477 222.073 234.894 221.357 234.894M210.325 242.016C209.611 242.016 209.026 242.599 209.026 243.319 209.026 244.034 209.611 244.62 210.325 244.62 211.041 244.62 211.624 244.036 211.624 243.319 211.625 242.599 211.042 242.016 210.325 242.016M203.061 242.025C202.346 242.025 201.762 242.611 201.762 243.327 201.762 244.042 202.345 244.627 203.061 244.627 203.777 244.627 204.36 244.044 204.36 243.327 204.36 242.611 203.776 242.025 203.061 242.025M206.691 238.363C205.975 238.363 205.391 238.947 205.391 239.665 205.391 240.379 205.975 240.967 206.691 240.967 207.406 240.967 207.989 240.382 207.989 239.665 207.99 238.947 207.407 238.363 206.691 238.363M210.334 234.865C209.618 234.865 209.034 235.45 209.034 236.167 209.034 236.881 209.618 237.466 210.334 237.466 211.049 237.466 211.633 236.883 211.633 236.167 211.634 235.45 211.049 234.865 210.334 234.865M203.061 234.859C202.346 234.859 201.762 235.442 201.762 236.16 201.762 236.875 202.345 237.461 203.061 237.461 203.777 237.461 204.36 236.877 204.36 236.16 204.36 235.442 203.776 234.859 203.061 234.859M192.142 242.062C191.427 242.062 190.842 242.647 190.842 243.363 190.842 244.078 191.427 244.665 192.142 244.665 192.858 244.665 193.44 244.08 193.44 243.363 193.44 242.646 192.858 242.062 192.142 242.062M185.049 242.07C184.333 242.07 183.751 242.654 183.751 243.372 183.751 244.088 184.334 244.673 185.049 244.673 185.764 244.673 186.349 244.09 186.349 243.372 186.349 242.655 185.764 242.07 185.049 242.07M188.507 238.409C187.791 238.409 187.208 238.993 187.208 239.71 187.208 240.425 187.791 241.012 188.507 241.012 189.223 241.012 189.806 240.426 189.806 239.71 189.807 238.993 189.223 238.409 188.507 238.409M192.151 234.912C191.434 234.912 190.851 235.495 190.851 236.213 190.851 236.928 191.434 237.513 192.151 237.513 192.865 237.513 193.448 236.93 193.448 236.213 193.448 235.496 192.866 234.912 192.151 234.912M203.062 257.446C202.347 257.446 201.762 258.03 201.762 258.746 201.762 259.461 202.347 260.049 203.062 260.049 203.778 260.049 204.361 259.465 204.361 258.746 204.36 258.03 203.777 257.446 203.062 257.446"/>
        <path fill="#F9DF77" fill-rule="nonzero" d="M185.03,234.902 C184.314,234.902 183.729,235.488 183.729,236.203 C183.729,236.92 184.314,237.505 185.03,237.505 C185.745,237.505 186.328,236.921 186.328,236.203 C186.328,235.488 185.745,234.902 185.03,234.902"/>
        <path fill="#FFF" fill-rule="nonzero" d="M203.062 212.069C202.347 212.069 201.762 212.653 201.762 213.369 201.762 214.084 202.347 214.671 203.062 214.671 203.778 214.671 204.361 214.086 204.361 213.369 204.36 212.653 203.777 212.069 203.062 212.069M210.176 212.069C209.462 212.069 208.878 212.653 208.878 213.369 208.878 214.084 209.462 214.671 210.176 214.671 210.892 214.671 211.477 214.086 211.477 213.369 211.478 212.653 210.893 212.069 210.176 212.069M206.533 215.573C205.818 215.573 205.234 216.158 205.234 216.874 205.234 217.591 205.817 218.175 206.533 218.175 207.25 218.175 207.833 217.592 207.833 216.874 207.833 216.159 207.25 215.573 206.533 215.573M210.17 219.225C209.455 219.225 208.872 219.811 208.872 220.526 208.872 221.244 209.455 221.828 210.17 221.828 210.884 221.828 211.469 221.245 211.469 220.526 211.47 219.811 210.884 219.225 210.17 219.225M203.062 219.236C202.347 219.236 201.762 219.819 201.762 220.537 201.762 221.252 202.347 221.838 203.062 221.838 203.778 221.838 204.361 221.254 204.361 220.537 204.36 219.819 203.777 219.236 203.062 219.236M185.034 234.904C184.32 234.904 183.736 235.489 183.736 236.205 183.736 236.922 184.32 237.507 185.034 237.507 185.749 237.507 186.334 236.923 186.334 236.205 186.334 235.489 185.749 234.904 185.034 234.904"/>
      </g>
    </g>
  </g>
</svg>
