<svg xmlns="http://www.w3.org/2000/svg" xmlns:xlink="http://www.w3.org/1999/xlink" width="508" height="508" viewBox="0 0 508 508">
  <defs>
    <circle id="slovenia-a" cx="254" cy="254" r="254"/>
  </defs>
  <g fill="none" fill-rule="evenodd">
    <mask id="slovenia-b" fill="#fff">
      <use xlink:href="#slovenia-a"/>
    </mask>
    <g mask="url(#slovenia-b)">
      <g transform="translate(-26 -7)">
        <rect width="549.091" height="174.196" x=".909" y="348.394" fill="#C7463D" fill-rule="nonzero"/>
        <rect width="549.091" height="174.197" x=".909" y="174.196" fill="#337EBE" fill-rule="nonzero"/>
        <rect width="549.091" height="174.196" x=".909" fill="#F2F2F2" fill-rule="nonzero"/>
        <g transform="translate(69.95 101.734)">
          <path fill="#337EBE" fill-rule="nonzero" d="M129.83819,96.2457171 L135.326454,15.2617789 C92.5369379,-5.01658049 42.9031025,-5.01658049 0.11306938,15.2617789 L5.60185037,96.2457171 C8.06570202,132.636851 32.8039628,163.701822 67.7189852,174.245736 C102.636595,163.701693 127.372398,132.636851 129.83819,96.2457171"/>
          <path fill="#FFF" fill-rule="nonzero" d="M17.0164242,107.219269 C22.8943502,133.673881 42.0950575,155.173881 67.7191146,163.990706 C93.3445948,155.173752 112.546208,133.673752 118.424651,107.219269 L93.0726591,73.4169575 L82.9310861,86.9374162 L67.7191146,56.5155432 L52.5076606,86.9374162 L42.3675107,73.4169575 L17.0164242,107.219269"/>
          <path fill="#005DA4" fill-rule="nonzero" d="M0.26197425,0.40428125 C4.9302907,8.48731885 15.26566,11.2584242 23.3499913,6.5901078 L23.3499913,6.5901078 C28.5797736,3.5719057 35.0230464,3.5719057 40.2534755,6.5901078 C45.4832578,9.6108973 51.9245901,9.6108973 57.1530786,6.5901078 C62.3828609,3.5719057 68.82484,3.5719057 74.055916,6.5901078 C82.1383067,11.2584242 92.4762634,8.48731885 97.1426393,0.40428125 L97.1426393,0.40428125 L97.1426393,5.2834708 C92.4762634,13.3671553 82.1383067,16.1376138 74.055916,11.4699442 L74.055916,11.4699442 C68.82484,8.4517421 62.3828609,8.4517421 57.1530786,11.4699442 C51.9239432,14.4887932 45.4832578,14.4887932 40.2534755,11.4699442 C35.0236933,8.4517421 28.5804204,8.4517421 23.3499913,11.4699442 C15.26566,16.1376138 4.9302907,13.3671553 0.2626211,5.2834708 L0.26197425,5.2834708 L0.26197425,0.40428125 Z" transform="translate(19.017 115.266)"/>
          <path fill="#005DA4" fill-rule="nonzero" d="M0.26197425,0.4592635 C4.9302907,8.5448885 15.26566,11.3140533 23.3499913,6.6470306 L23.3499913,6.6470306 C28.5797736,3.62559425 35.0230464,3.62559425 40.2534755,6.6470306 C45.4832578,9.66587955 51.9245901,9.66587955 57.1530786,6.6470306 C62.3828609,3.62559425 68.82484,3.62559425 74.055916,6.6470306 C82.1383067,11.3140533 92.4762634,8.5448885 97.1426393,0.4592635 L97.1426393,0.4592635 L97.1426393,5.33715935 C92.4762634,13.4227843 82.1383067,16.192596 74.055916,11.5249264 L74.055916,11.5249264 C68.82484,8.50543065 62.3828609,8.50543065 57.1530786,11.5249264 C51.9239432,14.5444222 45.4832578,14.5444222 40.2534755,11.5249264 C35.0236933,8.50543065 28.5804204,8.50543065 23.3499913,11.5249264 C15.26566,16.192596 4.9302907,13.4227843 0.2626211,5.33715935 L0.26197425,5.33715935 L0.26197425,0.4592635 Z" transform="translate(19.017 127.21)"/>
          <polygon fill="#FD0" fill-rule="nonzero" points="5.492 .157 6.76 4.3 10.981 3.326 8.027 6.495 10.981 9.665 6.76 8.691 5.492 12.834 4.225 8.691 .003 9.665 2.958 6.495 .003 3.326 4.225 4.3" transform="translate(62.227 33.119)"/>
          <polygon fill="#FD0" fill-rule="nonzero" points="5.691 .13 6.957 4.271 11.179 3.299 8.224 6.468 11.179 9.636 6.957 8.662 5.691 12.804 4.422 8.662 .201 9.636 3.156 6.468 .201 3.299 4.422 4.271" transform="translate(38.65 1.973)"/>
          <polygon fill="#FD0" fill-rule="nonzero" points="5.585 .13 6.855 4.271 11.075 3.299 8.121 6.468 11.075 9.636 6.855 8.662 5.585 12.804 4.319 8.662 .098 9.636 3.053 6.468 .098 3.299 4.319 4.271" transform="translate(85.514 1.973)"/>
          <path fill="#C7463D" fill-rule="nonzero" d="M4.85680854,13.1069922 L10.4681029,95.9180229 C12.7624799,129.742715 35.4451807,158.750056 67.7191146,169.129411 C99.9930485,158.750056 122.676137,129.742715 124.969609,95.9180229 L130.583361,13.1069922 C132.150808,13.8511284 133.731321,14.5683557 135.326583,15.2593209 L129.838319,96.2455877 C127.372527,132.636722 102.636724,163.700658 67.7191146,174.244572 C32.8040922,163.700658 8.06583139,132.636593 5.60197974,96.2455877 L0.11319875,15.2593209 C1.70690778,14.5684851 3.28845603,13.8511284 4.85680854,13.1069922"/>
        </g>
      </g>
    </g>
  </g>
</svg>
