<svg xmlns="http://www.w3.org/2000/svg" xmlns:xlink="http://www.w3.org/1999/xlink" width="508" height="508" viewBox="0 0 508 508">
  <defs>
    <circle id="slovakia-a" cx="254" cy="254" r="254"/>
    <circle id="slovakia-c" cx="254" cy="254" r="254"/>
    <circle id="slovakia-e" cx="254" cy="254" r="254"/>
    <circle id="slovakia-g" cx="254" cy="254" r="254"/>
    <circle id="slovakia-i" cx="254" cy="254" r="254"/>
    <circle id="slovakia-k" cx="254" cy="254" r="254"/>
    <path id="slovakia-m" d="M104.121,261.051 C61.283,240.417 0.008,199.462 0.008,118.447 C0.008,37.432 3.881,0.588 3.881,0.588 L104.121,0.588 L204.364,0.588 C204.364,0.588 208.239,37.432 208.239,118.447 C208.239,199.462 146.963,240.417 104.121,261.051 Z"/>
    <path id="slovakia-o" d="M104.121,261.051 C61.283,240.417 0.008,199.462 0.008,118.447 C0.008,37.432 3.881,0.588 3.881,0.588 L104.121,0.588 L204.364,0.588 C204.364,0.588 208.239,37.432 208.239,118.447 C208.239,199.462 146.963,240.417 104.121,261.051 Z"/>
  </defs>
  <g fill="none" fill-rule="evenodd">
    <mask id="slovakia-b" fill="#fff">
      <use xlink:href="#slovakia-a"/>
    </mask>
    <rect width="557.999" height="173.643" x="-33.999" y="341.641" fill="#C7463D" fill-rule="nonzero" mask="url(#slovakia-b)"/>
    <mask id="slovakia-d" fill="#fff">
      <use xlink:href="#slovakia-c"/>
    </mask>
    <rect width="557.999" height="173.643" x="-33.999" y="167.998" fill="#337EBE" fill-rule="nonzero" mask="url(#slovakia-d)"/>
    <g>
      <mask id="slovakia-f" fill="#fff">
        <use xlink:href="#slovakia-e"/>
      </mask>
      <rect width="557.999" height="173.643" x="-33.999" y="-5.645" fill="#F2F2F2" fill-rule="nonzero" mask="url(#slovakia-f)"/>
    </g>
    <g>
      <mask id="slovakia-h" fill="#fff">
        <use xlink:href="#slovakia-g"/>
      </mask>
      <path fill="#FFF" fill-rule="nonzero" d="M141.121,396.772 C94.428,374.28 27.638,329.64 27.638,241.334 C27.638,153.027 31.86,112.866 31.86,112.866 L141.121,112.866 L250.387,112.866 C250.387,112.866 254.61,153.027 254.61,241.334 C254.609,329.64 187.818,374.28 141.121,396.772 Z" mask="url(#slovakia-h)"/>
    </g>
    <g>
      <mask id="slovakia-j" fill="#fff">
        <use xlink:href="#slovakia-i"/>
      </mask>
      <path fill="#C7463D" fill-rule="nonzero" d="M141.121,385.051 C98.283,364.417 37.008,323.462 37.008,242.447 C37.008,161.432 40.881,124.588 40.881,124.588 L141.121,124.588 L241.364,124.588 C241.364,124.588 245.239,161.432 245.239,242.447 C245.239,323.462 183.963,364.417 141.121,385.051 Z" mask="url(#slovakia-j)"/>
    </g>
    <g>
      <mask id="slovakia-l" fill="#fff">
        <use xlink:href="#slovakia-k"/>
      </mask>
      <g mask="url(#slovakia-l)">
        <g transform="translate(37 124)">
          <mask id="slovakia-n" fill="#fff">
            <use xlink:href="#slovakia-m"/>
          </mask>
          <path fill="#FFF" fill-rule="nonzero" d="M113.284,97.204 C124.885,97.393 147.514,97.848 167.664,91.104 C167.664,91.104 167.132,98.315 167.132,106.715 C167.132,115.116 167.664,122.327 167.664,122.327 C149.181,116.141 126.356,116.013 113.284,116.178 L113.284,160.926 L94.962,160.926 L94.962,116.178 C81.893,116.013 59.066,116.141 40.582,122.327 C40.582,122.327 41.115,115.116 41.115,106.715 C41.115,98.316 40.582,91.104 40.582,91.104 C60.734,97.848 83.363,97.393 94.962,97.204 L94.962,69.103 C84.39,69.01 69.156,69.514 51.93,75.279 C51.93,75.279 52.463,68.068 52.463,59.665 C52.463,51.266 51.93,44.054 51.93,44.054 C69.13,49.809 84.345,50.322 94.915,50.23 C94.373,32.436 89.187,10.005 89.187,10.005 C89.187,10.005 99.858,10.838 104.121,10.838 C108.392,10.838 119.058,10.005 119.058,10.005 C119.058,10.005 113.874,32.435 113.33,50.23 C123.9,50.322 139.115,49.809 156.315,44.054 C156.315,44.054 155.783,51.265 155.783,59.665 C155.783,68.067 156.315,75.279 156.315,75.279 C139.09,69.514 123.857,69.009 113.283,69.103 L113.283,97.204 L113.284,97.204 Z" mask="url(#slovakia-n)"/>
          <g>
            <mask id="slovakia-p" fill="#fff">
              <use xlink:href="#slovakia-o"/>
            </mask>
            <path fill="#337EBE" fill-rule="nonzero" d="M102.235,287.629 L13.473,208.51 C13.473,208.51 24.82,171.809 46.97,171.809 C64.571,171.809 70.995,186.002 70.995,186.002 C70.995,186.002 82.551,156.085 104.121,156.085 C125.697,156.085 137.253,186.002 137.253,186.002 C137.253,186.002 143.675,171.809 161.276,171.809 C183.425,171.809 194.773,208.51 194.773,208.51 L102.235,287.629 Z" mask="url(#slovakia-p)"/>
          </g>
        </g>
      </g>
    </g>
  </g>
</svg>
