<?xml version="1.0" encoding="utf-8"?>
<!-- Generator: Adobe Illustrator 20.0.0, SVG Export Plug-In . SVG Version: 6.00 Build 0)  -->
<!DOCTYPE svg PUBLIC "-//W3C//DTD SVG 1.1//EN" "http://www.w3.org/Graphics/SVG/1.1/DTD/svg11.dtd">
<svg version="1.1" id="Layer_1" xmlns="http://www.w3.org/2000/svg" xmlns:xlink="http://www.w3.org/1999/xlink" x="0px" y="0px"
	 viewBox="82 50 105 65" style="enable-background:new 0 0 105 65;" xml:space="preserve">
<style type="text/css">
	.st0{fill:#A5ACB0;}
	.st1{fill:#FFFFFF;}
	.st2{fill:#EA7125;}
</style>
<g id="Layer_1_1_">
	<polygon id="Fill-126_1_" class="st0" points="185.8,51.6 178.4,51.6 178.4,54.9 185.8,54.9 	"/>
	<g>
		<path id="Fill-122" class="st0" d="M179.4,54.9c-3.7,0-6.6,3-6.6,6.6v43.1c0,3.7,3,6.6,6.6,6.6 M179.4,114.5
			c-5.5,0-9.9-4.5-9.9-9.9V61.5c0-4.1,2.5-7.6,6.1-9.2c1.2-0.5,2.5-0.8,3.9-0.8"/>
	</g>
	<polygon id="Fill-126_2_" class="st0" points="185.8,111.2 179.4,111.2 179.4,114.5 185.8,114.5 	"/>
</g>
<g id="Layer_4">
	<path class="st0" d="M145.9,104.8H88.3c-3.1,0-5.7-2.6-5.7-5.7V64.9c0-3.1,2.6-5.7,5.7-5.7h57.6c3.1,0,5.7,2.6,5.7,5.7v34.2
		C151.6,102.3,149.1,104.8,145.9,104.8z"/>
	<path class="st1" d="M144.9,102H89.8c-1.9,0-3.4-1.5-3.4-3.4V65.5c0-1.9,1.5-3.4,3.4-3.4h55.1c1.9,0,3.4,1.5,3.4,3.4v33.1
		C148.3,100.4,146.8,102,144.9,102z"/>
	<polygon id="Fill-100_2_" class="st0" points="84.1,69.6 150.5,69.6 150.5,66.8 84.1,66.8 	"/>
	<g>
		<path class="st2" d="M138.7,90.9h-5.1c-2.2,0-4-1.8-4-4v-5.1c0-2.2,1.8-4,4-4h5.1c2.2,0,4,1.8,4,4v5.1
			C142.6,89.1,140.9,90.9,138.7,90.9z"/>
		<path class="st1" d="M138.2,88.8H134c-1.2,0-2.3-1-2.3-2.3v-4.4c0-1.2,1-2.3,2.3-2.3h4.1c1.2,0,2.3,1,2.3,2.3v4.4
			C140.4,87.8,139.4,88.8,138.2,88.8z"/>
	</g>
</g>
<g id="Layer_2">
	<polygon id="Fill-126_4_" class="st1" points="182,110.8 182,55.1 178.7,55.1 178.7,110.8 	"/>
</g>
<g id="Layer_3">
	<polygon id="Fill-126_5_" class="st2" points="180.4,105.2 180.4,59.6 177.8,59.6 177.8,105.2 	"/>
</g>
<g id="Layer_5">
	<g>
		<polyline id="Fill-549_1_" class="st2" points="154.6,82 164.9,82 164.9,79.9 154.6,79.9 		"/>
		<path id="Fill-550" class="st2" d="M159.8,77.4l3.6,3.6l-3.6,3.6l1.5,1.5l4.3-4.3c0.4-0.4,0.4-1.1,0-1.5l-4.3-4.3L159.8,77.4"/>
	</g>
</g>
</svg>
