<?xml version="1.0" encoding="utf-8"?>
<!-- Generator: Adobe Illustrator 18.1.0, SVG Export Plug-In . SVG Version: 6.00 Build 0)  -->
<svg version="1.1" id="Layer_1" xmlns="http://www.w3.org/2000/svg" xmlns:xlink="http://www.w3.org/1999/xlink" x="0px" y="0px"
	 viewBox="-141 375 47.6 44" enable-background="new -141 375 47.6 44" xml:space="preserve">
<g>
	<path fill="#5D5D5D" d="M-116.9,410.1c-0.3,0-0.5,0-0.8,0.1c-0.5,0-0.9,0.1-1.4,0.1c-1.2,0.1-2.5,0.1-3.7,0.2c0,0.3,0,0.5,0,0.7
		c0.1,0,0.9-0.1,1,0c0.5,0,1.5-0.1,1.6-0.1h0.4c0.1,0,0.7,0,0.9,0s0.7-0.1,0.7-0.1c0.4,0,0.9-0.1,1.3-0.1V410.1L-116.9,410.1z
		 M-99.8,387.8L-99.8,387.8l0.2,0.6c0.4,1.8,0.9,3.5,1.3,5.3c0,0,0,0.1,0.1,0.1c0.4-0.2,0.8-0.3,1.2-0.4l0,0v-0.1
		c-0.2-0.6-0.5-1.2-0.7-1.9c-0.1-0.4-0.3-0.8-0.5-1.2c-0.1-0.3-0.2-0.5-0.3-0.8C-99,388.8-99.4,388.3-99.8,387.8L-99.8,387.8z
		 M-125.5,375c0.7,0.6,1.3,1.3,1.9,1.9c0.4,0.3,0.5,0.7,0.8,1.1c0.2,0.3,0.3,0.6,0.5,0.8c0.2,0.2-0.2,0.3-0.3,0.5
		c-0.2,0.2-0.6,0.4-0.6,0.6l0,0c0.5,0,1.4,0,2.2,0c0.1,0,0.2,1.1,0.3,1.5c0,0.4,0.1,0.7,0.2,1.1c0.1,0.3,0.1,0.7,0.2,1.1
		c0,0.2,0.1,0.4,0.1,0.6c0,0.1,0,0.2,0.1,0.2h8.4l0,0v-0.3c0-0.3,0.1-0.6,0.1-0.9v-0.3l0.2-2.4c0-0.1,0-0.2,0-0.3
		c0-0.1,0.9-0.1,1.3-0.1V380c-0.4-0.7-1.1-1.3-1.8-1.7c-0.2-0.1-0.4-0.2-0.6-0.3c-0.2-0.1-0.4-0.2-0.6-0.2c-0.2,0-0.4-0.1-0.6-0.1
		v-0.1c0.2-0.2,0.3-0.3,0.5-0.5c0-0.1,0.2-0.2,0.2-0.2c0.1-0.1,0.2-0.3,0.3-0.4h0.1c0.1,0,0.3,0.1,0.4,0.1c0.3,0.1,0.7,0.3,1,0.4
		s1,0.6,1,0.7l0.3,0.3c0.1,0.1,0.2,0.2,0.3,0.3c0.3,0.4,0.5,0.8,0.8,1.2c0,0.1-0.1,0.1-0.1,0.2c-0.1,0.2-0.2,0.4-0.3,0.6
		c0.5,0.1,1,0,1.5,0l0,0c0.2,1.4,0.5,2.8,0.7,4.2l0,0c0.3,0,0.7,0,1.1,0c0.3,0,0.5,0,0.8,0h4.5v-1.1v-2.9l0,0h2.1h2.4
		c0,0,0.1,0.4,0.1,0.6c0,0.6,0.1,2.1,0.1,2.2c0,0.7,0.1,1.4,0.1,2.1v0.1c0.5,1.7,1.1,3.5,1.5,5.2c0,0.1,0.1,0.2,0.1,0.3
		s0,0.1,0.1,0.2c0.2,0.8,0.5,1.6,0.7,2.4v0.4v3.5c0,0.8,0,1.7,0,2.6c0,0-0.1,1.5,0,2.3c0,1,0,1.9,0,2.9c0,0.8,0,1.6,0,2.4
		c0,0.3,0,0.7,0,1.1c0,0.3,0,0.6,0,0.9l0,0c0,0.8-0.1,1.6,0,2.3c-0.1,0.3,0,1.7-0.1,2c0,0.8,0,1.6,0,2.5c-2.3,0-4.7,0-6.9,0
		c0.4-0.4,0.8-0.8,1.2-1.1l0.1-0.1l2.1-1.9l0.3-0.3c0-0.1,0-0.3,0-0.3c0-0.9,0.1-1.8,0.1-2.8l0.1-2.5l0.1-2l0.1-2.6v-0.3
		c-0.2-0.1-0.3-0.2-0.5-0.3l-0.9-0.4c-0.1,0-0.9-0.3-1-0.3c-0.3-0.1-0.7-0.1-1-0.2c-0.1,0-0.2,0-0.4,0c-0.6,0-1.2,0-1.8,0
		c-0.1,0,0.2-0.9,0.2-1c0.1-0.2,0.2-0.7,0.2-0.7c0-0.1,0-0.2,0.1-0.2l0.6-0.1c0.2,0,0.7-0.1,0.8-0.1c0.2,0,1-0.1,1.2-0.1
		c0.4,0.1,0.7,0.1,1,0.1s0.6,0.1,0.8,0.2s0.4,0.2,0.6,0.2l0,0c0-1,0.1-2,0.1-2.9l0,0l-2.5,0.1c-1.8,0-3.7,0-5.5,0.1
		c0,0.6,0,1.1,0,1.7l0,0c-0.3,0-1.1-0.1-1.2-0.1c-0.5,0-2-0.1-2.2,0c-0.5,0.1-1,0.1-1.5,0.3c-0.7,0.2-1.3,0.5-1.9,0.9
		c-0.3,0.2-0.6,0.3-0.8,0.5c0,0.3,0.1,0.6,0.1,1v0.3c0,0,2.4-0.4,2.7-0.4c0.2,0,0.3-0.1,0.5,0c0.8-0.1,1.6,0,2.4,0.1
		c0.3,0,1.1,0.2,1.6,0.3c0.1,0,0.2,0.1,0.3,0.1l0,0v6.4c0,0.2,0,0.4,0,0.6v0.1c-1.2,0-2.5,0.1-3.8,0c0,0.4,0,0.9,0,1.3h0.1
		c0.9,0.3,1.9,0.5,2.8,0.7c0.4,0.1,0.8,0.2,1.2,0.3c0.1,0,0.3,0.1,0.3,0.1c0.5-0.2,2.6-0.8,2.9-0.9c0.2-0.1,0.6-0.2,0.6-0.3
		c0.2-0.5,0.4-1,0.7-1.5c0.1,0,0.2,0,0.3,0c0.6,0.1,1.2,0.2,1.8,0.3c-0.1,0.7-0.3,1.3-0.5,1.9c-0.4,0.3-0.8,0.6-1.2,0.9
		c-0.8,0.3-1.6,0.5-2.4,0.7c-0.1,0-0.3,0.1-0.4,0.2c-0.6,0.2-1.2,0.3-1.8,0.4c-0.1,0.1-0.2,0-0.3,0.1v0.8v2.5c-0.1,0,0,0.1-0.1,0.1
		c-0.6,0-1.2,0-1.8,0h-6.1l-0.1-0.2l-0.7-2.4v-0.1v-2.8c0-0.4,0-0.8,0-1.3v-6.4v-5.4l0,0l-1.9-0.1l-4.6-0.2c-0.5,0-1.1-0.1-1.6-0.1
		c-0.3,0-0.6,0-0.9-0.1c0,0-0.4,0-0.6,0c-0.1,1.5,0,2.9,0,4.4v2.5c0,1.6,0,3.1,0,4.7h2.7c0.2,0,0.4,0,0.7,0c0.9,0,1.8,0,2.7,0
		c0.2,0,0.3,0,0.5,0c0.7,0,1.5,0,2.2,0v0.1c0,0.4,0,0.8,0.1,1.2c0,0.3,0.1,0.5,0,0.8c-0.6,0.4-1.3,0.7-2,1c-0.8,0.4-1.5,0.7-2.3,1.1
		c-0.3,0-1.9,0.1-1.9,0.1c-0.9,0-1.8,0-2.6-0.1v1.1v2.4c-0.3,0-0.5,0.1-0.8,0h-3c-1,0-2,0-3,0c-0.2-0.1-0.3-0.2-0.4-0.3
		c-0.1-0.1-0.2-0.2-0.2-0.2c-0.3-0.3-1-0.9-1-1c-0.3-0.3-0.7-0.7-1.1-1c-0.5-0.5-1.6-1.5-1.6-1.5c-0.6-0.4-2.6-1.9-2.6-2
		c-0.2-0.1-1.7-1.2-1.8-1.3c-0.1,0-0.7-0.5-0.7-0.5c-0.1-0.1-1.4-1-1.5-1.1c-0.3-0.2-0.6-0.5-1-0.7v-0.2c1,0,1.8-0.2,2.8-0.2h0.2
		l3.7,0.1c1.5,0,4.7,0,4.7,0h0.4v0.1c0,1,0,2,0,3c0,0.3,0,0.9,0,0.9c0,0.6,0,1.2,0,1.9c0,0.6,0,1.3,0,2c0.1,0.1,0.2,0.2,0.3,0.2
		c0-0.1,0-0.8,0-1c0-0.5,0-1.1,0-1.7c0-2.8,0.1-9.3,0.1-9.3s0-1.9,0-2.5c0-0.5,0-1.7,0-1.7c0-0.5,0-1,0-1.4c0-0.8,0-1.7,0-2.5h2.1
		c1.3,0,4.1,0,4.1,0c0.9,0,1.8,0,2.8,0h2.6c2,0,3.8,0.1,5.9,0h0.2c1.9,0,3.8,0,5.8,0.1c0.1,0,1.4,0,1.4,0c0.1-0.1,0-0.3,0-0.4
		c0-0.4,0-1.4,0-1.4c0-0.2,0-0.5,0-0.7c0-0.4,0-0.8,0.1-1.2c0-1.1,0-2.2,0-3.4c0,0-0.1,0-0.2,0l0,0c-0.4,1.8-0.8,3.6-1.1,5.3v0.4
		c0,0.2-0.1,0.4-0.1,0.7h-0.1c-0.5,0-1.1-0.1-1.6-0.1l0,0c-0.1,0-0.6,0-0.6,0s-1.2-0.1-1.8-0.1c-0.1,0.1-0.7,0-1,0
		c-0.8-0.1-1.6,0-2.4-0.1c-0.2,0-0.3,0-0.5,0c-0.1,0-0.3,0-0.3-0.1c0.1-0.3,0.1-0.6,0.2-1l0.2-1.4l0.5-2.5c0.1-0.5,0.2-1,0.3-1.5
		c-0.1,0-0.3,0-0.4,0c-0.5,0.9-0.8,1.8-1.4,2.7c0,0.1-0.1,0.2-0.1,0.3l0,0l-0.2,0.2l-0.5,0.8l-0.3,0.6l-0.1,0.3l-0.1,0.3l-0.1,0.1
		l-0.1,0.3l-0.3,0.9h-0.1h-3.8h-1.3v-0.1l0.1-0.3l0.1-0.5l0.4-1.4l0.1-0.6l0.2-0.9l0.5-2.4l0.2-0.7h-0.4v0.1l-0.8,1.9l-0.3,0.8
		l-0.2,0.5l-0.2,0.5l-0.3,0.9l-0.2,0.4l-0.5,1.4l-0.1,0.2h-0.1h-0.1h-5.9v-0.9v-0.3l0.1-0.3l0.2-0.4l0.3-0.7l0.7-1.4l0.7-1.4
		l0.3-0.6l0.7-1.4l0.4-0.9l0,0l0.5-1.1l0.3-0.6v-1.2v-2.7l0,0h1.4l0,0l-0.4-0.7l-0.2-0.4l-0.1-0.2l-0.5-0.7l-0.4-0.5l-1-0.3
		l-0.3-0.3l-0.7-0.7v-0.1l0.6-0.4L-125.5,375L-125.5,375L-125.5,375z"/>
</g>
</svg>
