<?xml version="1.0" encoding="utf-8"?>
<svg version="1.1" xmlns="http://www.w3.org/2000/svg" xmlns:xlink="http://www.w3.org/1999/xlink" x="0px" y="0px" viewBox="0 0 1719 160" enable-background="new 0 0 1719 160" xml:space="preserve">
	<g id="tunnistaminen_logo_fi">
		<path fill="000000" d="M19.7,132l14.9-19.3c5.6,5.4,14,13.6,24.9,13.6c9.1,0,14.5-6,14.5-13.4c0-5.8-3-10.2-17.7-19
			C36.6,82.2,25.1,71.9,25.1,53.7v-0.4c0-21.9,16-36.8,39.2-36.8c11.2,0,24.7,4.1,35.2,15.1L84.2,50.7c-4.6-5-11.9-11.2-21-11.2
			c-7.4,0-13,4.5-13,11.3c0,6.1,3,10.6,21,21.8C89.6,84,99.1,94.1,99.1,111.4v0.4c0,22.3-17.3,37.6-39.2,37.6
			C46.8,149.3,32.5,144.8,19.7,132z"/>
		<path fill="000000" d="M111.9,103.4V17.8h24.9v86.9c0,15.1,6.5,22.1,16.6,22.1s16.6-6.9,16.6-21.9V17.8h24.7v85.4c0,31.8-16.7,46.7-41.5,46.7
			C128.7,149.9,111.9,134.8,111.9,103.4z"/>
		<path fill="000000" d="M210.3,85.1v-4.3c0-41.1,19.3-65.1,47.4-65.1c28.1,0,47.2,24,47.2,64.9v4.3c0,40.9-19.3,65.1-47.4,65.1
			S210.3,126.1,210.3,85.1z M279.5,84.2v-2.4c0-29.4-9.5-43.2-21.9-43.2s-21.8,13.6-21.8,43V84c0,29.4,9.5,43.2,21.9,43.2
			S279.5,113.6,279.5,84.2z"/>
		<path fill="000000" d="M321.5,17.8H347l22.9,50.4l22.7-50.4h25.7V148h-24.4V66.9l-24,51.7h-0.4l-24-51.3V148h-24V17.8z"/>
		<path fill="000000" d="M439.1,17.8h24.7V148h-24.7V17.8z"/>
		<path fill="000000" d="M483.5,120.7h27.3V148h-27.3V120.7z"/>
		<path fill="000000" d="M529.9,17.8h66.6V41h-41.7v30.9h36.5v23.3h-36.5V148h-24.9V17.8z"/>
		<path fill="000000" d="M612.1,17.8h24.7V148h-24.7V17.8z"/>
		<path fill="000000" d="M655.6,78.2h51.5v24.2h-51.5V78.2z"/>
		<path fill="000000" d="M726.8,127V68.4h-8V48.3h8V22.8H751v25.5h15.8v20.1H751v52.1c0,5.2,2.4,7.4,7.3,7.4c2.8,0,5.8-0.7,8.4-2v19.3
			c-4.3,2.4-10,4.3-16.4,4.3C737.4,149.5,726.8,144.8,726.8,127z"/>
		<path fill="000000" d="M779.3,119.9V48.3h24.2v65.3c0,9.5,3.9,14.5,10.6,14.5s11.2-5,11.2-14.5V48.3h24.2V148h-24.2v-12.6
			c-4.8,7.8-11,14.5-21.6,14.5C787.8,149.9,779.3,138,779.3,119.9z"/>
		<path fill="000000" d="M866.1,48.3h24.2v12.6c4.8-7.8,11-14.5,21.8-14.5c15.6,0,24.4,11.9,24.4,29.9V148h-24.2V82.7c0-9.5-4.1-14.5-10.8-14.5
			s-11.2,5-11.2,14.5V148h-24.2V48.3z"/>
		<path fill="000000" d="M952.4,48.3h24.2v12.6c4.8-7.8,11-14.5,21.8-14.5c15.6,0,24.4,11.9,24.4,29.9V148h-24.2V82.7c0-9.5-4.1-14.5-10.8-14.5
			s-11.2,5-11.2,14.5V148h-24.2V48.3z"/>
		<path fill="000000" d="M1038.9,15.2h24.9v23.1h-24.9V15.2z M1039.3,48.3h24.2V148h-24.2V48.3z"/>
		<path fill="000000" d="M1073.3,137.4l11.2-18.4c6.9,6,14,10.2,21,10.2c6.5,0,9.1-3.9,9.1-7.8v-0.2c0-5.4-5-8.4-15.4-14.5
			c-14.3-8.6-22.3-16.2-22.3-30.1v-0.4c0-17.9,13.2-29.4,31.6-29.4c8.7,0,19.2,3.2,28.3,10l-10.6,18.4c-4.5-3.9-10.8-7.8-17.7-7.8
			c-5.8,0-8.7,3.3-8.7,7.3v0.4c0,4.8,4.8,8,15.4,14.3c15.3,9.1,22.3,17.3,22.3,30.1v0.4c0,19-14,29.9-32,29.9
			C1096.2,149.9,1084.1,146.7,1073.3,137.4z"/>
		<path fill="000000" d="M1151.1,127V68.4h-8V48.3h8V22.8h24.2v25.5h15.8v20.1h-15.8v52.1c0,5.2,2.4,7.4,7.3,7.4c2.8,0,5.8-0.7,8.4-2v19.3
			c-4.3,2.4-10,4.3-16.4,4.3C1161.7,149.5,1151.1,144.8,1151.1,127z"/>
		<path fill="000000" d="M1200,119.9v-2c0-22.1,11.5-31.8,28.5-31.8c6.5,0,11.7,1.5,17.1,3.9v-4.5c0-11.3-6.5-16.6-16-16.6c-7.8,0-14.9,3.9-17.9,6
			l-7.3-19.9c8.2-4.5,17.5-7.8,28.6-7.8c11.5,0,20.6,3.3,26.6,9.3c6.3,6.3,9.5,16,9.5,28.3V148h-23.8v-10.6
			c-5,8-11.7,12.3-21.2,12.3C1210.6,149.7,1200,138.7,1200,119.9z M1245.6,117.9v-12.1c-2.8-1.3-7.1-2.6-10.8-2.6
			c-7.1,0-11.5,4.8-11.5,14.1v0.4c0,8.9,4.1,12.8,9.7,13.2C1239.8,131.3,1245.6,125.7,1245.6,117.9z"/>
		<path fill="000000" d="M1285.2,48.3h24.2v12.6c5.2-8.4,11.5-14.5,21.8-14.5c10,0,16.6,5.2,20.8,13c5.6-7.1,12.6-13,23.1-13
			c14.1,0,25.1,10.2,25.1,29.9V148H1376V82.9c0-9.5-3.7-14.7-10.4-14.7c-6.5,0-10.8,5.2-10.8,14.7V148h-24.2V82.9
			c0-9.5-3.7-14.7-10.4-14.7c-6.5,0-10.8,5.2-10.8,14.7V148h-24.2V48.3z"/>
		<path fill="000000" d="M1416.3,15.2h24.9v23.1h-24.9V15.2z M1416.7,48.3h24.2V148h-24.2V48.3z"/>
		<path fill="000000" d="M1458.4,48.3h24.2v12.6c4.8-7.8,11-14.5,21.8-14.5c15.6,0,24.4,11.9,24.4,29.9V148h-24.2V82.7c0-9.5-4.1-14.5-10.8-14.5
			s-11.2,5-11.2,14.5V148h-24.2V48.3z"/>
		<path fill="000000" d="M1541.5,100v-3.2c0-30.9,16-50.2,36.8-50.2c23.1,0,35.5,20.3,35.5,51.5c0,0.7,0,4.6-0.2,10h-48.2
			c1.7,13.6,8.7,20.5,18.2,20.5c7.1,0,12.6-4.5,17.3-9.3l10.6,17.9c-8.9,8.2-18.4,12.8-29.8,12.8
			C1559.3,150,1541.5,131.6,1541.5,100z M1590.8,90.9c-0.6-15.1-4.8-23.6-12.5-23.6c-7.3,0-12.3,8-13,23.6H1590.8z"/>
		<path fill="000000" d="M1626.9,48.3h24.2v12.6c4.8-7.8,11-14.5,21.8-14.5c15.6,0,24.4,11.9,24.4,29.9V148H1673V82.7c0-9.5-4.1-14.5-10.8-14.5
			s-11.2,5-11.2,14.5V148h-24.2V48.3z"/>
	</g>
</svg>
