<?xml version="1.0" encoding="utf-8"?>
<!-- Generator: Adobe Illustrator 19.2.1, SVG Export Plug-In . SVG Version: 6.00 Build 0)  -->
<svg version="1.1" id="Layer_1" xmlns="http://www.w3.org/2000/svg" xmlns:xlink="http://www.w3.org/1999/xlink" x="0px" y="0px"
	 viewBox="0 0 241.5 55" style="enable-background:new 0 0 241.5 55;" xml:space="preserve">
<style type="text/css">
	.st0{fill:#003479;}
	.st1{fill:#FFFFFF;}
</style>
<path class="st0" d="M53,55H2c-1.1,0-2-0.9-2-2V2c0-1.1,0.9-2,2-2h51c1.1,0,2,0.9,2,2v51C55,54.1,54.1,55,53,55z"/>
<g>
	<path class="st1" d="M14,15v5h7v-7h-5C14.9,13,14,13.9,14,15z"/>
	<path class="st1" d="M14,41c0,0.5,0.4,1,1,1h5c0.5,0,1-0.5,1-1V27h-7V41z"/>
	<path class="st1" d="M41,13H28v7h14v-6C42,13.4,41.5,13,41,13z"/>
	<path class="st1" d="M28,34h13c0.6,0,1-0.4,1-1v-6H28V34z"/>
</g>
<g>
	<path class="st0" d="M89.2,16.6V42h-3.9V16.6H76V13h22.1l0.6,3.6H89.2z"/>
	<path class="st0" d="M105.6,22v13.7c0,2.1,0.9,3.4,3.1,3.4c2,0,4-1.3,5.8-3.2V22h3.7v20h-3l-0.5-2.9c-1.9,1.8-4.3,3.3-7.1,3.3
		c-3.8,0-5.8-2.3-5.8-5.9V22H105.6z"/>
	<path class="st0" d="M135.8,42V28.3c0-2.1-0.9-3.4-3.1-3.4c-2,0-4,1.3-5.8,3.2V42h-3.7V22h3l0.5,2.9c1.9-1.7,4.2-3.3,7.1-3.3
		c3.8,0,5.8,2.3,5.8,5.9V42H135.8z"/>
	<path class="st0" d="M157.1,42V28.3c0-2.1-0.9-3.4-3.1-3.4c-2,0-4,1.3-5.8,3.2V42h-3.7V22h3l0.5,2.9c1.9-1.7,4.2-3.3,7.1-3.3
		c3.8,0,5.8,2.3,5.8,5.9V42H157.1z"/>
	<path class="st0" d="M168,17.9c-1.3,0-2.4-1.1-2.4-2.4s1.1-2.4,2.4-2.4c1.3,0,2.4,1.1,2.4,2.4C170.3,16.9,169.3,17.9,168,17.9z
		 M166.1,42V22h3.7v20H166.1z"/>
	<path class="st0" d="M181.3,42.4c-2.6,0-5.6-0.9-7.3-1.9l0.5-3.5c1.9,1.3,4.3,2.3,7.1,2.3c2.6,0,4.1-1,4.1-2.6
		c0-1.8-1.1-2.5-4.7-3.4c-4.7-1.2-6.6-2.6-6.6-6.2c0-3.2,2.7-5.5,7.1-5.5c2.5,0,4.7,0.5,6.6,1.3l-0.6,3.5c-1.8-1-4-1.7-6.1-1.7
		c-2.3,0-3.4,0.9-3.4,2.3c0,1.3,1,2.1,4.2,2.9c5,1.3,7.2,2.7,7.2,6.5C189.1,40.1,186.4,42.4,181.3,42.4z"/>
	<path class="st0" d="M199.7,42.3c-3.5,0-5.8-1.3-5.8-5.3V25.1h-3V22h3v-6.7l3.7-0.5V22h4.3l0.5,3.2h-4.8v11.3
		c0,1.6,0.7,2.6,2.8,2.6c0.7,0,1.3,0,1.7-0.1l0.5,3.2C201.9,42.2,201,42.3,199.7,42.3z"/>
	<path class="st0" d="M209.9,22v13.7c0,2.1,0.9,3.4,3.1,3.4c2,0,4-1.3,5.8-3.2V22h3.7v20h-3l-0.5-2.9c-1.9,1.8-4.3,3.3-7.1,3.3
		c-3.8,0-5.8-2.3-5.8-5.9V22H209.9z"/>
	<path class="st0" d="M233.6,42.4c-2.6,0-5.6-0.9-7.3-1.9l0.5-3.5c1.9,1.3,4.3,2.3,7.1,2.3c2.6,0,4.1-1,4.1-2.6
		c0-1.8-1.1-2.5-4.7-3.4c-4.7-1.2-6.6-2.6-6.6-6.2c0-3.2,2.7-5.5,7.1-5.5c2.5,0,4.7,0.5,6.6,1.3l-0.6,3.5c-1.8-1-4-1.7-6.1-1.7
		c-2.3,0-3.4,0.9-3.4,2.3c0,1.3,1,2.1,4.2,2.9c5,1.3,7.2,2.7,7.2,6.5C241.5,40.1,238.8,42.4,233.6,42.4z"/>
</g>
</svg>
