<?xml version="1.0" encoding="utf-8"?>
<svg version="1.1" xmlns="http://www.w3.org/2000/svg" xmlns:xlink="http://www.w3.org/1999/xlink" x="0px" y="0px" viewBox="0 0 1578 187" enable-background="new 0 0 1578 187" xml:space="preserve">
	<g id="tunnistaminen_logo_sv">
		<path fill="000000" d="M19.7,132l14.9-19.3c5.6,5.4,14,13.6,24.9,13.6c9.1,0,14.5-6,14.5-13.4c0-5.8-3-10.2-17.7-19
			C36.6,82.2,25.1,71.9,25.1,53.7v-0.4c0-21.9,16-36.8,39.2-36.8c11.2,0,24.7,4.1,35.2,15.1L84.2,50.7c-4.6-5-11.9-11.2-21-11.2
			c-7.4,0-13,4.5-13,11.3c0,6.1,3,10.6,21,21.8C89.6,84,99.1,94.1,99.1,111.4v0.4c0,22.3-17.3,37.6-39.2,37.6
			C46.8,149.3,32.5,144.8,19.7,132z"/>
		<path fill="000000" d="M111.9,103.4V17.8h24.9v86.9c0,15.1,6.5,22.1,16.6,22.1s16.6-6.9,16.6-21.9V17.8h24.7v85.4c0,31.8-16.7,46.7-41.5,46.7
			C128.7,149.9,111.9,134.8,111.9,103.4z"/>
		<path fill="000000" d="M210.3,85.1v-4.3c0-41.1,19.3-65.1,47.4-65.1c28.1,0,47.2,24,47.2,64.9v4.3c0,40.9-19.3,65.1-47.4,65.1
			S210.3,126.1,210.3,85.1z M279.5,84.2v-2.4c0-29.4-9.5-43.2-21.9-43.2s-21.8,13.6-21.8,43V84c0,29.4,9.5,43.2,21.9,43.2
			S279.5,113.6,279.5,84.2z"/>
		<path fill="000000" d="M321.5,17.8H347l22.9,50.4l22.7-50.4h25.7V148h-24.4V66.9l-24,51.7h-0.4l-24-51.3V148h-24V17.8z"/>
		<path fill="000000" d="M439.1,17.8h24.7V148h-24.7V17.8z"/>
		<path fill="000000" d="M483.5,120.7h27.3V148h-27.3V120.7z"/>
		<path fill="000000" d="M529.9,17.8h66.6V41h-41.7v30.9h36.5v23.3h-36.5V148h-24.9V17.8z"/>
		<path fill="000000" d="M612.1,17.8h24.7V148h-24.7V17.8z"/>
		<path fill="000000" d="M655.6,78.2h51.5v24.2h-51.5V78.2z"/>
		<path fill="000000" d="M723.7,15.2h24.9v23.1h-24.9V15.2z M724,48.3h24.2V148H724V48.3z"/>
		<path fill="000000" d="M763.3,101.1v-6c0-34.8,13.6-48.7,29.6-48.7c11.5,0,17.7,7.6,22.3,14.3V15.2h24.2V148h-24.2v-13.2
			c-4.5,7.3-10.8,15.1-22.3,15.1C777,149.9,763.3,136.1,763.3,101.1z M815.4,99.8v-3.3c0-17.3-5.8-27.9-14.1-27.9
			s-13.8,10.6-13.8,27.9v3.3c0,17.5,5.4,27.9,13.8,27.9S815.4,117.3,815.4,99.8z"/>
		<path fill="000000" d="M852.9,100v-3.2c0-30.9,16-50.2,36.8-50.2c23.1,0,35.5,20.3,35.5,51.5c0,0.7,0,4.6-0.2,10h-48.2
			c1.7,13.6,8.7,20.5,18.2,20.5c7.1,0,12.6-4.5,17.3-9.3l10.6,17.9c-8.9,8.2-18.4,12.8-29.8,12.8C870.8,150,852.9,131.6,852.9,100z
			 M902.2,90.9c-0.6-15.1-4.8-23.6-12.5-23.6c-7.3,0-12.3,8-13,23.6H902.2z"/>
		<path fill="000000" d="M938.3,48.3h24.2v12.6c4.8-7.8,11-14.5,21.8-14.5c15.6,0,24.4,11.9,24.4,29.9V148h-24.2V82.7c0-9.5-4.1-14.5-10.8-14.5
			s-11.2,5-11.2,14.5V148h-24.2V48.3z"/>
		<path fill="000000" d="M1027.4,127V68.4h-8V48.3h8V22.8h24.2v25.5h15.8v20.1h-15.8v52.1c0,5.2,2.4,7.4,7.3,7.4c2.8,0,5.8-0.7,8.4-2v19.3
			c-4.3,2.4-10,4.3-16.4,4.3C1038,149.5,1027.4,144.8,1027.4,127z"/>
		<path fill="000000" d="M1080.8,15.2h24.9v23.1h-24.9V15.2z M1081.1,48.3h24.2V148h-24.2V48.3z"/>
		<path fill="000000" d="M1126.2,68.4h-8.2V48.7h8.2v-6.9c0-9.3,2.2-16,6.7-20.5c4.7-4.5,11.5-6.9,20.5-6.9c5.4,0,8.9,0.6,12.3,1.5V36
			c-2-0.6-3.7-0.9-6.1-0.9c-5.8,0-9.3,3.2-9.3,9.7v3.9h15.4v19.7h-15.3V148h-24.2V68.4z M1176.2,15.2h24.9v23.1h-24.9V15.2z
			 M1176.6,48.3h24.2V148h-24.2V48.3z"/>
		<path fill="000000" d="M1215.1,100v-3.2c0-30.9,16-50.2,36.8-50.2c23.1,0,35.5,20.3,35.5,51.5c0,0.7,0,4.6-0.2,10h-48.2
			c1.7,13.6,8.7,20.5,18.2,20.5c7.1,0,12.6-4.5,17.3-9.3l10.6,17.9c-8.9,8.2-18.4,12.8-29.8,12.8
			C1232.9,150,1215.1,131.6,1215.1,100z M1264.4,90.9c-0.6-15.1-4.8-23.6-12.5-23.6c-7.3,0-12.3,8-13,23.6H1264.4z"/>
		<path fill="000000" d="M1300.4,48.3h24.2v15.1c3.9-10.2,10.2-17.1,21.6-16.4v27.5h-0.7c-13.4,0-20.8,8.6-20.8,26V148h-24.2V48.3z"/>
		<path fill="000000" d="M1358.1,15.2h24.9v23.1h-24.9V15.2z M1358.5,48.3h24.2V148h-24.2V48.3z"/>
		<path fill="000000" d="M1400.1,48.3h24.2v12.6c4.8-7.8,11-14.5,21.8-14.5c15.6,0,24.4,11.9,24.4,29.9V148h-24.2V82.7c0-9.5-4.1-14.5-10.8-14.5
			s-11.2,5-11.2,14.5V148h-24.2V48.3z"/>
		<path fill="000000" d="M1487,168.5l6.3-19.7c5.4,3,15.1,5.4,22.3,5.4c13.2,0,20.3-6,20.3-19.7v-8.2c-4.8,7.6-11.2,15.1-22.9,15.1
			c-15.8,0-29-13.8-29-47.1v-0.7c0-33.7,13.4-47.1,29-47.1c11.7,0,18,7.4,22.9,14.3V48.3h24.2v86.1c0,13.6-3.3,23.1-10,29.8
			c-7.1,7.3-17.9,10.4-32,10.4C1506.3,174.6,1497,172.6,1487,168.5z M1536.1,93.9c0-16.2-6-25.5-14.1-25.5
			c-8.2,0-13.8,9.3-13.8,25.5c0,16.6,5.6,25.5,13.8,25.5C1530.1,119.4,1536.1,110.2,1536.1,93.9z"/>
	</g>
</svg>
