<?xml version="1.0" encoding="utf-8"?>
<!-- Generator: Adobe Illustrator 19.2.1, SVG Export Plug-In . SVG Version: 6.00 Build 0)  -->
<svg version="1.1" id="Layer_1" xmlns="http://www.w3.org/2000/svg" xmlns:xlink="http://www.w3.org/1999/xlink" x="0px" y="0px"
	 viewBox="0 0 327.5 55" style="enable-background:new 0 0 327.5 55;" xml:space="preserve">
<style type="text/css">
	.st0{fill:#003479;}
	.st1{fill:#FFFFFF;}
</style>
<path class="st0" d="M53,0H2C0.9,0,0,0.9,0,2v51c0,1.1,0.9,2,2,2h51c1.1,0,2-0.9,2-2V2C55,0.9,54.1,0,53,0z"/>
<g>
	<path class="st1" d="M14,15v5h7v-7h-5C14.9,13,14,13.9,14,15z"/>
	<path class="st1" d="M14,41c0,0.6,0.5,1,1,1h5c0.5,0,1-0.4,1-1V27h-7V41z"/>
	<path class="st1" d="M41,13H28v7h14v-6C42,13.4,41.5,13,41,13z"/>
	<path class="st1" d="M28,34h13c0.6,0,1-0.4,1-1v-6H28V34z"/>
</g>
<g>
	<path class="st0" d="M84.3,42.4c-5.2,0-9.3-3.2-9.3-10.5c0-6.4,3.8-10.4,8.8-10.4c5.8,0,8.5,4.5,8.5,10v0.8H78.7
		c0.2,4.7,2.4,6.8,5.8,6.8c2.9,0,5-1.1,7.2-2.9l0.5,3.4C90.2,41.4,87.6,42.4,84.3,42.4z M78.9,29.6h9.7c-0.5-3.2-1.9-5.1-4.8-5.1
		C81.5,24.5,79.5,26.2,78.9,29.6z"/>
	<path class="st0" d="M95.6,31.9v-3.7h10.3v3.7H95.6z"/>
	<path class="st0" d="M111.1,42V13h3.9v29H111.1z"/>
	<path class="st0" d="M128.8,21.7c2,0,3.8,0.4,5,0.9V12.3l3.7-0.6V42h-3l-0.5-2.9c-1.5,1.8-3.6,3.3-6.5,3.3c-4.3,0-7.9-3.2-7.9-9.9
		C119.7,25.2,123.9,21.7,128.8,21.7z M128.2,39.1c2.3,0,4.1-1.4,5.7-3.5V26c-1.6-0.8-2.8-1.1-4.9-1.1c-3.2,0-5.4,2.6-5.4,7.5
		C123.5,36.8,125.5,39.1,128.2,39.1z"/>
	<path class="st0" d="M150.8,42.4c-5.2,0-9.3-3.2-9.3-10.5c0-6.4,3.8-10.4,8.8-10.4c5.8,0,8.5,4.5,8.5,10v0.8h-13.6
		c0.2,4.7,2.4,6.8,5.8,6.8c2.9,0,5-1.1,7.2-2.9l0.5,3.4C156.6,41.4,154.1,42.4,150.8,42.4z M145.4,29.6h9.7
		c-0.5-3.2-1.9-5.1-4.8-5.1C148,24.5,146,26.2,145.4,29.6z"/>
	<path class="st0" d="M175.3,42V28.3c0-2.1-0.9-3.4-3.1-3.4c-2,0-4,1.3-5.8,3.2V42h-3.7V22h3l0.5,2.9c1.9-1.7,4.2-3.3,7.1-3.3
		c3.8,0,5.8,2.3,5.8,5.9V42H175.3z"/>
	<path class="st0" d="M190.8,42.3c-3.5,0-5.8-1.3-5.8-5.3V25.1h-3V22h3v-6.7l3.7-0.5V22h4.3l0.5,3.2h-4.8v11.3
		c0,1.6,0.7,2.6,2.8,2.6c0.7,0,1.3,0,1.7-0.1l0.5,3.2C193,42.2,192.1,42.3,190.8,42.3z"/>
	<path class="st0" d="M199.5,17.8c-1.3,0-2.4-1-2.4-2.4c0-1.3,1.1-2.4,2.4-2.4c1.3,0,2.4,1.1,2.4,2.4
		C201.9,16.7,200.8,17.8,199.5,17.8z M197.6,42V22h3.7v20H197.6z"/>
	<path class="st0" d="M214.3,15.2c-1.7,0-2.8,0.7-2.8,2.6V22h4l0.5,3.2h-4.5V42h-3.7V25.1h-3V22h3v-4.5c0-4,2.6-5.5,6.2-5.5
		c0.6,0,1.1,0,1.6,0.1l0.5,3.4C215.8,15.3,215,15.2,214.3,15.2z"/>
	<path class="st0" d="M221.1,17.8c-1.3,0-2.4-1-2.4-2.4c0-1.3,1.1-2.4,2.4-2.4c1.3,0,2.4,1.1,2.4,2.4
		C223.5,16.7,222.4,17.8,221.1,17.8z M219.2,42V22h3.7v20H219.2z"/>
	<path class="st0" d="M236.5,42.4c-5.4,0-9.3-3.7-9.3-10.4c0-6.8,4.2-10.5,9.6-10.5c2.9,0,5,0.9,6.4,1.8l-0.5,3.7
		c-1.7-1.4-3.6-2.2-5.9-2.2c-3.4,0-5.8,2.5-5.8,7.1c0,4.9,2.5,7.2,5.9,7.2c2,0,4-0.5,6-2.2l0.5,3.4
		C241.5,41.7,239.3,42.4,236.5,42.4z"/>
	<path class="st0" d="M259.2,42l-0.4-2.7c-1.6,1.6-3.8,3.1-7.1,3.1c-3.6,0-5.9-2.2-5.9-5.6c0-5,4.3-7,12.6-7.9v-0.8
		c0-2.5-1.5-3.4-3.8-3.4c-2.4,0-4.7,0.8-6.9,1.7l-0.5-3.2c2.4-1,4.7-1.7,7.8-1.7c4.9,0,7.2,2,7.2,6.4v14H259.2z M258.5,31.8
		c-7.4,0.7-8.9,2.7-8.9,4.8c0,1.6,1.1,2.7,3,2.7c2.2,0,4.3-1.1,6-2.8V31.8z"/>
	<path class="st0" d="M274,42.3c-3.5,0-5.8-1.3-5.8-5.3V25.1h-3V22h3v-6.7l3.7-0.5V22h4.3l0.5,3.2h-4.8v11.3c0,1.6,0.7,2.6,2.8,2.6
		c0.7,0,1.3,0,1.7-0.1l0.5,3.2C276.2,42.2,275.3,42.3,274,42.3z"/>
	<path class="st0" d="M282.7,17.8c-1.3,0-2.4-1-2.4-2.4c0-1.3,1.1-2.4,2.4-2.4c1.3,0,2.4,1.1,2.4,2.4C285,16.7,284,17.8,282.7,17.8z
		 M280.8,42V22h3.7v20H280.8z"/>
	<path class="st0" d="M297.9,42.4c-5.3,0-9.2-3.8-9.2-10.4c0-6.6,3.9-10.5,9.2-10.5c5.4,0,9.3,3.9,9.3,10.5
		C307.3,38.6,303.3,42.4,297.9,42.4z M297.9,24.7c-3.6,0-5.4,3.2-5.4,7.4c0,4.1,1.9,7.3,5.4,7.3c3.7,0,5.5-3.1,5.5-7.3
		C303.5,27.9,301.5,24.7,297.9,24.7z"/>
	<path class="st0" d="M323.8,42V28.3c0-2.1-0.9-3.4-3.1-3.4c-2,0-4,1.3-5.8,3.2V42h-3.7V22h3l0.5,2.9c1.9-1.7,4.2-3.3,7.1-3.3
		c3.8,0,5.8,2.3,5.8,5.9V42H323.8z"/>
</g>
</svg>
