<?xml version="1.0" encoding="utf-8"?>
<svg version="1.1" xmlns="http://www.w3.org/2000/svg" xmlns:xlink="http://www.w3.org/1999/xlink" x="0px" y="0px" viewBox="0 0 1770 185" enable-background="new 0 0 1770 185" xml:space="preserve">
	<g id="tunnistaminen_logo_en">
		<path fill="#000000" d="M17,132l14.9-19.3c5.6,5.4,14,13.6,24.9,13.6c9.1,0,14.5-6,14.5-13.4c0-5.8-3-10.2-17.7-19C34,82.2,22.4,71.9,22.4,53.7
			v-0.4c0-21.9,16-36.8,39.2-36.8c11.2,0,24.7,4.1,35.2,15.1L81.6,50.7c-4.6-5-11.9-11.2-21-11.2c-7.4,0-13,4.5-13,11.3
			c0,6.1,3,10.6,21,21.8C87,84,96.5,94.1,96.5,111.4v0.4c0,22.3-17.3,37.6-39.2,37.6C44.2,149.3,29.9,144.9,17,132z"/>
		<path fill="#000000" d="M109.3,103.4V17.8h24.9v86.9c0,15.1,6.5,22.1,16.6,22.1s16.6-6.9,16.6-21.9V17.8h24.7v85.4c0,31.8-16.7,46.7-41.5,46.7
			C126,149.9,109.3,134.8,109.3,103.4z"/>
		<path fill="#000000" d="M207.7,85.1v-4.3c0-41.1,19.3-65.1,47.4-65.1c28.1,0,47.2,24,47.2,64.9V85c0,40.9-19.3,65.1-47.4,65.1
			S207.7,126.1,207.7,85.1z M276.9,84.2v-2.4c0-29.4-9.5-43.2-21.9-43.2s-21.8,13.6-21.8,43V84c0,29.4,9.5,43.2,21.9,43.2
			S276.9,113.6,276.9,84.2z"/>
		<path fill="#000000" d="M318.9,17.8h25.5l22.9,50.4L390,17.8h25.7V148h-24.4V66.9l-24,51.7h-0.4l-24-51.3V148h-24V17.8z"/>
		<path fill="#000000" d="M436.5,17.8h24.7V148h-24.7V17.8z"/>
		<path fill="#000000" d="M480.9,120.7h27.3V148h-27.3V120.7z"/>
		<path fill="#000000" d="M527.2,17.8h66.6v23.3h-41.7v30.9h36.5v23.3h-36.5V148h-24.9V17.8z"/>
		<path fill="#000000" d="M609.5,17.8h24.7V148h-24.7V17.8z"/>
		<path fill="#000000" d="M684.4,100v-3.2c0-30.9,16-50.2,36.8-50.2c23.1,0,35.5,20.3,35.5,51.5c0,0.7,0,4.6-0.2,10h-48.2
			c1.7,13.6,8.7,20.5,18.2,20.5c7.1,0,12.6-4.5,17.3-9.3l10.6,17.9c-8.9,8.2-18.4,12.8-29.8,12.8C702.3,150.1,684.4,131.7,684.4,100
			z M733.7,90.9c-0.6-15.1-4.8-23.6-12.5-23.6c-7.3,0-12.3,8-13,23.6H733.7z"/>
		<path fill="#000000" d="M769.4,78.3h51.5v24.2h-51.5V78.3z"/>
		<path fill="#000000" d="M839.7,17.8h24.7V148h-24.7V17.8z"/>
		<path fill="#000000" d="M881.2,101.1v-6c0-34.8,13.6-48.7,29.6-48.7c11.5,0,17.7,7.6,22.3,14.3V15.2h24.2V148h-24.2v-13.2
			c-4.5,7.3-10.8,15.1-22.3,15.1C895,149.9,881.2,136.1,881.2,101.1z M933.3,99.8v-3.3c0-17.3-5.8-27.9-14.1-27.9
			s-13.8,10.6-13.8,27.9v3.3c0,17.5,5.4,27.9,13.8,27.9S933.3,117.3,933.3,99.8z"/>
		<path fill="#000000" d="M970.8,100v-3.2c0-30.9,16-50.2,36.8-50.2c23.1,0,35.5,20.3,35.5,51.5c0,0.7,0,4.6-0.2,10h-48.2
			c1.7,13.6,8.7,20.5,18.2,20.5c7.1,0,12.6-4.5,17.3-9.3l10.6,17.9c-8.9,8.2-18.4,12.8-29.8,12.8C988.7,150.1,970.8,131.7,970.8,100
			z M1020.1,90.9c-0.6-15.1-4.8-23.6-12.5-23.6c-7.3,0-12.3,8-13,23.6H1020.1z"/>
		<path fill="#000000" d="M1056.2,48.3h24.2V61c4.8-7.8,11-14.5,21.8-14.5c15.6,0,24.4,11.9,24.4,29.9V148h-24.2V82.7c0-9.5-4.1-14.5-10.8-14.5
			s-11.2,5-11.2,14.5V148h-24.2V48.3z"/>
		<path fill="#000000" d="M1145.3,127V68.4h-8V48.3h8V22.8h24.2v25.5h15.8v20.1h-15.8v52.1c0,5.2,2.4,7.4,7.3,7.4c2.8,0,5.8-0.7,8.4-2v19.3
			c-4.3,2.4-10,4.3-16.4,4.3C1155.9,149.5,1145.3,144.9,1145.3,127z"/>
		<path fill="#000000" d="M1198.7,15.2h24.9v23.1h-24.9V15.2z M1199.1,48.3h24.2V148h-24.2V48.3z"/>
		<path fill="#000000" d="M1244.1,68.4h-8.2V48.7h8.2v-6.9c0-9.3,2.2-16,6.7-20.5c4.7-4.5,11.5-6.9,20.5-6.9c5.4,0,8.9,0.6,12.3,1.5V36
			c-2-0.6-3.7-0.9-6.1-0.9c-5.8,0-9.3,3.2-9.3,9.7v3.9h15.4v19.7h-15.3V148h-24.2V68.4z M1294.1,15.2h24.9v23.1h-24.9V15.2z
			 M1294.5,48.3h24.2V148h-24.2V48.3z"/>
		<path fill="#000000" d="M1333.3,100.6v-4.3c0-30.7,16.2-49.7,39.2-49.7c9.3,0,16.6,3,24.4,9.3L1385.8,76c-3-3.3-6.7-6.9-12.5-6.9
			c-9.7,0-15.8,10.6-15.8,28.5v1.3c0,17.9,5.2,28.6,15.8,28.6c5.8,0,9.1-3.3,12.6-7.4l11,18.4c-6.5,7.1-15.3,11.5-26,11.5
			C1348.2,150.1,1333.3,131.3,1333.3,100.6z"/>
		<path fill="#000000" d="M1403.1,119.9v-2c0-22.1,11.5-31.8,28.5-31.8c6.5,0,11.7,1.5,17.1,3.9v-4.5c0-11.3-6.5-16.6-16-16.6
			c-7.8,0-14.9,3.9-17.9,6l-7.3-19.9c8.2-4.5,17.5-7.8,28.6-7.8c11.5,0,20.6,3.3,26.6,9.3c6.3,6.3,9.5,16,9.5,28.3V148h-23.8v-10.6
			c-5,8-11.7,12.3-21.2,12.3C1413.7,149.7,1403.1,138.7,1403.1,119.9z M1448.7,117.9v-12.1c-2.8-1.3-7.1-2.6-10.8-2.6
			c-7.1,0-11.5,4.8-11.5,14.1v0.4c0,8.9,4.1,12.8,9.7,13.2C1442.9,131.3,1448.7,125.7,1448.7,117.9z"/>
		<path fill="#000000" d="M1490.7,127V68.4h-8V48.3h8V22.8h24.2v25.5h15.8v20.1h-15.8v52.1c0,5.2,2.4,7.4,7.3,7.4c2.8,0,5.8-0.7,8.4-2v19.3
			c-4.3,2.4-10,4.3-16.4,4.3C1501.3,149.5,1490.7,144.9,1490.7,127z"/>
		<path fill="#000000" d="M1544.1,15.2h24.9v23.1h-24.9V15.2z M1544.4,48.3h24.2V148h-24.2V48.3z"/>
		<path fill="#000000" d="M1583.3,100.4v-3.9c0-30.9,16.6-49.8,38.9-49.8c22.5,0,38.9,18.8,38.9,49.7v3.9c0,30.9-16.4,49.8-38.9,49.8
			S1583.3,131.3,1583.3,100.4z M1637.1,99.5v-2.2c0-17.9-5.4-29.4-14.9-29.4c-9.7,0-14.9,11.3-14.9,29.4v2.2
			c0,17.7,5.6,29.4,14.9,29.4C1631.9,128.9,1637.1,117.3,1637.1,99.5z"/>
		<path fill="#000000" d="M1675,48.3h24.2V61c4.8-7.8,11-14.5,21.8-14.5c15.6,0,24.4,11.9,24.4,29.9V148h-24.2V82.7c0-9.5-4.1-14.5-10.8-14.5
			s-11.2,5-11.2,14.5V148H1675V48.3z"/>
	</g>
</svg>
