<?xml version="1.0" encoding="utf-8"?>
<svg version="1.1" xmlns="http://www.w3.org/2000/svg" xmlns:xlink="http://www.w3.org/1999/xlink" x="0px" y="0px" viewBox="0 0 1668 187" enable-background="new 0 0 1668 187" xml:space="preserve">
	<g id="tunnistaminen_logo_sv">
		<path fill="#000000" d="M21.8,141l14.9-19.3c5.6,5.4,14,13.6,24.9,13.6c9.1,0,14.5-6,14.5-13.4c0-5.8-3-10.2-17.7-19
			C38.7,91.2,27.1,80.9,27.1,62.7v-0.4c0-21.9,16-36.8,39.2-36.8c11.2,0,24.7,4.1,35.2,15.1L86.3,59.7c-4.6-5-11.9-11.2-21-11.2
			c-7.4,0-13,4.5-13,11.3c0,6.1,3,10.6,21,21.8c18.4,11.3,27.9,21.4,27.9,38.7v0.4c0,22.3-17.3,37.6-39.2,37.6
			C48.9,158.3,34.6,153.9,21.8,141z"/>
		<path fill="#000000" d="M114,112.4V26.8h24.9v86.9c0,15.1,6.5,22.1,16.6,22.1s16.6-6.9,16.6-21.9V26.8h24.7v85.4c0,31.8-16.7,46.7-41.5,46.7
			C130.7,158.9,114,143.8,114,112.4z"/>
		<path fill="#000000" d="M212.4,94.1v-4.3c0-41.1,19.3-65.1,47.4-65.1c28.1,0,47.2,24,47.2,64.9V94c0,40.9-19.3,65.1-47.4,65.1
			S212.4,135.1,212.4,94.1z M281.6,93.2v-2.4c0-29.4-9.5-43.2-21.9-43.2s-21.8,13.6-21.8,43V93c0,29.4,9.5,43.2,21.9,43.2
			S281.6,122.6,281.6,93.2z"/>
		<path fill="#000000" d="M323.6,26.8h25.5L372,77.2l22.7-50.4h25.7V157H396V75.9l-24,51.7h-0.4l-24-51.3V157h-24V26.8z"/>
		<path fill="#000000" d="M441.2,26.8h24.7V157h-24.7V26.8z"/>
		<path fill="#000000" d="M485.6,129.7H513V157h-27.3V129.7z"/>
		<path fill="#000000" d="M531.9,26.8h66.6v23.3h-41.7v30.9h36.5v23.3h-36.5V157h-24.9V26.8z"/>
		<path fill="#000000" d="M614.2,26.8h24.7V157h-24.7V26.8z"/>
		<path fill="#000000" d="M657.7,87.3h51.5v24.2h-51.5V87.3z"/>
		<path fill="#000000" d="M725.8,24.2h24.9v23.1h-24.9V24.2z M726.1,57.3h24.2V157h-24.2V57.3z"/>
		<path fill="#000000" d="M765.4,110.1v-6c0-34.8,13.6-48.7,29.6-48.7c11.5,0,17.7,7.6,22.3,14.3V24.2h24.2V157h-24.2v-13.2
			c-4.5,7.3-10.8,15.1-22.3,15.1C779.1,158.9,765.4,145.1,765.4,110.1z M817.4,108.8v-3.3c0-17.3-5.8-27.9-14.1-27.9
			s-13.8,10.6-13.8,27.9v3.3c0,17.5,5.4,27.9,13.8,27.9S817.4,126.3,817.4,108.8z"/>
		<path fill="#000000" d="M855,109v-3.2c0-30.9,16-50.2,36.8-50.2c23.1,0,35.5,20.3,35.5,51.5c0,0.7,0,4.6-0.2,10H879c1.7,13.6,8.7,20.5,18.2,20.5
			c7.1,0,12.6-4.5,17.3-9.3l10.6,17.9c-8.9,8.2-18.4,12.8-29.8,12.8C872.9,159.1,855,140.7,855,109z M904.3,99.9
			c-0.6-15.1-4.8-23.6-12.5-23.6c-7.3,0-12.3,8-13,23.6H904.3z"/>
		<path fill="#000000" d="M940.4,57.3h24.2V70c4.8-7.8,11-14.5,21.8-14.5c15.6,0,24.4,11.9,24.4,29.9V157h-24.2V91.7c0-9.5-4.1-14.5-10.8-14.5
			s-11.2,5-11.2,14.5V157h-24.2V57.3z"/>
		<path fill="#000000" d="M1029.5,136V77.4h-8V57.3h8V31.8h24.2v25.5h15.8v20.1h-15.8v52.1c0,5.2,2.4,7.4,7.3,7.4c2.8,0,5.8-0.7,8.4-2v19.3
			c-4.3,2.4-10,4.3-16.4,4.3C1040.1,158.5,1029.5,153.9,1029.5,136z"/>
		<path fill="#000000" d="M1082.9,24.2h24.9v23.1h-24.9V24.2z M1083.2,57.3h24.2V157h-24.2V57.3z"/>
		<path fill="#000000" d="M1128.2,77.4h-8.2V57.7h8.2v-6.9c0-9.3,2.2-16,6.7-20.5c4.7-4.5,11.5-6.9,20.5-6.9c5.4,0,8.9,0.6,12.3,1.5V45
			c-2-0.6-3.7-0.9-6.1-0.9c-5.8,0-9.3,3.2-9.3,9.7v3.9h15.4v19.7h-15.3V157h-24.2V77.4z M1178.3,24.2h24.9v23.1h-24.9V24.2z
			 M1178.7,57.3h24.2V157h-24.2V57.3z"/>
		<path fill="#000000" d="M1220.3,24.2h24.2v71.2l21-38.1h27l-24.4,40l24.4,59.7h-27l-14.9-39.2l-6.1,10.8V157h-24.2V24.2z"/>
		<path fill="#000000" d="M1296.4,128.9v-2c0-22.1,11.5-31.8,28.5-31.8c6.5,0,11.7,1.5,17.1,3.9v-4.5c0-11.3-6.5-16.6-16-16.6
			c-7.8,0-14.9,3.9-17.9,6l-7.3-19.9c8.2-4.5,17.5-7.8,28.6-7.8c11.5,0,20.6,3.3,26.6,9.3c6.3,6.3,9.5,16,9.5,28.3V157h-23.8v-10.6
			c-5,8-11.7,12.3-21.2,12.3C1307,158.7,1296.4,147.7,1296.4,128.9z M1342,126.9v-12.1c-2.8-1.3-7.1-2.6-10.8-2.6
			c-7.1,0-11.5,4.8-11.5,14.1v0.4c0,8.9,4.1,12.8,9.7,13.2C1336.2,140.3,1342,134.7,1342,126.9z"/>
		<path fill="#000000" d="M1384,136V77.4h-8V57.3h8V31.8h24.2v25.5h15.8v20.1h-15.8v52.1c0,5.2,2.4,7.4,7.3,7.4c2.8,0,5.8-0.7,8.4-2v19.3
			c-4.3,2.4-10,4.3-16.4,4.3C1394.6,158.5,1384,153.9,1384,136z"/>
		<path fill="#000000" d="M1437.4,24.2h24.9v23.1h-24.9V24.2z M1437.7,57.3h24.2V157h-24.2V57.3z"/>
		<path fill="#000000" d="M1476.6,109.4v-3.9c0-30.9,16.6-49.8,38.9-49.8c22.5,0,38.9,18.8,38.9,49.7v3.9c0,30.9-16.4,49.8-38.9,49.8
			S1476.6,140.3,1476.6,109.4z M1530.4,108.5v-2.2c0-17.9-5.4-29.4-14.9-29.4c-9.7,0-14.9,11.3-14.9,29.4v2.2
			c0,17.7,5.6,29.4,14.9,29.4C1525.2,137.9,1530.4,126.3,1530.4,108.5z"/>
		<path fill="#000000" d="M1568.3,57.3h24.2V70c4.8-7.8,11-14.5,21.8-14.5c15.6,0,24.4,11.9,24.4,29.9V157h-24.2V91.7c0-9.5-4.1-14.5-10.8-14.5
			s-11.2,5-11.2,14.5V157h-24.2V57.3z"/>
	</g>
</svg>