<?xml version="1.0" encoding="utf-8"?>
<!-- Generator: Adobe Illustrator 20.0.0, SVG Export Plug-In . SVG Version: 6.00 Build 0)  -->
<!DOCTYPE svg PUBLIC "-//W3C//DTD SVG 1.1//EN" "http://www.w3.org/Graphics/SVG/1.1/DTD/svg11.dtd">
<svg version="1.1" id="Layer_1" xmlns="http://www.w3.org/2000/svg" xmlns:xlink="http://www.w3.org/1999/xlink" width="60px" height="50px"
	 viewBox="380 246 60 90" xml:space="preserve">
<style type="text/css">
	.st0{fill:#00529B;}
</style>
<g>
	<path class="st0" d="M406.8,298.5c1.1,0.1,2.3,0,3.4,0.1c2.2,0,4.2,0.5,6.3,1c0.8,0.2,1.7,0.4,2.5,0.7c0.1,0.4-0.2,1.1-0.2,1.1
		c-0.3,1.1-0.5,2.2-0.7,3.4c0,0.2-0.2,0.1-0.3,0.1c-1.7-0.4-3.2-0.9-4.9-1.3c-0.9-0.2-1.8-0.3-2.8-0.4c-1.1-0.1-2.1-0.1-3.1-0.1
		c-0.5,0-1,0-1.5,0c-0.2,0-0.8,0-1.1-0.1c0.4-1.5,0.6-3,1-4.5C405.8,298.4,406.3,298.5,406.8,298.5"/>
	<path class="st0" d="M448,251.7c0.4,0.1,1.4,0.4,1.6,0.5c0.9,0.3,1.8,0.7,2.7,1c0,0.3-0.2,0.6-0.3,0.9c-0.2,0.4-0.3,0.7-0.5,1.1
		c-0.2,0.3-0.3,0.8-0.5,1.1c0,0-0.5-0.2-0.7-0.4c-0.5-0.3-1-0.5-1.5-0.9c-0.7-0.5-1.5-0.9-2.3-1.4c-0.1,0-1.4-0.8-1.9-1.2
		c-0.3-0.2-0.6-0.3-0.9-0.5c0-0.3,0.1-0.6,0.1-0.9c0.1-0.1,0-0.4,0.1-0.5C444.6,250.7,447.5,251.5,448,251.7"/>
	<path class="st0" d="M394.8,248.2c1.4,1.1,2.6,2.6,3.9,3.9c0.8,0.6,1,1.5,1.5,2.3c0.3,0.6,0.6,1.2,1,1.7c0.3,0.5-0.4,0.7-0.5,1
		c-0.4,0.4-0.9,0.8-1.2,1.2l0,0.1c1.5,0,2.9-0.1,4.4,0c0.1,0.1,0.4,2.3,0.5,3c0.1,0.8,0.3,1.5,0.4,2.3c0.2,0.7,0.2,1.5,0.4,2.2
		c0.1,0.4,0.1,0.9,0.2,1.3c0,0.1,0,0.3,0.2,0.4l17.2,0l0-0.1l0.1-0.7c0-0.6,0.1-1.2,0.1-1.7l0.1-0.6l0.4-4.9c0-0.2,0-0.5,0.1-0.7
		c0.1-0.3,1.9-0.1,2.6-0.1c0-0.1,0-0.2-0.1-0.3c-0.9-1.5-2.2-2.7-3.7-3.6c-0.4-0.3-0.8-0.5-1.2-0.6c-0.4-0.1-0.8-0.4-1.2-0.4
		c-0.4-0.1-0.8-0.2-1.2-0.2c-0.1,0,0-0.1,0-0.2c0.4-0.3,0.6-0.7,0.9-1.1c0.1-0.2,0.3-0.4,0.5-0.5c0.2-0.3,0.4-0.5,0.7-0.8l0.1-0.1
		c0.3,0.1,0.6,0.2,0.9,0.2c0.7,0.3,1.4,0.5,2,0.9c0.6,0.2,2,1.2,2.1,1.4l0.7,0.7c0.2,0.2,0.4,0.4,0.6,0.7c0.6,0.8,1.1,1.6,1.7,2.4
		c0,0.2-0.1,0.3-0.2,0.4c-0.2,0.4-0.4,0.8-0.6,1.2c1,0.1,2.1,0,3.1,0.1l0.1,0c0.5,2.8,0.9,5.8,1.5,8.6l0,0c0.7,0,1.5,0,2.2,0
		c0.5,0.1,1.1,0,1.7,0.1l9.3,0l0-2.2l0-6l0,0l4.3,0l5,0c0,0,0.2,0.9,0.3,1.3c0.1,1.2,0.2,4.2,0.2,4.5c0.1,1.4,0.1,2.8,0.3,4.2
		c0,0.1,0,0.1,0,0.2c1,3.6,2.2,7.1,3.1,10.7c0,0.2,0.1,0.4,0.1,0.7c0.1,0.1,0.1,0.3,0.1,0.4c0.4,1.6,1,3.3,1.4,4.9l0.1,0.8l-0.1,7.2
		c0,1.7-0.1,3.5-0.1,5.2c0,0-0.1,3.2-0.1,4.7c-0.1,2.1-0.1,4-0.1,6c0,1.7,0,3.3-0.1,5c-0.1,0.7,0,1.5,0,2.2c0,0.6,0,1.2,0,1.9l0,0
		c0,1.6-0.1,3.2,0,4.8c-0.1,0.7,0,3.5-0.1,4.1c0,1.6,0,3.4-0.1,5.1c-4.7,0.1-9.7,0-14.2,0c0.8-0.8,1.6-1.5,2.5-2.3l0.2-0.3l4.2-3.9
		l0.7-0.6c0-0.2,0-0.6,0-0.6c0-1.9,0.1-3.8,0.2-5.7l0.2-5.2l0.1-4.1l0.2-5.4l0-0.6c-0.3-0.2-0.6-0.4-1-0.6c0-0.1-1.8-0.9-1.8-0.9
		c-0.2,0-1.9-0.6-2-0.6c-0.7-0.1-1.4-0.3-2.1-0.3c-0.2,0-0.5,0-0.8,0c-1.3-0.1-2.5,0.1-3.7,0.1c-0.3-0.1,0.4-1.8,0.4-2
		c0.1-0.4,0.4-1.3,0.4-1.4c0.1-0.1,0.1-0.4,0.3-0.5c0,0,1.2-0.2,1.3-0.2c0.5-0.1,1.5-0.2,1.6-0.2c0.5-0.1,2.1-0.2,2.4-0.1
		c0.7,0.1,1.4,0.1,2.1,0.3c0.6,0.1,1.2,0.3,1.7,0.4c0.4,0.2,0.8,0.3,1.2,0.5l0-0.1c0-2,0.2-4,0.3-6l0-0.1l-5.1,0.1
		c-3.8,0.1-7.6,0.1-11.2,0.2c0,1.2,0,2.3,0,3.5l0,0.1c-0.6,0-2.3-0.2-2.4-0.1c-1.1,0-4-0.2-4.5,0c-1,0.1-2.1,0.3-3,0.5
		c-1.4,0.3-2.7,1-4,1.8c-0.6,0.4-1.2,0.6-1.7,1c0.1,0.7,0.2,1.3,0.2,2l0.1,0.7c0.1,0.1,4.8-0.7,5.6-0.8c0.3,0,0.6-0.1,0.9-0.1
		c1.6-0.1,3.3,0,4.8,0.2c0.6,0.1,2.3,0.4,3.2,0.6c0.2,0.1,0.4,0.1,0.6,0.2l0.1,0.1l0,13.1c0,0.4,0,0.9,0,1.3c0.1,0.1,0,0.1,0,0.2
		c-2.5,0-5.2,0.1-7.8,0c0,0.9,0.1,1.8,0.1,2.7c0,0.1,0.2,0,0.2,0.1c1.9,0.5,3.8,0.9,5.7,1.4c0.8,0.3,1.7,0.4,2.5,0.7
		c0.1,0.1,0.5,0.1,0.5,0.1c1-0.3,5.3-1.7,5.9-1.9c0.3-0.1,1.3-0.4,1.2-0.6c0.4-1,0.9-2,1.4-3c0.2,0,0.4,0.1,0.6,0.1
		c1.2,0.2,2.4,0.5,3.7,0.7c-0.3,1.3-0.7,2.6-1,4c-0.9,0.6-1.7,1.3-2.5,1.8c-1.7,0.6-3.4,1-5,1.5c-0.3,0.1-0.6,0.2-0.9,0.3
		c-1.2,0.3-2.5,0.7-3.8,0.7c-0.2,0.1-0.4,0.1-0.6,0.1l0,1.7l0,5.2c-0.1,0,0,0.2-0.2,0.2c-1.3,0-2.5,0-3.8,0l-12.5,0l-0.2-0.4l-1.4-5
		c0-0.1,0-0.2-0.1-0.2l0-5.8c0-0.9,0-1.7,0-2.6l0-13.1l0-11.1l-0.1-0.1l-3.9-0.2c0,0-9.4-0.5-9.5-0.4c-1.1,0-2.2-0.1-3.3-0.1
		c-0.6-0.1-1.2-0.1-1.8-0.1c-0.1,0.1-0.8,0-1.2,0c-0.1,3,0,6-0.1,9l0,5.1c0,3.2-0.1,6.4,0,9.6l5.6,0c0.5,0,0.9,0,1.4,0
		c1.8,0,3.7-0.1,5.5-0.1c0.4,0,0.7,0,1.1,0c1.4-0.1,3-0.1,4.4,0l0,0.1c0,0.8,0.1,1.6,0.1,2.4c0,0.5,0.1,1,0,1.5
		c-1.3,0.8-2.8,1.4-4.1,2.1c-1.6,0.7-3.2,1.5-4.8,2.2c-0.6,0.1-4,0.1-4,0.1c-1.8,0-3.6-0.1-5.4-0.3l0,2.3l0,4.8
		c-0.5,0-1,0.1-1.6,0.1l-6.2,0c-2.1,0-4.1,0-6.1,0c-0.3-0.1-0.6-0.4-0.9-0.6c-0.1-0.2-0.3-0.3-0.5-0.5c-0.6-0.6-2.1-1.9-2.1-2
		c-0.7-0.7-1.5-1.4-2.3-2c-0.9-1.1-3.2-3-3.3-3c-1.1-0.8-5.4-3.9-5.4-4c-0.3-0.2-3.4-2.4-3.7-2.8c-0.2-0.1-1.4-1-1.5-1.1
		c-0.3-0.1-2.8-2.1-3-2.3c-0.6-0.5-1.3-1-2-1.4l0.1-0.2c2-0.1,3.8,0,5.8-0.1l0.4,0l7.6-0.1c3.2,0,9.6-0.1,9.7-0.2l0.9,0l0,0.1
		c0,2.1,0,4,0,6.1c0,0.6,0,1.8,0,1.8c0.1,1.3,0,2.5,0,3.8c0.1,1.3,0.1,2.7,0.1,4c0.2,0.1,0.4,0.3,0.7,0.4c0.1-0.3,0-1.6,0-2
		c0-1.1,0-2.3,0-3.4c0.1-5.7,0.2-19.2,0.2-19.2c-0.1-0.1,0-4,0-5.1c0-1,0-3.4,0.1-3.5c0-1,0-2,0-3c0.1-1.6,0-3.5,0.1-5.1
		c0.1,0,4.3,0.1,4.4,0c2.6,0,8.5,0,8.5,0c1.9,0,3.8,0,5.7,0l5.2,0.1c4.1,0.1,7.9,0.1,12.2,0.1c0.1,0,0.5,0,0.5,0
		c4,0,7.8,0.1,11.9,0.1c0.3,0,2.8,0,2.8,0c0.1-0.3,0-0.6,0.1-0.9c0.1-0.9,0-2.9,0.1-2.9c0-0.5,0-0.9,0-1.4c0.1-0.8,0.1-1.6,0.1-2.4
		c0-2.2,0.1-4.6,0.1-6.9c-0.1,0-0.3,0-0.4,0l-0.1,0.1c-0.8,3.7-1.6,7.3-2.3,11l-0.1,0.9c-0.1,0.5-0.2,0.9-0.2,1.3l-0.2,0.3
		c-1.1,0-2.2-0.1-3.3-0.1h-0.1c-0.3-0.1-1.2-0.1-1.3-0.1c-0.1,0-2.6-0.2-3.7-0.3c-0.1,0.1-1.5-0.1-2.1-0.1c-1.5-0.1-3.3-0.1-4.8-0.2
		c-0.3,0-0.6,0-0.9,0c-0.1,0-0.6,0-0.7-0.1c0.1-0.6,0.2-1.3,0.3-2l0.5-2.8l0.9-5.2c0.2-1,0.4-2.1,0.5-3.1c-0.3,0-0.6,0-0.9,0
		c-1,1.9-1.9,3.7-3,5.6c-0.1,0.2-0.2,0.4-0.4,0.7v0.1l-0.2,0.3l-0.9,1.6l-0.6,1.1l-0.2,0.7l-0.2,0.7l-0.1,0.3l-0.2,0.7l-0.7,1.8
		l-0.3,0.1l-7.9,0l-2.7,0l-0.1-0.1l0.1-0.5l0.2-1l0.7-2.9l0.3-1.3l0.4-1.8l1.1-4.9l0.3-1.4l-0.8,0l-0.1,0.1l-1.6,3.9l-0.6,1.6
		l-0.4,1l-0.4,1.1l-0.7,1.8l-0.4,0.9l-1.1,2.8l-0.2,0.5l-0.1,0.1l-0.3,0l-12,0l-0.1-1.8l0-0.6l0.1-0.6l0.3-0.8l0.6-1.4l1.4-2.8
		l1.4-2.8l0.6-1.3l1.5-3l0.9-1.8l0.1-0.1l1.1-2.3l0.6-1.2l-0.1-2.5l0-5.6l0,0l2.8,0l0,0l-0.8-1.4l-0.5-0.8l-0.3-0.4l-1-1.5l-0.8-0.9
		l-1-1.1l-0.7-0.7l-1.5-1.5l0-0.1l1.2-0.9l1-0.7L394.8,248.2z M447.5,274.3L447.5,274.3l0.3,1.1c0.9,3.7,1.8,7.3,2.6,10.9
		c0,0.1,0,0.3,0.1,0.3c0.8-0.3,1.7-0.5,2.5-0.8l0.1-0.1c0-0.1-0.1-0.1-0.1-0.2c-0.5-1.3-0.9-2.6-1.5-3.8c-0.3-0.8-0.7-1.6-1-2.4
		c-0.2-0.6-0.4-1.1-0.6-1.6C449.3,276.5,448.4,275.5,447.5,274.3z M412.4,320.2c-0.5,0.1-1.1,0.1-1.6,0.1c-1,0-1.9,0.2-2.9,0.2
		c-2.4,0.2-5.1,0.3-7.6,0.5c0,0.5,0,1,0,1.5c0.2,0.1,1.9-0.2,2-0.1c1-0.1,3.1-0.2,3.3-0.2c0.1,0,0.9,0,0.9,0
		c0.2-0.1,1.4-0.1,1.8-0.1c0.3-0.1,1.4-0.1,1.5-0.1c0.9-0.1,1.9-0.1,2.8-0.2L412.4,320.2z"/>
</g>
</svg>
